<svg width="126" height="121" viewBox="0 0 126 121" fill="none" xmlns="http://www.w3.org/2000/svg">
<path d="M50.4882 73.2563C45.099 73.2563 40.7163 77.639 40.7163 83.0282C40.7163 88.4174 45.099 92.8001 50.4882 92.8001C55.8774 92.8001 60.2601 88.4174 60.2601 83.0282C60.2601 77.639 55.8774 73.2563 50.4882 73.2563ZM50.4882 89.5428C46.8954 89.5428 43.9736 86.621 43.9736 83.0282C43.9736 79.4354 46.8954 76.5136 50.4882 76.5136C54.081 76.5136 57.0028 79.4354 57.0028 83.0282C57.0028 86.621 54.081 89.5428 50.4882 89.5428Z" fill="#FFAD00"/>
<path d="M100.976 40.7161V4.88594H74.9177V21.1724H71.6604V0H29.3156V21.1724H26.0583V4.88594H0V40.7161H26.0583V24.4297H29.3156V43.3024C22.0421 45.4555 16.2132 51.1264 13.9917 58.6459C6.21654 58.9961 0 65.4308 0 73.2891C0 81.372 6.57484 87.9469 14.6578 87.9469H34.0322L35.0859 88.2987C35.309 88.9501 35.5696 89.5853 35.8677 90.196L34.6836 92.5625L40.9507 98.8295L43.3171 97.6455C43.9262 97.9451 44.563 98.2057 45.2161 98.4272L46.0548 100.943H54.9163L55.7551 98.4272C56.4082 98.2041 57.045 97.9435 57.6541 97.6455L60.0205 98.8295L66.2875 92.5625L65.1035 90.196C65.4032 89.5853 65.6637 88.9501 65.8852 88.2987L66.9439 87.9469H87.9469C95.1308 87.9469 100.976 82.1017 100.976 74.9177C100.976 67.7337 95.1308 61.8885 87.9469 61.8885C87.0544 61.8885 86.1635 61.983 85.2824 62.1703C83.1603 55.8251 77.991 51.1085 71.6604 49.4831V24.4297H74.9177V40.7161H100.976ZM22.801 37.4589H3.25729V8.14323H22.801V37.4589ZM65.1458 85.113L63.2501 85.7449L63.0156 86.5739C62.7338 87.5641 62.3446 88.5104 61.8543 89.3866L61.4342 90.139L62.325 91.9224L59.3788 94.8686L57.5938 93.9729L56.8397 94.3963C55.9733 94.8849 55.0287 95.2741 54.032 95.5559L53.2013 95.7904L52.5694 97.6878H48.4017L47.7698 95.7904L46.9392 95.5559C45.9441 95.2741 44.9995 94.8849 44.1314 94.3963L43.3774 93.9729L41.5907 94.8654L38.6445 91.9191L39.5354 90.1358L39.1152 89.3833C38.625 88.5088 38.2357 87.5625 37.954 86.5707L37.7194 85.7417L35.8302 85.113V80.9453L37.726 80.3118L37.9605 79.4828C38.2422 78.4926 38.6315 77.5463 39.1217 76.6701L39.5419 75.9177L38.651 74.1343L41.5972 71.1881L43.3839 72.0806L44.1363 71.6604C45.0011 71.1734 45.9457 70.7842 46.9441 70.5008L47.7731 70.2663L48.4066 68.3706H52.5743L53.2079 70.2663L54.0368 70.5008C55.0336 70.7842 55.9782 71.1734 56.8446 71.6604L57.5987 72.0839L59.3853 71.1914L62.3315 74.1376L61.4407 75.921L61.8609 76.6734C62.3511 77.548 62.7403 78.4942 63.0221 79.4861L63.2566 80.315L65.1458 80.9453V85.113ZM82.5837 64.5563L83.0088 66.3071L84.7075 65.7093C85.7694 65.3348 86.8589 65.1458 87.9469 65.1458C93.3361 65.1458 97.7188 69.5285 97.7188 74.9177C97.7188 80.3069 93.3361 84.6896 87.9469 84.6896H68.4031V78.5984L65.8885 77.7597C65.667 77.1082 65.4048 76.4731 65.1068 75.8607L66.2908 73.4943L60.0237 67.2272L57.6573 68.4113C57.0482 68.1116 56.413 67.851 55.7583 67.6295L54.9196 65.1149H46.0581L45.2194 67.6295C44.5646 67.8526 43.9295 68.1132 43.3204 68.4113L40.9539 67.2272L34.6869 73.4943L35.8709 75.8607C35.5713 76.4731 35.309 77.1082 35.0892 77.7597L32.5729 78.5984V84.6896H14.6578C8.37287 84.6896 3.25729 79.574 3.25729 73.2891C3.25729 67.0041 8.37287 61.8885 14.6578 61.8885C14.7441 61.8885 14.8272 61.8951 14.9119 61.9016L16.5161 61.9716L16.8239 60.6605C18.9102 51.7958 26.7245 45.6021 35.8302 45.6021C43.1054 45.6021 49.734 49.6134 53.1313 56.071L54.1232 57.957L55.6818 56.5026C58.7176 53.6737 62.6556 52.1167 66.7745 52.1167C74.3053 52.1167 80.8069 57.2322 82.5837 64.5563ZM66.7745 48.8594C62.5009 48.8594 58.3918 50.2535 55.0043 52.8219C50.8251 46.3138 43.6477 42.3448 35.8302 42.3448C34.7244 42.3448 33.6397 42.4376 32.5729 42.5891V3.25729H68.4031V48.9278C67.8657 48.8838 67.3217 48.8594 66.7745 48.8594ZM78.175 8.14323H97.7188V37.4589H78.175V8.14323Z" fill="#FFAD00"/>
<path d="M19.9458 61.527L23.1233 62.2485C24.4767 56.2844 29.703 52.1167 35.83 52.1167C36.3202 52.1167 36.8055 52.1444 37.2811 52.1965L37.6378 48.9587C37.0433 48.8936 36.4407 48.8594 35.83 48.8594C28.1721 48.8594 21.6396 54.0678 19.9458 61.527Z" fill="#FFAD00"/>
<path d="M40.1724 52.856C41.1919 53.2175 42.1658 53.7045 43.0665 54.3103L44.8791 51.6035C43.7521 50.8495 42.5339 50.2371 41.2587 49.7876L40.1724 52.856Z" fill="#FFAD00"/>
<path d="M6.51465 11.4004H19.5438V14.6577H6.51465V11.4004Z" fill="#FFAD00"/>
<path d="M6.51465 17.915H19.5438V21.1723H6.51465V17.915Z" fill="#FFAD00"/>
<path d="M6.51465 24.4297H19.5438V27.687H6.51465V24.4297Z" fill="#FFAD00"/>
<path d="M6.51465 30.9443H19.5438V34.2016H6.51465V30.9443Z" fill="#FFAD00"/>
<path d="M81.4321 21.1723H94.4613V11.4004H81.4321V21.1723ZM84.6894 14.6577H91.204V17.915H84.6894V14.6577Z" fill="#FFAD00"/>
<path d="M81.4321 24.4297H94.4613V27.687H81.4321V24.4297Z" fill="#FFAD00"/>
<path d="M83.061 30.9443H94.4616V34.2016H83.061V30.9443Z" fill="#FFAD00"/>
<path d="M48.8592 6.51465H35.8301V22.8011H48.8592V6.51465ZM45.602 19.5438H39.0874V9.77194H45.602V19.5438Z" fill="#FFAD00"/>
<path d="M52.1167 6.51465H65.1459V9.77194H52.1167V6.51465Z" fill="#FFAD00"/>
<path d="M52.1167 13.0293H65.1459V16.2866H52.1167V13.0293Z" fill="#FFAD00"/>
<path d="M52.1167 19.5439H65.1459V22.8012H52.1167V19.5439Z" fill="#FFAD00"/>
<path d="M35.8301 26.0581H39.0874V29.3154H35.8301V26.0581Z" fill="#FFAD00"/>
<path d="M42.3447 26.0581H65.1458V29.3154H42.3447V26.0581Z" fill="#FFAD00"/>
<path d="M35.8301 32.5728H65.1457V35.83H35.8301V32.5728Z" fill="#FFAD00"/>
<path d="M43.9736 39.0874H65.146V42.3447H43.9736V39.0874Z" fill="#FFAD00"/>
<path d="M6.51465 73.2892H9.77194C9.77194 70.5954 11.9641 68.4033 14.6579 68.4033V65.146C10.1677 65.146 6.51465 68.799 6.51465 73.2892Z" fill="#FFAD00"/>
<path d="M94.4614 74.9175H91.2041C91.2041 76.7139 89.7432 78.1748 87.9468 78.1748V81.4321C91.5396 81.4321 94.4614 78.5103 94.4614 74.9175Z" fill="#FFAD00"/>
<path d="M125.116 55.3413V99.0757L87.2402 120.944L49.3643 99.0757V55.3413L87.2402 33.4722L125.116 55.3413Z" fill="#FFAD00" fill-opacity="0.1"/>
</svg>
