<svg width="76" height="73" viewBox="0 0 76 73" fill="none" xmlns="http://www.w3.org/2000/svg">
<path d="M75.0918 31.9883V58.8789L51.8037 72.3252L28.5146 58.8789V31.9883L51.8037 18.542L75.0918 31.9883Z" fill="#FFAD00" fill-opacity="0.1"/>
<mask id="path-2-outside-1_1_9748" maskUnits="userSpaceOnUse" x="-0.799805" y="-0.799805" width="54" height="54" fill="black">
<rect fill="white" x="-0.799805" y="-0.799805" width="54" height="54"/>
<path d="M46.992 23.4725C46.9394 13.6221 40.7225 4.8598 31.4424 1.5563C22.1623 -1.7472 11.8071 1.11585 5.54208 8.71734C-0.722957 16.3188 -1.55562 27.0302 3.45943 35.5086C8.47448 43.987 18.2628 48.4159 27.942 46.5862V47.86C27.942 50.7028 34.0406 52.1895 40.0647 52.1895C46.0888 52.1895 52.1874 50.7028 52.1874 47.86V27.0782C52.1874 25.3845 50.014 24.1757 46.992 23.4725ZM50.4556 40.9327C50.4556 41.8488 46.5105 43.5304 40.0647 43.5304C38.0302 43.5452 35.9995 43.3546 34.0033 42.9615V37.7938C36.0027 38.1612 38.0319 38.3424 40.0647 38.335C44.1293 38.335 48.219 37.6553 50.4556 36.3434V40.9327ZM23.6124 40.0668C23.1342 40.0668 22.7465 40.4545 22.7465 40.9327V41.7545C20.1461 41.6371 17.602 40.9577 15.2893 39.7629L15.7032 39.045C15.9385 38.6313 15.7957 38.1052 15.3835 37.8672C14.9712 37.6292 14.4442 37.7685 14.2035 38.1791L13.7904 38.8944C11.6051 37.4842 9.74542 35.6245 8.33522 33.4391L9.05046 33.0261C9.32058 32.8725 9.48771 32.586 9.48839 32.2753C9.48907 31.9645 9.32321 31.6773 9.05377 31.5225C8.78433 31.3677 8.45261 31.3692 8.18456 31.5264L7.46672 31.9403C6.27063 29.627 5.59028 27.082 5.47253 24.4805H6.29428C6.77251 24.4805 7.16019 24.0928 7.16019 23.6146C7.16019 23.1363 6.77251 22.7486 6.29428 22.7486H5.47253C5.58995 20.1482 6.2694 17.6041 7.46412 15.2914L8.18196 15.7053C8.45002 15.8625 8.78173 15.864 9.05117 15.7092C9.32061 15.5544 9.48647 15.2672 9.48579 14.9564C9.48511 14.6457 9.31799 14.3592 9.04787 14.2056L8.33263 13.7926C9.74282 11.6072 11.6025 9.74754 13.7878 8.33734L14.2009 9.05258C14.3545 9.3227 14.641 9.48982 14.9517 9.4905C15.2625 9.49119 15.5497 9.32533 15.7045 9.05588C15.8593 8.78644 15.8578 8.45473 15.7006 8.18667L15.2867 7.46883C17.6 6.27285 20.145 5.5925 22.7465 5.47465V6.29639C22.7465 6.77462 23.1342 7.1623 23.6124 7.1623C24.0907 7.1623 24.4783 6.77462 24.4783 6.29639V5.47465C27.079 5.59208 29.6234 6.27152 31.9364 7.46623L31.5216 8.18407C31.2831 8.59803 31.4249 9.12694 31.8386 9.36604C31.9698 9.443 32.1193 9.48337 32.2715 9.48293C32.5812 9.48324 32.8674 9.31815 33.0223 9.04998L33.4353 8.33474C35.6204 9.74519 37.4801 11.6048 38.8905 13.79L38.1753 14.203C37.9052 14.3566 37.738 14.6431 37.7374 14.9538C37.7367 15.2646 37.9025 15.5518 38.172 15.7066C38.4414 15.8614 38.7731 15.8599 39.0412 15.7028L39.759 15.2888C40.9594 17.6148 41.639 20.1743 41.7506 22.7893C41.1904 22.766 40.6293 22.7486 40.0647 22.7486C34.0406 22.7486 27.942 24.2354 27.942 27.0782V41.267C26.8063 41.5455 25.6464 41.7137 24.4783 41.7692V40.9327C24.4783 40.4545 24.0907 40.0668 23.6124 40.0668ZM29.6738 29.4161C30.4927 29.8717 31.3654 30.2231 32.2715 30.4622V35.5901C30.5986 35.0705 29.6738 34.4479 29.6738 34.0063V29.4161ZM29.6738 36.3434C30.4927 36.799 31.3654 37.1503 32.2715 37.3894V42.5173C30.5986 41.9978 29.6738 41.3752 29.6738 40.9336V36.3434ZM50.4556 34.0054C50.4556 34.9216 46.5105 36.6032 40.0647 36.6032C38.0302 36.618 35.9995 36.4274 34.0033 36.0343V30.8665C36.0027 31.234 38.0319 31.4152 40.0647 31.4077C44.1293 31.4077 48.219 30.728 50.4556 29.4161V34.0054ZM50.4556 27.0782C50.4556 27.9943 46.5105 29.6759 40.0647 29.6759C33.6189 29.6759 29.6738 27.9943 29.6738 27.0782C29.6738 26.1621 33.6189 24.4805 40.0647 24.4805C46.5105 24.4805 50.4556 26.1621 50.4556 27.0782ZM23.6124 45.2623C11.718 45.266 2.04857 35.6725 1.95851 23.7785C1.86846 11.8844 11.3915 2.14558 23.2846 1.96923C35.1777 1.79288 44.9854 11.2451 45.248 23.1366C44.6834 23.05 44.1042 22.9729 43.5101 22.9149C43.2215 14.5207 37.7013 7.20835 29.7074 4.63091C21.7135 2.05347 12.9616 4.76417 7.82406 11.4088C2.68648 18.0535 2.26591 27.2058 6.77246 34.2936C11.279 41.3814 19.7454 44.8833 27.942 43.0499V44.818C26.5175 45.1119 25.0669 45.2607 23.6124 45.2623ZM29.6738 47.86V43.2707C30.4927 43.7262 31.3654 44.0776 32.2715 44.3167V49.4446C30.5986 48.9207 29.6738 48.3016 29.6738 47.86ZM40.0647 50.4577C38.0302 50.4725 35.9995 50.2819 34.0033 49.8888V44.7211C36.0027 45.0885 38.0319 45.2697 40.0647 45.2623C44.1293 45.2623 48.219 44.5825 50.4556 43.2707V47.86C50.4556 48.7761 46.5105 50.4577 40.0647 50.4577Z"/>
</mask>
<path d="M46.992 23.4725C46.9394 13.6221 40.7225 4.8598 31.4424 1.5563C22.1623 -1.7472 11.8071 1.11585 5.54208 8.71734C-0.722957 16.3188 -1.55562 27.0302 3.45943 35.5086C8.47448 43.987 18.2628 48.4159 27.942 46.5862V47.86C27.942 50.7028 34.0406 52.1895 40.0647 52.1895C46.0888 52.1895 52.1874 50.7028 52.1874 47.86V27.0782C52.1874 25.3845 50.014 24.1757 46.992 23.4725ZM50.4556 40.9327C50.4556 41.8488 46.5105 43.5304 40.0647 43.5304C38.0302 43.5452 35.9995 43.3546 34.0033 42.9615V37.7938C36.0027 38.1612 38.0319 38.3424 40.0647 38.335C44.1293 38.335 48.219 37.6553 50.4556 36.3434V40.9327ZM23.6124 40.0668C23.1342 40.0668 22.7465 40.4545 22.7465 40.9327V41.7545C20.1461 41.6371 17.602 40.9577 15.2893 39.7629L15.7032 39.045C15.9385 38.6313 15.7957 38.1052 15.3835 37.8672C14.9712 37.6292 14.4442 37.7685 14.2035 38.1791L13.7904 38.8944C11.6051 37.4842 9.74542 35.6245 8.33522 33.4391L9.05046 33.0261C9.32058 32.8725 9.48771 32.586 9.48839 32.2753C9.48907 31.9645 9.32321 31.6773 9.05377 31.5225C8.78433 31.3677 8.45261 31.3692 8.18456 31.5264L7.46672 31.9403C6.27063 29.627 5.59028 27.082 5.47253 24.4805H6.29428C6.77251 24.4805 7.16019 24.0928 7.16019 23.6146C7.16019 23.1363 6.77251 22.7486 6.29428 22.7486H5.47253C5.58995 20.1482 6.2694 17.6041 7.46412 15.2914L8.18196 15.7053C8.45002 15.8625 8.78173 15.864 9.05117 15.7092C9.32061 15.5544 9.48647 15.2672 9.48579 14.9564C9.48511 14.6457 9.31799 14.3592 9.04787 14.2056L8.33263 13.7926C9.74282 11.6072 11.6025 9.74754 13.7878 8.33734L14.2009 9.05258C14.3545 9.3227 14.641 9.48982 14.9517 9.4905C15.2625 9.49119 15.5497 9.32533 15.7045 9.05588C15.8593 8.78644 15.8578 8.45473 15.7006 8.18667L15.2867 7.46883C17.6 6.27285 20.145 5.5925 22.7465 5.47465V6.29639C22.7465 6.77462 23.1342 7.1623 23.6124 7.1623C24.0907 7.1623 24.4783 6.77462 24.4783 6.29639V5.47465C27.079 5.59208 29.6234 6.27152 31.9364 7.46623L31.5216 8.18407C31.2831 8.59803 31.4249 9.12694 31.8386 9.36604C31.9698 9.443 32.1193 9.48337 32.2715 9.48293C32.5812 9.48324 32.8674 9.31815 33.0223 9.04998L33.4353 8.33474C35.6204 9.74519 37.4801 11.6048 38.8905 13.79L38.1753 14.203C37.9052 14.3566 37.738 14.6431 37.7374 14.9538C37.7367 15.2646 37.9025 15.5518 38.172 15.7066C38.4414 15.8614 38.7731 15.8599 39.0412 15.7028L39.759 15.2888C40.9594 17.6148 41.639 20.1743 41.7506 22.7893C41.1904 22.766 40.6293 22.7486 40.0647 22.7486C34.0406 22.7486 27.942 24.2354 27.942 27.0782V41.267C26.8063 41.5455 25.6464 41.7137 24.4783 41.7692V40.9327C24.4783 40.4545 24.0907 40.0668 23.6124 40.0668ZM29.6738 29.4161C30.4927 29.8717 31.3654 30.2231 32.2715 30.4622V35.5901C30.5986 35.0705 29.6738 34.4479 29.6738 34.0063V29.4161ZM29.6738 36.3434C30.4927 36.799 31.3654 37.1503 32.2715 37.3894V42.5173C30.5986 41.9978 29.6738 41.3752 29.6738 40.9336V36.3434ZM50.4556 34.0054C50.4556 34.9216 46.5105 36.6032 40.0647 36.6032C38.0302 36.618 35.9995 36.4274 34.0033 36.0343V30.8665C36.0027 31.234 38.0319 31.4152 40.0647 31.4077C44.1293 31.4077 48.219 30.728 50.4556 29.4161V34.0054ZM50.4556 27.0782C50.4556 27.9943 46.5105 29.6759 40.0647 29.6759C33.6189 29.6759 29.6738 27.9943 29.6738 27.0782C29.6738 26.1621 33.6189 24.4805 40.0647 24.4805C46.5105 24.4805 50.4556 26.1621 50.4556 27.0782ZM23.6124 45.2623C11.718 45.266 2.04857 35.6725 1.95851 23.7785C1.86846 11.8844 11.3915 2.14558 23.2846 1.96923C35.1777 1.79288 44.9854 11.2451 45.248 23.1366C44.6834 23.05 44.1042 22.9729 43.5101 22.9149C43.2215 14.5207 37.7013 7.20835 29.7074 4.63091C21.7135 2.05347 12.9616 4.76417 7.82406 11.4088C2.68648 18.0535 2.26591 27.2058 6.77246 34.2936C11.279 41.3814 19.7454 44.8833 27.942 43.0499V44.818C26.5175 45.1119 25.0669 45.2607 23.6124 45.2623ZM29.6738 47.86V43.2707C30.4927 43.7262 31.3654 44.0776 32.2715 44.3167V49.4446C30.5986 48.9207 29.6738 48.3016 29.6738 47.86ZM40.0647 50.4577C38.0302 50.4725 35.9995 50.2819 34.0033 49.8888V44.7211C36.0027 45.0885 38.0319 45.2697 40.0647 45.2623C44.1293 45.2623 48.219 44.5825 50.4556 43.2707V47.86C50.4556 48.7761 46.5105 50.4577 40.0647 50.4577Z" fill="#FFAD00"/>
<path d="M46.992 23.4725C46.9394 13.6221 40.7225 4.8598 31.4424 1.5563C22.1623 -1.7472 11.8071 1.11585 5.54208 8.71734C-0.722957 16.3188 -1.55562 27.0302 3.45943 35.5086C8.47448 43.987 18.2628 48.4159 27.942 46.5862V47.86C27.942 50.7028 34.0406 52.1895 40.0647 52.1895C46.0888 52.1895 52.1874 50.7028 52.1874 47.86V27.0782C52.1874 25.3845 50.014 24.1757 46.992 23.4725ZM50.4556 40.9327C50.4556 41.8488 46.5105 43.5304 40.0647 43.5304C38.0302 43.5452 35.9995 43.3546 34.0033 42.9615V37.7938C36.0027 38.1612 38.0319 38.3424 40.0647 38.335C44.1293 38.335 48.219 37.6553 50.4556 36.3434V40.9327ZM23.6124 40.0668C23.1342 40.0668 22.7465 40.4545 22.7465 40.9327V41.7545C20.1461 41.6371 17.602 40.9577 15.2893 39.7629L15.7032 39.045C15.9385 38.6313 15.7957 38.1052 15.3835 37.8672C14.9712 37.6292 14.4442 37.7685 14.2035 38.1791L13.7904 38.8944C11.6051 37.4842 9.74542 35.6245 8.33522 33.4391L9.05046 33.0261C9.32058 32.8725 9.48771 32.586 9.48839 32.2753C9.48907 31.9645 9.32321 31.6773 9.05377 31.5225C8.78433 31.3677 8.45261 31.3692 8.18456 31.5264L7.46672 31.9403C6.27063 29.627 5.59028 27.082 5.47253 24.4805H6.29428C6.77251 24.4805 7.16019 24.0928 7.16019 23.6146C7.16019 23.1363 6.77251 22.7486 6.29428 22.7486H5.47253C5.58995 20.1482 6.2694 17.6041 7.46412 15.2914L8.18196 15.7053C8.45002 15.8625 8.78173 15.864 9.05117 15.7092C9.32061 15.5544 9.48647 15.2672 9.48579 14.9564C9.48511 14.6457 9.31799 14.3592 9.04787 14.2056L8.33263 13.7926C9.74282 11.6072 11.6025 9.74754 13.7878 8.33734L14.2009 9.05258C14.3545 9.3227 14.641 9.48982 14.9517 9.4905C15.2625 9.49119 15.5497 9.32533 15.7045 9.05588C15.8593 8.78644 15.8578 8.45473 15.7006 8.18667L15.2867 7.46883C17.6 6.27285 20.145 5.5925 22.7465 5.47465V6.29639C22.7465 6.77462 23.1342 7.1623 23.6124 7.1623C24.0907 7.1623 24.4783 6.77462 24.4783 6.29639V5.47465C27.079 5.59208 29.6234 6.27152 31.9364 7.46623L31.5216 8.18407C31.2831 8.59803 31.4249 9.12694 31.8386 9.36604C31.9698 9.443 32.1193 9.48337 32.2715 9.48293C32.5812 9.48324 32.8674 9.31815 33.0223 9.04998L33.4353 8.33474C35.6204 9.74519 37.4801 11.6048 38.8905 13.79L38.1753 14.203C37.9052 14.3566 37.738 14.6431 37.7374 14.9538C37.7367 15.2646 37.9025 15.5518 38.172 15.7066C38.4414 15.8614 38.7731 15.8599 39.0412 15.7028L39.759 15.2888C40.9594 17.6148 41.639 20.1743 41.7506 22.7893C41.1904 22.766 40.6293 22.7486 40.0647 22.7486C34.0406 22.7486 27.942 24.2354 27.942 27.0782V41.267C26.8063 41.5455 25.6464 41.7137 24.4783 41.7692V40.9327C24.4783 40.4545 24.0907 40.0668 23.6124 40.0668ZM29.6738 29.4161C30.4927 29.8717 31.3654 30.2231 32.2715 30.4622V35.5901C30.5986 35.0705 29.6738 34.4479 29.6738 34.0063V29.4161ZM29.6738 36.3434C30.4927 36.799 31.3654 37.1503 32.2715 37.3894V42.5173C30.5986 41.9978 29.6738 41.3752 29.6738 40.9336V36.3434ZM50.4556 34.0054C50.4556 34.9216 46.5105 36.6032 40.0647 36.6032C38.0302 36.618 35.9995 36.4274 34.0033 36.0343V30.8665C36.0027 31.234 38.0319 31.4152 40.0647 31.4077C44.1293 31.4077 48.219 30.728 50.4556 29.4161V34.0054ZM50.4556 27.0782C50.4556 27.9943 46.5105 29.6759 40.0647 29.6759C33.6189 29.6759 29.6738 27.9943 29.6738 27.0782C29.6738 26.1621 33.6189 24.4805 40.0647 24.4805C46.5105 24.4805 50.4556 26.1621 50.4556 27.0782ZM23.6124 45.2623C11.718 45.266 2.04857 35.6725 1.95851 23.7785C1.86846 11.8844 11.3915 2.14558 23.2846 1.96923C35.1777 1.79288 44.9854 11.2451 45.248 23.1366C44.6834 23.05 44.1042 22.9729 43.5101 22.9149C43.2215 14.5207 37.7013 7.20835 29.7074 4.63091C21.7135 2.05347 12.9616 4.76417 7.82406 11.4088C2.68648 18.0535 2.26591 27.2058 6.77246 34.2936C11.279 41.3814 19.7454 44.8833 27.942 43.0499V44.818C26.5175 45.1119 25.0669 45.2607 23.6124 45.2623ZM29.6738 47.86V43.2707C30.4927 43.7262 31.3654 44.0776 32.2715 44.3167V49.4446C30.5986 48.9207 29.6738 48.3016 29.6738 47.86ZM40.0647 50.4577C38.0302 50.4725 35.9995 50.2819 34.0033 49.8888V44.7211C36.0027 45.0885 38.0319 45.2697 40.0647 45.2623C44.1293 45.2623 48.219 44.5825 50.4556 43.2707V47.86C50.4556 48.7761 46.5105 50.4577 40.0647 50.4577Z" stroke="#FFAD00" stroke-width="0.4" mask="url(#path-2-outside-1_1_9748)"/>
<path d="M47.8584 32.1738C48.3917 32.174 48.8242 32.6063 48.8242 33.1396C48.8241 33.6729 48.3916 34.1053 47.8584 34.1055C47.325 34.1055 46.8927 33.673 46.8926 33.1396C46.8926 32.6062 47.3249 32.1738 47.8584 32.1738Z" fill="#FFAD00" stroke="#FFAD00" stroke-width="0.2"/>
<path d="M47.8584 39.1011C48.3917 39.1012 48.8242 39.5335 48.8242 40.0669C48.8241 40.6001 48.3916 41.0326 47.8584 41.0327C47.325 41.0327 46.8927 40.6002 46.8926 40.0669C46.8926 39.5334 47.3249 39.1011 47.8584 39.1011Z" fill="#FFAD00" stroke="#FFAD00" stroke-width="0.2"/>
<path d="M47.8584 46.0283C48.3917 46.0285 48.8242 46.4608 48.8242 46.9941C48.8241 47.5274 48.3916 47.9598 47.8584 47.96C47.325 47.96 46.8927 47.5275 46.8926 46.9941C46.8926 46.4607 47.3249 46.0283 47.8584 46.0283Z" fill="#FFAD00" stroke="#FFAD00" stroke-width="0.2"/>
<path d="M23.6118 9.66064C24.1453 9.66064 24.5786 10.093 24.5786 10.6265V23.6147L24.5728 23.7173C24.548 23.9562 24.4348 24.1792 24.2534 24.3403L24.2524 24.3394L16.4604 31.2671C16.0605 31.6212 15.4494 31.5839 15.0952 31.1841C14.7412 30.7842 14.7776 30.1731 15.1772 29.8188L22.646 23.1812V10.6265C22.646 10.0931 23.0785 9.66086 23.6118 9.66064Z" fill="#FFAD00" stroke="#FFAD00" stroke-width="0.2"/>
</svg>
