<svg width="73" height="77" viewBox="0 0 73 77" fill="none" xmlns="http://www.w3.org/2000/svg">
<path d="M72.8979 36.6201V63.5107L49.6099 76.957L26.3208 63.5107V36.6201L49.6099 23.1738L72.8979 36.6201Z" fill="#FFAD00" fill-opacity="0.1"/>
<mask id="path-2-outside-1_1_9627" maskUnits="userSpaceOnUse" x="-0.799805" y="-0.799805" width="49" height="63" fill="black">
<rect fill="white" x="-0.799805" y="-0.799805" width="49" height="63"/>
<path d="M1.05605 26.9654C1.52054 27.7614 1.70766 28.6891 1.58806 29.6029V29.6327C1.43644 30.7264 1.57931 31.8407 2.00195 32.8607C2.42459 33.8808 3.1117 34.7696 3.9924 35.4356C4.73795 36.0005 5.27158 36.8001 5.5073 37.7054C5.73755 38.5762 6.15481 39.3864 6.73002 40.0795C7.30524 40.7727 8.0246 41.3322 8.83804 41.7191L3.53639 53.8794C3.33371 54.3613 3.25342 54.8859 3.30269 55.4063C3.35196 55.9268 3.52924 56.427 3.81874 56.8623C4.10824 57.2976 4.50096 57.6546 4.96189 57.9013C5.42281 58.148 5.93762 58.2768 6.46041 58.2762H10.8685C10.9797 58.2764 11.0863 58.3203 11.1653 58.3984L13.6642 60.8973C14.0289 61.2607 14.4765 61.5301 14.9684 61.682C15.4604 61.834 15.9819 61.8641 16.4881 61.7697C16.9942 61.6753 17.4699 61.4593 17.874 61.1402C18.278 60.8211 18.5985 60.4085 18.8077 59.938L23.8217 48.8992L28.8297 59.9236C29.0374 60.396 29.3572 60.8106 29.7612 61.1317C30.1652 61.4527 30.6414 61.6705 31.1485 61.7662C31.6556 61.8618 32.1784 61.8325 32.6716 61.6808C33.1648 61.529 33.6137 61.2594 33.9793 60.8952L36.4833 58.3974C36.5622 58.3198 36.6684 58.2763 36.7791 58.2762H41.1872C41.7111 58.2769 42.2269 58.1476 42.6886 57.9C43.1503 57.6525 43.5434 57.2943 43.8327 56.8575C44.122 56.4207 44.2985 55.919 44.3464 55.3974C44.3943 54.8757 44.3121 54.3502 44.1071 53.8681L38.8095 41.7201C39.6236 41.3319 40.3434 40.7709 40.9187 40.0764C41.4941 39.3818 41.9113 38.5703 42.1413 37.6982C42.378 36.7964 42.9113 36.0006 43.6552 35.4386C44.5357 34.7726 45.2227 33.8837 45.6453 32.8637C46.068 31.8437 46.2109 30.7294 46.0595 29.6358V29.6101C45.9403 28.6902 46.13 27.7567 46.5987 26.9562C47.1548 26.0032 47.4472 24.9194 47.4459 23.816C47.4447 22.7127 47.1498 21.6295 46.5915 20.6778C46.127 19.8818 45.9399 18.9542 46.0595 18.0403V18.0106C46.2111 16.9169 46.0683 15.8026 45.6456 14.7825C45.223 13.7625 44.5359 12.8736 43.6552 12.2077C42.9096 11.6427 42.376 10.8432 42.1403 9.93791C41.8601 8.87116 41.3011 7.89818 40.5206 7.11883C39.7402 6.33947 38.7664 5.78182 37.6993 5.50309C36.7976 5.26635 36.0017 4.73312 35.4398 3.98921C34.7749 3.10728 33.8862 2.41925 32.8659 1.99649C31.8456 1.57372 30.7307 1.43161 29.6369 1.58488H29.6112C28.6908 1.70674 27.756 1.51769 26.9553 1.04773C26.0024 0.491463 24.9185 0.198936 23.8151 0.200199C22.7117 0.201463 21.6285 0.496472 20.6769 1.05492C19.8813 1.52051 18.9533 1.70771 18.0394 1.58693H18.0096C16.9158 1.43278 15.8007 1.57449 14.7801 1.99732C13.7596 2.42016 12.871 3.10867 12.2068 3.99126C11.6418 4.73681 10.8422 5.27044 9.93699 5.50617C8.87024 5.78638 7.89726 6.34539 7.11791 7.12582C6.33855 7.90626 5.7809 8.88001 5.50217 9.94715C5.26543 10.8489 4.7322 11.6447 3.98829 12.2067C3.10775 12.8728 2.42077 13.7616 1.99815 14.7816C1.57552 15.8016 1.43255 16.9159 1.58396 18.0095V18.0352C1.70441 18.9552 1.51467 19.8891 1.04475 20.6891C0.489705 21.6422 0.19822 22.7259 0.200205 23.8288C0.202191 24.9318 0.497575 26.0143 1.05605 26.9654ZM16.9323 59.0999C16.8583 59.2661 16.7451 59.4119 16.6024 59.5247C16.4596 59.6375 16.2916 59.714 16.1128 59.7475C15.934 59.7811 15.7497 59.7707 15.5758 59.7173C15.4019 59.6639 15.2435 59.569 15.1144 59.4409L12.6125 56.9452C12.1475 56.4854 11.5203 56.2272 10.8665 56.2262H6.4563C6.27122 56.2279 6.0887 56.1829 5.92555 56.0955C5.7624 56.0081 5.62386 55.881 5.52271 55.726C5.42055 55.5761 5.35762 55.403 5.33968 55.2225C5.32174 55.042 5.34936 54.8599 5.42 54.6928L10.7535 42.4616C11.3231 42.7436 11.8201 43.153 12.2058 43.6582C12.8707 44.54 13.7594 45.228 14.7797 45.6507C15.8 46.0735 16.9148 46.2156 18.0086 46.0625H18.0343C18.9542 45.9427 19.8879 46.1324 20.6882 46.6017C21.1966 46.8965 21.7444 47.1174 22.315 47.258L16.9323 59.0999ZM42.2194 54.6774C42.2891 54.8465 42.3162 55.0302 42.2982 55.2123C42.2802 55.3943 42.2177 55.5691 42.1163 55.7213C42.0148 55.8735 41.8774 55.9985 41.7163 56.0851C41.5552 56.1717 41.3752 56.2173 41.1923 56.218H36.7791C36.1252 56.2189 35.4979 56.4771 35.0331 56.9369L32.5301 59.4337C32.4001 59.5626 32.2405 59.6577 32.0653 59.7109C31.8901 59.7641 31.7045 59.7737 31.5248 59.7389C31.345 59.704 31.1765 59.6259 31.0338 59.5111C30.8911 59.3964 30.7786 59.2485 30.7061 59.0804L25.3274 47.2487C25.9039 47.1074 26.4573 46.8843 26.9707 46.5863C27.7664 46.1211 28.6943 45.934 29.6082 46.0543H29.6379C30.7317 46.2074 31.8465 46.0653 32.8669 45.6425C33.8872 45.2198 34.7759 44.5318 35.4408 43.6499C35.8267 43.1449 36.3241 42.7358 36.8941 42.4545L42.2194 54.6774ZM2.82772 21.7151C3.5298 20.512 3.80825 19.1082 3.61855 17.7281V17.7024C3.52194 16.974 3.62039 16.233 3.90387 15.5551C4.18734 14.8772 4.64568 14.2866 5.23205 13.8438C6.34581 13.0001 7.14345 11.8064 7.49671 10.4545C7.68381 9.74162 8.05724 9.09135 8.57868 8.57045C9.10012 8.04956 9.75078 7.6768 10.4639 7.49044C11.8125 7.13729 13.0035 6.34161 13.846 5.23092C14.288 4.64531 14.8775 4.1875 15.5544 3.90421C16.2312 3.62092 16.971 3.52231 17.6984 3.61844H17.7303C19.1142 3.80702 20.5214 3.52681 21.7276 2.82248C22.3649 2.44997 23.0899 2.25408 23.8281 2.25499C24.5662 2.25589 25.2908 2.45355 25.9272 2.82761C27.1305 3.52932 28.5342 3.80774 29.9142 3.61844H29.9399C30.6682 3.52182 31.4091 3.62017 32.087 3.90345C32.7649 4.18674 33.3555 4.64481 33.7985 5.23092C34.6422 6.34467 35.836 7.14231 37.1878 7.49557C37.9007 7.68267 38.551 8.05611 39.0719 8.57755C39.5928 9.09898 39.9655 9.74964 40.1519 10.4627C40.5051 11.8113 41.3007 13.0023 42.4114 13.8448C42.9969 14.287 43.4546 14.8766 43.7378 15.5533C44.0211 16.2301 44.1198 16.9699 44.0239 17.6973V17.7291C43.8345 19.1131 44.1148 20.5206 44.8199 21.7264C45.1922 22.3615 45.3884 23.0844 45.3884 23.8206C45.3884 24.5568 45.1922 25.2797 44.8199 25.9148L45.7072 26.4345L44.8147 25.9209C44.1126 27.1241 43.8342 28.5279 44.0239 29.908V29.9336C44.1216 30.6628 44.0237 31.4048 43.7404 32.0837C43.4571 32.7626 42.9984 33.354 42.4114 33.7974C41.2996 34.6419 40.5038 35.8356 40.1519 37.1867C39.9644 37.9002 39.5902 38.5509 39.0678 39.0718C38.5454 39.5928 37.8936 39.9652 37.1796 40.1508C35.831 40.5039 34.64 41.2996 33.7975 42.4103C33.3547 42.995 32.765 43.4522 32.0884 43.7354C31.4118 44.0186 30.6723 44.1177 29.945 44.0228H29.9132C28.5292 43.8335 27.1218 44.1138 25.9159 44.8187C25.2791 45.192 24.5543 45.3888 23.8161 45.3888C23.0779 45.3888 22.3531 45.192 21.7163 44.8187C20.7635 44.2624 19.6799 43.9693 18.5766 43.9694C18.2931 43.9694 18.01 43.9889 17.7292 44.0279H17.7036C16.9748 44.123 16.2339 44.0234 15.5562 43.7393C14.8784 43.4551 14.288 42.9966 13.8449 42.4103C13.0004 41.2984 11.8068 40.5027 10.4557 40.1508C9.74213 39.9632 9.09144 39.589 8.57049 39.0666C8.04954 38.5442 7.67714 37.8925 7.49157 37.1785C7.13842 35.8299 6.34274 34.6389 5.23205 33.7964C4.64661 33.3542 4.18891 32.7646 3.90564 32.0879C3.62237 31.4111 3.52366 30.6713 3.61958 29.9439V29.9121C3.80896 28.5281 3.52869 27.1206 2.82361 25.9148C2.45075 25.2776 2.25456 24.5526 2.25528 23.8144C2.256 23.0762 2.45361 22.3515 2.82772 21.7151Z"/>
</mask>
<path d="M1.05605 26.9654C1.52054 27.7614 1.70766 28.6891 1.58806 29.6029V29.6327C1.43644 30.7264 1.57931 31.8407 2.00195 32.8607C2.42459 33.8808 3.1117 34.7696 3.9924 35.4356C4.73795 36.0005 5.27158 36.8001 5.5073 37.7054C5.73755 38.5762 6.15481 39.3864 6.73002 40.0795C7.30524 40.7727 8.0246 41.3322 8.83804 41.7191L3.53639 53.8794C3.33371 54.3613 3.25342 54.8859 3.30269 55.4063C3.35196 55.9268 3.52924 56.427 3.81874 56.8623C4.10824 57.2976 4.50096 57.6546 4.96189 57.9013C5.42281 58.148 5.93762 58.2768 6.46041 58.2762H10.8685C10.9797 58.2764 11.0863 58.3203 11.1653 58.3984L13.6642 60.8973C14.0289 61.2607 14.4765 61.5301 14.9684 61.682C15.4604 61.834 15.9819 61.8641 16.4881 61.7697C16.9942 61.6753 17.4699 61.4593 17.874 61.1402C18.278 60.8211 18.5985 60.4085 18.8077 59.938L23.8217 48.8992L28.8297 59.9236C29.0374 60.396 29.3572 60.8106 29.7612 61.1317C30.1652 61.4527 30.6414 61.6705 31.1485 61.7662C31.6556 61.8618 32.1784 61.8325 32.6716 61.6808C33.1648 61.529 33.6137 61.2594 33.9793 60.8952L36.4833 58.3974C36.5622 58.3198 36.6684 58.2763 36.7791 58.2762H41.1872C41.7111 58.2769 42.2269 58.1476 42.6886 57.9C43.1503 57.6525 43.5434 57.2943 43.8327 56.8575C44.122 56.4207 44.2985 55.919 44.3464 55.3974C44.3943 54.8757 44.3121 54.3502 44.1071 53.8681L38.8095 41.7201C39.6236 41.3319 40.3434 40.7709 40.9187 40.0764C41.4941 39.3818 41.9113 38.5703 42.1413 37.6982C42.378 36.7964 42.9113 36.0006 43.6552 35.4386C44.5357 34.7726 45.2227 33.8837 45.6453 32.8637C46.068 31.8437 46.2109 30.7294 46.0595 29.6358V29.6101C45.9403 28.6902 46.13 27.7567 46.5987 26.9562C47.1548 26.0032 47.4472 24.9194 47.4459 23.816C47.4447 22.7127 47.1498 21.6295 46.5915 20.6778C46.127 19.8818 45.9399 18.9542 46.0595 18.0403V18.0106C46.2111 16.9169 46.0683 15.8026 45.6456 14.7825C45.223 13.7625 44.5359 12.8736 43.6552 12.2077C42.9096 11.6427 42.376 10.8432 42.1403 9.93791C41.8601 8.87116 41.3011 7.89818 40.5206 7.11883C39.7402 6.33947 38.7664 5.78182 37.6993 5.50309C36.7976 5.26635 36.0017 4.73312 35.4398 3.98921C34.7749 3.10728 33.8862 2.41925 32.8659 1.99649C31.8456 1.57372 30.7307 1.43161 29.6369 1.58488H29.6112C28.6908 1.70674 27.756 1.51769 26.9553 1.04773C26.0024 0.491463 24.9185 0.198936 23.8151 0.200199C22.7117 0.201463 21.6285 0.496472 20.6769 1.05492C19.8813 1.52051 18.9533 1.70771 18.0394 1.58693H18.0096C16.9158 1.43278 15.8007 1.57449 14.7801 1.99732C13.7596 2.42016 12.871 3.10867 12.2068 3.99126C11.6418 4.73681 10.8422 5.27044 9.93699 5.50617C8.87024 5.78638 7.89726 6.34539 7.11791 7.12582C6.33855 7.90626 5.7809 8.88001 5.50217 9.94715C5.26543 10.8489 4.7322 11.6447 3.98829 12.2067C3.10775 12.8728 2.42077 13.7616 1.99815 14.7816C1.57552 15.8016 1.43255 16.9159 1.58396 18.0095V18.0352C1.70441 18.9552 1.51467 19.8891 1.04475 20.6891C0.489705 21.6422 0.19822 22.7259 0.200205 23.8288C0.202191 24.9318 0.497575 26.0143 1.05605 26.9654ZM16.9323 59.0999C16.8583 59.2661 16.7451 59.4119 16.6024 59.5247C16.4596 59.6375 16.2916 59.714 16.1128 59.7475C15.934 59.7811 15.7497 59.7707 15.5758 59.7173C15.4019 59.6639 15.2435 59.569 15.1144 59.4409L12.6125 56.9452C12.1475 56.4854 11.5203 56.2272 10.8665 56.2262H6.4563C6.27122 56.2279 6.0887 56.1829 5.92555 56.0955C5.7624 56.0081 5.62386 55.881 5.52271 55.726C5.42055 55.5761 5.35762 55.403 5.33968 55.2225C5.32174 55.042 5.34936 54.8599 5.42 54.6928L10.7535 42.4616C11.3231 42.7436 11.8201 43.153 12.2058 43.6582C12.8707 44.54 13.7594 45.228 14.7797 45.6507C15.8 46.0735 16.9148 46.2156 18.0086 46.0625H18.0343C18.9542 45.9427 19.8879 46.1324 20.6882 46.6017C21.1966 46.8965 21.7444 47.1174 22.315 47.258L16.9323 59.0999ZM42.2194 54.6774C42.2891 54.8465 42.3162 55.0302 42.2982 55.2123C42.2802 55.3943 42.2177 55.5691 42.1163 55.7213C42.0148 55.8735 41.8774 55.9985 41.7163 56.0851C41.5552 56.1717 41.3752 56.2173 41.1923 56.218H36.7791C36.1252 56.2189 35.4979 56.4771 35.0331 56.9369L32.5301 59.4337C32.4001 59.5626 32.2405 59.6577 32.0653 59.7109C31.8901 59.7641 31.7045 59.7737 31.5248 59.7389C31.345 59.704 31.1765 59.6259 31.0338 59.5111C30.8911 59.3964 30.7786 59.2485 30.7061 59.0804L25.3274 47.2487C25.9039 47.1074 26.4573 46.8843 26.9707 46.5863C27.7664 46.1211 28.6943 45.934 29.6082 46.0543H29.6379C30.7317 46.2074 31.8465 46.0653 32.8669 45.6425C33.8872 45.2198 34.7759 44.5318 35.4408 43.6499C35.8267 43.1449 36.3241 42.7358 36.8941 42.4545L42.2194 54.6774ZM2.82772 21.7151C3.5298 20.512 3.80825 19.1082 3.61855 17.7281V17.7024C3.52194 16.974 3.62039 16.233 3.90387 15.5551C4.18734 14.8772 4.64568 14.2866 5.23205 13.8438C6.34581 13.0001 7.14345 11.8064 7.49671 10.4545C7.68381 9.74162 8.05724 9.09135 8.57868 8.57045C9.10012 8.04956 9.75078 7.6768 10.4639 7.49044C11.8125 7.13729 13.0035 6.34161 13.846 5.23092C14.288 4.64531 14.8775 4.1875 15.5544 3.90421C16.2312 3.62092 16.971 3.52231 17.6984 3.61844H17.7303C19.1142 3.80702 20.5214 3.52681 21.7276 2.82248C22.3649 2.44997 23.0899 2.25408 23.8281 2.25499C24.5662 2.25589 25.2908 2.45355 25.9272 2.82761C27.1305 3.52932 28.5342 3.80774 29.9142 3.61844H29.9399C30.6682 3.52182 31.4091 3.62017 32.087 3.90345C32.7649 4.18674 33.3555 4.64481 33.7985 5.23092C34.6422 6.34467 35.836 7.14231 37.1878 7.49557C37.9007 7.68267 38.551 8.05611 39.0719 8.57755C39.5928 9.09898 39.9655 9.74964 40.1519 10.4627C40.5051 11.8113 41.3007 13.0023 42.4114 13.8448C42.9969 14.287 43.4546 14.8766 43.7378 15.5533C44.0211 16.2301 44.1198 16.9699 44.0239 17.6973V17.7291C43.8345 19.1131 44.1148 20.5206 44.8199 21.7264C45.1922 22.3615 45.3884 23.0844 45.3884 23.8206C45.3884 24.5568 45.1922 25.2797 44.8199 25.9148L45.7072 26.4345L44.8147 25.9209C44.1126 27.1241 43.8342 28.5279 44.0239 29.908V29.9336C44.1216 30.6628 44.0237 31.4048 43.7404 32.0837C43.4571 32.7626 42.9984 33.354 42.4114 33.7974C41.2996 34.6419 40.5038 35.8356 40.1519 37.1867C39.9644 37.9002 39.5902 38.5509 39.0678 39.0718C38.5454 39.5928 37.8936 39.9652 37.1796 40.1508C35.831 40.5039 34.64 41.2996 33.7975 42.4103C33.3547 42.995 32.765 43.4522 32.0884 43.7354C31.4118 44.0186 30.6723 44.1177 29.945 44.0228H29.9132C28.5292 43.8335 27.1218 44.1138 25.9159 44.8187C25.2791 45.192 24.5543 45.3888 23.8161 45.3888C23.0779 45.3888 22.3531 45.192 21.7163 44.8187C20.7635 44.2624 19.6799 43.9693 18.5766 43.9694C18.2931 43.9694 18.01 43.9889 17.7292 44.0279H17.7036C16.9748 44.123 16.2339 44.0234 15.5562 43.7393C14.8784 43.4551 14.288 42.9966 13.8449 42.4103C13.0004 41.2984 11.8068 40.5027 10.4557 40.1508C9.74213 39.9632 9.09144 39.589 8.57049 39.0666C8.04954 38.5442 7.67714 37.8925 7.49157 37.1785C7.13842 35.8299 6.34274 34.6389 5.23205 33.7964C4.64661 33.3542 4.18891 32.7646 3.90564 32.0879C3.62237 31.4111 3.52366 30.6713 3.61958 29.9439V29.9121C3.80896 28.5281 3.52869 27.1206 2.82361 25.9148C2.45075 25.2776 2.25456 24.5526 2.25528 23.8144C2.256 23.0762 2.45361 22.3515 2.82772 21.7151Z" fill="#FFAD00"/>
<path d="M1.05605 26.9654C1.52054 27.7614 1.70766 28.6891 1.58806 29.6029V29.6327C1.43644 30.7264 1.57931 31.8407 2.00195 32.8607C2.42459 33.8808 3.1117 34.7696 3.9924 35.4356C4.73795 36.0005 5.27158 36.8001 5.5073 37.7054C5.73755 38.5762 6.15481 39.3864 6.73002 40.0795C7.30524 40.7727 8.0246 41.3322 8.83804 41.7191L3.53639 53.8794C3.33371 54.3613 3.25342 54.8859 3.30269 55.4063C3.35196 55.9268 3.52924 56.427 3.81874 56.8623C4.10824 57.2976 4.50096 57.6546 4.96189 57.9013C5.42281 58.148 5.93762 58.2768 6.46041 58.2762H10.8685C10.9797 58.2764 11.0863 58.3203 11.1653 58.3984L13.6642 60.8973C14.0289 61.2607 14.4765 61.5301 14.9684 61.682C15.4604 61.834 15.9819 61.8641 16.4881 61.7697C16.9942 61.6753 17.4699 61.4593 17.874 61.1402C18.278 60.8211 18.5985 60.4085 18.8077 59.938L23.8217 48.8992L28.8297 59.9236C29.0374 60.396 29.3572 60.8106 29.7612 61.1317C30.1652 61.4527 30.6414 61.6705 31.1485 61.7662C31.6556 61.8618 32.1784 61.8325 32.6716 61.6808C33.1648 61.529 33.6137 61.2594 33.9793 60.8952L36.4833 58.3974C36.5622 58.3198 36.6684 58.2763 36.7791 58.2762H41.1872C41.7111 58.2769 42.2269 58.1476 42.6886 57.9C43.1503 57.6525 43.5434 57.2943 43.8327 56.8575C44.122 56.4207 44.2985 55.919 44.3464 55.3974C44.3943 54.8757 44.3121 54.3502 44.1071 53.8681L38.8095 41.7201C39.6236 41.3319 40.3434 40.7709 40.9187 40.0764C41.4941 39.3818 41.9113 38.5703 42.1413 37.6982C42.378 36.7964 42.9113 36.0006 43.6552 35.4386C44.5357 34.7726 45.2227 33.8837 45.6453 32.8637C46.068 31.8437 46.2109 30.7294 46.0595 29.6358V29.6101C45.9403 28.6902 46.13 27.7567 46.5987 26.9562C47.1548 26.0032 47.4472 24.9194 47.4459 23.816C47.4447 22.7127 47.1498 21.6295 46.5915 20.6778C46.127 19.8818 45.9399 18.9542 46.0595 18.0403V18.0106C46.2111 16.9169 46.0683 15.8026 45.6456 14.7825C45.223 13.7625 44.5359 12.8736 43.6552 12.2077C42.9096 11.6427 42.376 10.8432 42.1403 9.93791C41.8601 8.87116 41.3011 7.89818 40.5206 7.11883C39.7402 6.33947 38.7664 5.78182 37.6993 5.50309C36.7976 5.26635 36.0017 4.73312 35.4398 3.98921C34.7749 3.10728 33.8862 2.41925 32.8659 1.99649C31.8456 1.57372 30.7307 1.43161 29.6369 1.58488H29.6112C28.6908 1.70674 27.756 1.51769 26.9553 1.04773C26.0024 0.491463 24.9185 0.198936 23.8151 0.200199C22.7117 0.201463 21.6285 0.496472 20.6769 1.05492C19.8813 1.52051 18.9533 1.70771 18.0394 1.58693H18.0096C16.9158 1.43278 15.8007 1.57449 14.7801 1.99732C13.7596 2.42016 12.871 3.10867 12.2068 3.99126C11.6418 4.73681 10.8422 5.27044 9.93699 5.50617C8.87024 5.78638 7.89726 6.34539 7.11791 7.12582C6.33855 7.90626 5.7809 8.88001 5.50217 9.94715C5.26543 10.8489 4.7322 11.6447 3.98829 12.2067C3.10775 12.8728 2.42077 13.7616 1.99815 14.7816C1.57552 15.8016 1.43255 16.9159 1.58396 18.0095V18.0352C1.70441 18.9552 1.51467 19.8891 1.04475 20.6891C0.489705 21.6422 0.19822 22.7259 0.200205 23.8288C0.202191 24.9318 0.497575 26.0143 1.05605 26.9654ZM16.9323 59.0999C16.8583 59.2661 16.7451 59.4119 16.6024 59.5247C16.4596 59.6375 16.2916 59.714 16.1128 59.7475C15.934 59.7811 15.7497 59.7707 15.5758 59.7173C15.4019 59.6639 15.2435 59.569 15.1144 59.4409L12.6125 56.9452C12.1475 56.4854 11.5203 56.2272 10.8665 56.2262H6.4563C6.27122 56.2279 6.0887 56.1829 5.92555 56.0955C5.7624 56.0081 5.62386 55.881 5.52271 55.726C5.42055 55.5761 5.35762 55.403 5.33968 55.2225C5.32174 55.042 5.34936 54.8599 5.42 54.6928L10.7535 42.4616C11.3231 42.7436 11.8201 43.153 12.2058 43.6582C12.8707 44.54 13.7594 45.228 14.7797 45.6507C15.8 46.0735 16.9148 46.2156 18.0086 46.0625H18.0343C18.9542 45.9427 19.8879 46.1324 20.6882 46.6017C21.1966 46.8965 21.7444 47.1174 22.315 47.258L16.9323 59.0999ZM42.2194 54.6774C42.2891 54.8465 42.3162 55.0302 42.2982 55.2123C42.2802 55.3943 42.2177 55.5691 42.1163 55.7213C42.0148 55.8735 41.8774 55.9985 41.7163 56.0851C41.5552 56.1717 41.3752 56.2173 41.1923 56.218H36.7791C36.1252 56.2189 35.4979 56.4771 35.0331 56.9369L32.5301 59.4337C32.4001 59.5626 32.2405 59.6577 32.0653 59.7109C31.8901 59.7641 31.7045 59.7737 31.5248 59.7389C31.345 59.704 31.1765 59.6259 31.0338 59.5111C30.8911 59.3964 30.7786 59.2485 30.7061 59.0804L25.3274 47.2487C25.9039 47.1074 26.4573 46.8843 26.9707 46.5863C27.7664 46.1211 28.6943 45.934 29.6082 46.0543H29.6379C30.7317 46.2074 31.8465 46.0653 32.8669 45.6425C33.8872 45.2198 34.7759 44.5318 35.4408 43.6499C35.8267 43.1449 36.3241 42.7358 36.8941 42.4545L42.2194 54.6774ZM2.82772 21.7151C3.5298 20.512 3.80825 19.1082 3.61855 17.7281V17.7024C3.52194 16.974 3.62039 16.233 3.90387 15.5551C4.18734 14.8772 4.64568 14.2866 5.23205 13.8438C6.34581 13.0001 7.14345 11.8064 7.49671 10.4545C7.68381 9.74162 8.05724 9.09135 8.57868 8.57045C9.10012 8.04956 9.75078 7.6768 10.4639 7.49044C11.8125 7.13729 13.0035 6.34161 13.846 5.23092C14.288 4.64531 14.8775 4.1875 15.5544 3.90421C16.2312 3.62092 16.971 3.52231 17.6984 3.61844H17.7303C19.1142 3.80702 20.5214 3.52681 21.7276 2.82248C22.3649 2.44997 23.0899 2.25408 23.8281 2.25499C24.5662 2.25589 25.2908 2.45355 25.9272 2.82761C27.1305 3.52932 28.5342 3.80774 29.9142 3.61844H29.9399C30.6682 3.52182 31.4091 3.62017 32.087 3.90345C32.7649 4.18674 33.3555 4.64481 33.7985 5.23092C34.6422 6.34467 35.836 7.14231 37.1878 7.49557C37.9007 7.68267 38.551 8.05611 39.0719 8.57755C39.5928 9.09898 39.9655 9.74964 40.1519 10.4627C40.5051 11.8113 41.3007 13.0023 42.4114 13.8448C42.9969 14.287 43.4546 14.8766 43.7378 15.5533C44.0211 16.2301 44.1198 16.9699 44.0239 17.6973V17.7291C43.8345 19.1131 44.1148 20.5206 44.8199 21.7264C45.1922 22.3615 45.3884 23.0844 45.3884 23.8206C45.3884 24.5568 45.1922 25.2797 44.8199 25.9148L45.7072 26.4345L44.8147 25.9209C44.1126 27.1241 43.8342 28.5279 44.0239 29.908V29.9336C44.1216 30.6628 44.0237 31.4048 43.7404 32.0837C43.4571 32.7626 42.9984 33.354 42.4114 33.7974C41.2996 34.6419 40.5038 35.8356 40.1519 37.1867C39.9644 37.9002 39.5902 38.5509 39.0678 39.0718C38.5454 39.5928 37.8936 39.9652 37.1796 40.1508C35.831 40.5039 34.64 41.2996 33.7975 42.4103C33.3547 42.995 32.765 43.4522 32.0884 43.7354C31.4118 44.0186 30.6723 44.1177 29.945 44.0228H29.9132C28.5292 43.8335 27.1218 44.1138 25.9159 44.8187C25.2791 45.192 24.5543 45.3888 23.8161 45.3888C23.0779 45.3888 22.3531 45.192 21.7163 44.8187C20.7635 44.2624 19.6799 43.9693 18.5766 43.9694C18.2931 43.9694 18.01 43.9889 17.7292 44.0279H17.7036C16.9748 44.123 16.2339 44.0234 15.5562 43.7393C14.8784 43.4551 14.288 42.9966 13.8449 42.4103C13.0004 41.2984 11.8068 40.5027 10.4557 40.1508C9.74213 39.9632 9.09144 39.589 8.57049 39.0666C8.04954 38.5442 7.67714 37.8925 7.49157 37.1785C7.13842 35.8299 6.34274 34.6389 5.23205 33.7964C4.64661 33.3542 4.18891 32.7646 3.90564 32.0879C3.62237 31.4111 3.52366 30.6713 3.61958 29.9439V29.9121C3.80896 28.5281 3.52869 27.1206 2.82361 25.9148C2.45075 25.2776 2.25456 24.5526 2.25528 23.8144C2.256 23.0762 2.45361 22.3515 2.82772 21.7151Z" stroke="#FFAD00" stroke-width="0.4" mask="url(#path-2-outside-1_1_9627)"/>
<path d="M17.1021 7.59717C20.3106 6.2682 23.8414 5.92061 27.2476 6.59814C30.6538 7.2757 33.783 8.94802 36.2388 11.4038C38.6945 13.8596 40.3669 16.9887 41.0444 20.395C41.722 23.8012 41.3744 27.332 40.0454 30.5405C38.7163 33.7492 36.4653 36.4919 33.5776 38.4214C30.6899 40.3509 27.2948 41.3804 23.8218 41.3804C19.1662 41.3752 14.7026 39.5239 11.4106 36.2319C8.11867 32.94 6.2674 28.4764 6.26221 23.8208L6.27393 23.1704C6.39417 19.9252 7.41231 16.7721 9.22119 14.0649C11.1507 11.1772 13.8934 8.92623 17.1021 7.59717ZM23.4419 8.52002C19.5217 8.62159 15.7841 10.2237 13.0044 13.0034C10.135 15.8728 8.52073 19.7629 8.51611 23.8208L8.52686 24.3872C8.63159 27.216 9.51846 29.9649 11.0952 32.3247C12.777 34.8416 15.1677 36.803 17.9644 37.9614C20.7611 39.1199 23.8391 39.4231 26.8081 38.8325C29.777 38.2419 32.5045 36.7845 34.645 34.644C36.7855 32.5036 38.2429 29.776 38.8335 26.8071C39.4241 23.8381 39.1209 20.7602 37.9624 17.9634C36.8039 15.1667 34.8417 12.776 32.3247 11.0942C29.8078 9.41261 26.8488 8.51514 23.8218 8.51514L23.4419 8.52002Z" fill="#FFAD00" stroke="#FFAD00" stroke-width="0.2"/>
<path d="M21.9736 16.6118C22.7899 16.4494 23.6363 16.5335 24.4053 16.8521C25.1741 17.1706 25.8316 17.7099 26.2939 18.4019C26.7562 19.0938 27.0029 19.9075 27.0029 20.7397C27.0029 21.0386 26.8842 21.3253 26.6729 21.5366C26.4615 21.7479 26.1748 21.8667 25.876 21.8667C25.5771 21.8667 25.2905 21.7479 25.0791 21.5366C24.8678 21.3253 24.7491 21.0386 24.749 20.7397C24.749 20.3533 24.6346 19.9751 24.4199 19.6538C24.2053 19.3326 23.8999 19.082 23.543 18.9341C23.1859 18.7862 22.7921 18.7474 22.4131 18.8228C22.0342 18.8982 21.6863 19.0847 21.4131 19.3579C21.1399 19.6311 20.9534 19.979 20.8779 20.3579C20.8025 20.737 20.8414 21.1307 20.9893 21.4878C21.1372 21.8447 21.3877 22.1501 21.709 22.3647C22.0303 22.5794 22.4085 22.6938 22.7949 22.6938C23.6272 22.6939 24.4408 22.9405 25.1328 23.4028C25.8248 23.8652 26.3641 24.5226 26.6826 25.2915C27.0011 26.0605 27.0842 26.9068 26.9219 27.7231C26.7595 28.5393 26.3589 29.289 25.7705 29.8774C25.1821 30.4658 24.4323 30.8664 23.6162 31.0288C22.7999 31.1912 21.9535 31.108 21.1846 30.7896C20.4156 30.471 19.7583 29.9318 19.2959 29.2397C18.8335 28.5477 18.5869 27.7342 18.5869 26.9019C18.5869 26.603 18.7056 26.3163 18.917 26.105C19.1283 25.8937 19.415 25.7749 19.7139 25.7749C20.0127 25.775 20.2994 25.8937 20.5107 26.105C20.722 26.3163 20.8408 26.603 20.8408 26.9019C20.8408 27.4201 21.0466 27.9172 21.4131 28.2837C21.7795 28.6501 22.2767 28.856 22.7949 28.856C23.3131 28.8559 23.8103 28.6501 24.1768 28.2837C24.5432 27.9172 24.749 27.4201 24.749 26.9019C24.749 26.3836 24.5432 25.8865 24.1768 25.52C23.8103 25.1536 23.3131 24.9478 22.7949 24.9478C21.9627 24.9478 21.149 24.7011 20.457 24.2388C19.7651 23.7764 19.2257 23.1189 18.9072 22.3501C18.5887 21.5811 18.5046 20.7348 18.667 19.9185C18.8294 19.1022 19.2308 18.3527 19.8193 17.7642C20.4079 17.1756 21.1573 16.7742 21.9736 16.6118Z" fill="#FFAD00" stroke="#FFAD00" stroke-width="0.2"/>
<path d="M32.0381 16.5317C32.8818 16.5317 33.6915 16.8668 34.2881 17.4634C34.8844 18.0599 35.2197 18.8689 35.2197 19.7124V27.9292C35.2197 28.7727 34.8844 29.5817 34.2881 30.1782C33.6915 30.7748 32.8818 31.1099 32.0381 31.1099C31.1945 31.1098 30.3856 30.7747 29.7891 30.1782C29.1925 29.5817 28.8575 28.7728 28.8574 27.9292V19.7124C28.8575 18.8687 29.1925 18.0599 29.7891 17.4634C30.3856 16.8668 31.1944 16.5318 32.0381 16.5317ZM32.0381 18.7856C31.7923 18.7857 31.5566 18.8833 31.3828 19.0571C31.209 19.231 31.1114 19.4666 31.1113 19.7124V27.9292C31.1114 28.175 31.209 28.4107 31.3828 28.5845C31.5566 28.7583 31.7923 28.8559 32.0381 28.856C32.2839 28.856 32.5195 28.7582 32.6934 28.5845C32.8672 28.4107 32.9648 28.175 32.9648 27.9292V19.7124C32.9648 19.4666 32.8672 19.231 32.6934 19.0571C32.5195 18.8833 32.2839 18.7856 32.0381 18.7856Z" fill="#FFAD00" stroke="#FFAD00" stroke-width="0.2"/>
<path d="M15.6055 16.5317C15.9044 16.5317 16.191 16.6505 16.4023 16.8618C16.6137 17.0732 16.7324 17.3598 16.7324 17.6587C16.7323 17.9575 16.6136 18.2443 16.4023 18.4556C16.2148 18.643 15.968 18.7563 15.7061 18.7798V28.8608C15.9681 28.8843 16.2148 28.9986 16.4023 29.186C16.6137 29.3974 16.7324 29.684 16.7324 29.9829C16.7324 30.2818 16.6137 30.5684 16.4023 30.7798C16.191 30.9911 15.9044 31.1099 15.6055 31.1099H13.5518C13.2529 31.1099 12.9662 30.9911 12.7549 30.7798C12.5435 30.5684 12.4248 30.2818 12.4248 29.9829C12.4248 29.684 12.5436 29.3974 12.7549 29.186C12.9424 28.9986 13.1891 28.8842 13.4512 28.8608V18.7798C13.1892 18.7564 12.9424 18.643 12.7549 18.4556C12.5436 18.2443 12.4249 17.9575 12.4248 17.6587C12.4248 17.3598 12.5435 17.0732 12.7549 16.8618C12.9662 16.6505 13.2528 16.5317 13.5518 16.5317H15.6055Z" fill="#FFAD00" stroke="#FFAD00" stroke-width="0.2"/>
</svg>
