<svg width="78" height="75" viewBox="0 0 78 75" fill="none" xmlns="http://www.w3.org/2000/svg">
<path d="M77.0273 34.0952V60.9858L53.7393 74.4321L30.4502 60.9858V34.0952L53.7393 20.6489L77.0273 34.0952Z" fill="#FFAD00" fill-opacity="0.1"/>
<path d="M36.7539 0.100586C47.3466 0.100662 55.9639 8.71803 55.9639 19.3105C55.9639 29.9033 47.3466 38.5213 36.7539 38.5215C34.4202 38.5215 32.1517 38.1097 29.9961 37.2979L25.6113 41.6836C25.3314 41.9634 24.9514 42.121 24.5557 42.1211H21.6582V45.0176C21.6581 45.8419 20.9902 46.5097 20.166 46.5098H18.9014V47.7754C18.9012 48.5997 18.2325 49.2676 17.4082 49.2676H14.1025V52.5771C14.1025 52.9733 13.9454 53.3538 13.665 53.6338L10.8877 56.4062C10.6078 56.6857 10.2285 56.8428 9.83301 56.8428H1.59277C0.768527 56.8427 0.100761 56.1748 0.100586 55.3506V45.3506C0.100703 44.9551 0.257503 44.5758 0.537109 44.2959L18.7646 26.0664C17.9537 23.9113 17.543 21.6432 17.543 19.3105C17.5431 8.71786 26.1612 0.100586 36.7539 0.100586ZM36.7539 3.08594C27.8076 3.08604 20.5295 10.3643 20.5293 19.3105C20.5293 21.5757 20.986 23.7674 21.8877 25.8232C22.1391 26.3969 21.9991 27.0407 21.5879 27.4629L21.5889 27.4639C21.5881 27.4647 21.5872 27.4653 21.585 27.4678C21.5829 27.4701 21.58 27.4737 21.5762 27.4775L3.08594 45.9688V48.2021L18.165 33.124C18.694 32.5953 19.5505 32.5955 20.0791 33.124C20.6075 33.6525 20.6076 34.5095 20.0791 35.0381L3.08594 52.0312V53.8574H9.21582L11.1172 51.958V47.7754C11.1172 46.951 11.7861 46.2822 12.6104 46.2822H15.916V45.0176C15.916 44.1932 16.584 43.5245 17.4082 43.5244H18.6738V40.6279C18.6738 39.8036 19.3417 39.1349 20.166 39.1348H23.9375L28.585 34.4873C28.5892 34.483 28.5933 34.4797 28.5957 34.4775C28.5985 34.4751 28.5991 34.4741 28.5996 34.4736C28.9958 34.0881 29.588 33.9422 30.1328 34.1328L30.2412 34.1758L30.6279 34.3398C32.571 35.1338 34.6296 35.5361 36.7539 35.5361C45.7002 35.5361 52.9793 28.2568 52.9795 19.3105C52.9793 10.3641 45.7003 3.08594 36.7539 3.08594Z" fill="#FFAD00" stroke="#FFAD00" stroke-width="0.2"/>
<path d="M42.5698 8.17822C45.5016 8.17832 47.8862 10.563 47.8862 13.4946C47.8861 16.4262 45.5014 18.8109 42.5698 18.811C39.6382 18.811 37.2535 16.4263 37.2534 13.4946C37.2534 10.5629 39.6381 8.17822 42.5698 8.17822ZM42.5698 11.1636C41.2845 11.1636 40.2388 12.2093 40.2388 13.4946C40.2389 14.7799 41.2845 15.8257 42.5698 15.8257C43.855 15.8256 44.9008 14.7798 44.9009 13.4946C44.9009 12.2093 43.8551 11.1637 42.5698 11.1636Z" fill="#FFAD00" stroke="#FFAD00" stroke-width="0.2"/>
</svg>
