<svg width="77" height="75" viewBox="0 0 77 75" fill="none" xmlns="http://www.w3.org/2000/svg">
<path d="M76.9668 33.8218V60.7124L53.6787 74.1587L30.3896 60.7124V33.8218L53.6787 20.3755L76.9668 33.8218Z" fill="#FFAD00" fill-opacity="0.1"/>
<path d="M28 0.100586C30.2412 0.100586 33.2618 0.296029 35.7246 0.859375C36.9551 1.14086 38.054 1.51558 38.8477 2.00879C39.6407 2.5016 40.1484 3.12563 40.1484 3.90723V14.9287H48.3887C49.3983 14.9287 50.3671 15.3291 51.0811 16.043C51.795 16.7569 52.1963 17.7257 52.1963 18.7354V24.1973C52.73 24.2077 53.2561 24.3284 53.7412 24.5527C54.2569 24.7912 54.7139 25.14 55.0791 25.5752C55.4127 25.9739 55.6542 26.4415 55.7861 26.9443C55.918 27.4472 55.9367 27.9733 55.8418 28.4844L51.2588 52.9062V52.9082C51.0803 53.7663 50.6076 54.5359 49.9229 55.083C49.2387 55.6296 48.3853 55.9191 47.5098 55.9043V55.9053H8.49316V55.9043C7.61735 55.9192 6.76346 55.6298 6.0791 55.083C5.39434 54.5359 4.92268 53.7663 4.74414 52.9082L4.74316 52.9062L0.15918 28.4834C0.0642817 27.9723 0.0839369 27.4462 0.21582 26.9434C0.347748 26.4406 0.58932 25.9729 0.922852 25.5742C1.28799 25.1394 1.74435 24.79 2.25977 24.5518C2.74484 24.3276 3.27114 24.2077 3.80469 24.1973V12.248C3.80469 11.2384 4.20597 10.2696 4.91992 9.55566C5.63377 8.84198 6.60191 8.4415 7.61133 8.44141H15.8525V3.90723C15.8525 3.12563 16.3603 2.50161 17.1533 2.00879C17.947 1.51562 19.0459 1.14083 20.2764 0.859375C22.739 0.29607 25.7589 0.100604 28 0.100586ZM3.90332 26.249C3.63725 26.2462 3.37381 26.3024 3.13184 26.4131C2.95016 26.4962 2.78392 26.6092 2.63965 26.7461L2.50293 26.8906C2.36158 27.0559 2.25859 27.2509 2.20215 27.4609C2.14578 27.6708 2.13733 27.8908 2.17676 28.1045L6.75977 52.5225C6.84879 52.9103 7.07031 53.2555 7.38574 53.498C7.70123 53.7405 8.09159 53.8662 8.48926 53.8525L8.49316 53.8516V53.8525H47.5107C47.9085 53.8663 48.2987 53.7405 48.6143 53.498C48.9298 53.2555 49.1512 52.9104 49.2402 52.5225L53.8242 28.1045C53.8647 27.8906 53.8574 27.6704 53.8018 27.46C53.7461 27.2494 53.6439 27.0537 53.5029 26.8877C53.3303 26.6842 53.114 26.5215 52.8711 26.4111C52.6283 26.3009 52.3643 26.2452 52.0977 26.249H3.90332ZM40.1484 24.1963H50.1426V18.7354C50.1426 18.2703 49.9578 17.824 49.6289 17.4951C49.3001 17.1663 48.8537 16.9814 48.3887 16.9814H40.1484V24.1963ZM38.0947 21.0215C36.8273 21.5935 35.1035 21.9703 33.3223 22.2051C31.4714 22.449 29.5502 22.542 28 22.542C26.4499 22.542 24.5294 22.449 22.6787 22.2051C20.8977 21.9703 19.1736 21.5943 17.9062 21.0225V24.1963H38.0947V21.0215ZM7.61133 10.4941C7.14654 10.4942 6.70081 10.6792 6.37207 11.0078C6.04322 11.3367 5.8584 11.783 5.8584 12.248V24.1963H15.8525V10.4941H7.61133ZM38.0947 13.6074C36.8273 14.1794 35.1035 14.5562 33.3223 14.791C31.4714 15.035 29.5502 15.1279 28 15.1279C26.4499 15.1279 24.5294 15.0349 22.6787 14.791C20.8977 14.5563 19.1736 14.1802 17.9062 13.6084V18.7061C17.9394 18.7581 18.0101 18.8284 18.1357 18.9102C18.2723 18.999 18.4609 19.0952 18.7012 19.1953C19.1814 19.3953 19.8597 19.6059 20.7236 19.7979C22.4512 20.1816 24.9134 20.4892 28 20.4893C31.0641 20.4893 33.5128 20.1864 35.2393 19.7988C36.1027 19.605 36.7835 19.3903 37.2695 19.1826C37.5127 19.0787 37.7053 18.9775 37.8467 18.8828C37.9773 18.7952 38.0553 18.7172 38.0947 18.6553V13.6074ZM38.0947 6.19336C36.8273 6.76535 35.1035 7.14217 33.3223 7.37695C31.4714 7.6209 29.5502 7.71387 28 7.71387C26.4499 7.71385 24.5294 7.62087 22.6787 7.37695C20.8977 7.14221 19.1736 6.76617 17.9062 6.19434V11.292C17.9394 11.344 18.0101 11.4144 18.1357 11.4961C18.2723 11.5849 18.4609 11.6812 18.7012 11.7812C19.1814 11.9813 19.8597 12.1919 20.7236 12.3838C22.4512 12.7675 24.9134 13.0752 28 13.0752C31.0641 13.0752 33.5129 12.7719 35.2393 12.3838C36.1027 12.1897 36.7835 11.9748 37.2695 11.7666C37.5126 11.6624 37.7054 11.5609 37.8467 11.4658C37.9774 11.3779 38.0554 11.2996 38.0947 11.2373V6.19336ZM28 2.15332C25.0102 2.15334 22.6068 2.44215 20.8877 2.81641C20.0279 3.0036 19.3405 3.21125 18.8379 3.41504C18.5866 3.51692 18.383 3.61713 18.2275 3.71191C18.1118 3.78246 18.0265 3.84864 17.9678 3.90723C18.0265 3.96582 18.1119 4.032 18.2275 4.10254C18.383 4.19732 18.5868 4.29755 18.8379 4.39941C19.3402 4.60316 20.0273 4.81089 20.8867 4.99805C22.6055 5.37229 25.0089 5.66111 28 5.66113C30.9915 5.66113 33.3954 5.37234 35.1143 4.99805C35.9739 4.81085 36.6607 4.6032 37.1631 4.39941C37.4143 4.2975 37.618 4.19735 37.7734 4.10254C37.8889 4.03213 37.9736 3.96573 38.0322 3.90723C37.9736 3.84874 37.8889 3.78231 37.7734 3.71191C37.6179 3.6171 37.4135 3.51695 37.1621 3.41504C36.6596 3.21132 35.9728 3.00354 35.1133 2.81641C33.3941 2.44211 30.9901 2.15332 28 2.15332Z" fill="#FFAD00" stroke="#FFAD00" stroke-width="0.2"/>
<path d="M20.9268 9.0293C21.1503 8.87389 21.4264 8.81326 21.6943 8.86133H21.6953C22.2523 8.96276 22.8523 9.04907 23.4834 9.12207L23.5801 9.1377C23.8034 9.1842 24.0057 9.30394 24.1543 9.47949C24.324 9.68009 24.4103 9.93784 24.3955 10.2002C24.3806 10.4627 24.2656 10.7094 24.0742 10.8896C23.8828 11.0698 23.63 11.1689 23.3672 11.168C23.3275 11.1681 23.2875 11.1671 23.248 11.1621V11.1611C22.5709 11.084 21.9295 10.9897 21.3311 10.8828C21.0632 10.8346 20.8254 10.6824 20.6699 10.459C20.5144 10.2353 20.4538 9.95851 20.502 9.69043C20.5502 9.42243 20.7032 9.18475 20.9268 9.0293Z" fill="#FFAD00" stroke="#FFAD00" stroke-width="0.2"/>
<path d="M28.9072 9.35791C29.1778 9.35695 29.4386 9.46058 29.6338 9.64795C29.8046 9.81187 29.9139 10.0286 29.9453 10.2612L29.9541 10.3618V10.3638C29.9596 10.6358 29.8563 10.8989 29.668 11.0952C29.4795 11.2916 29.2204 11.406 28.9482 11.4116C28.6356 11.4184 28.3194 11.4214 28 11.4214C27.6806 11.4214 27.3644 11.4184 27.0518 11.4116C26.7795 11.4059 26.5205 11.2918 26.332 11.0952C26.1436 10.8986 26.0412 10.6351 26.0469 10.3628C26.0526 10.0906 26.1658 9.83153 26.3623 9.64307C26.5588 9.45462 26.8225 9.35227 27.0947 9.35791C27.6919 9.37085 28.3081 9.37085 28.9053 9.35791H28.9072Z" fill="#FFAD00" stroke="#FFAD00" stroke-width="0.2"/>
<path d="M34.3052 8.86133C34.5732 8.81314 34.851 8.87378 35.0747 9.0293C35.2981 9.18473 35.4503 9.42256 35.4985 9.69043C35.5467 9.95851 35.487 10.2353 35.3315 10.459C35.1762 10.6824 34.9382 10.8345 34.6704 10.8828H34.6694C34.0706 10.9897 33.429 11.084 32.7515 11.1611L32.7524 11.1621C32.713 11.167 32.6731 11.1681 32.6333 11.168C32.3707 11.169 32.1177 11.0705 31.9263 10.8906C31.7346 10.7105 31.619 10.4637 31.604 10.2012C31.589 9.93868 31.6755 9.68027 31.8452 9.47949C32.0148 9.27897 32.2551 9.15105 32.5161 9.12207L33.4399 9.00098C33.7392 8.95802 34.0285 8.91205 34.3052 8.86133Z" fill="#FFAD00" stroke="#FFAD00" stroke-width="0.2"/>
<path d="M20.9268 16.4434C21.1503 16.2879 21.4264 16.2273 21.6943 16.2754H21.6953C22.2523 16.3768 22.8523 16.4631 23.4834 16.5361L23.5801 16.5518C23.8034 16.5983 24.0057 16.718 24.1543 16.8936C24.324 17.0941 24.4103 17.3519 24.3955 17.6143C24.3806 17.8767 24.2656 18.1235 24.0742 18.3037C23.8828 18.4839 23.63 18.583 23.3672 18.582C23.3275 18.5821 23.2875 18.5811 23.248 18.5762V18.5752C22.5709 18.4981 21.9295 18.4037 21.3311 18.2969C21.0632 18.2487 20.8254 18.0964 20.6699 17.873C20.5144 17.6494 20.4538 17.3726 20.502 17.1045C20.5502 16.8365 20.7032 16.5988 20.9268 16.4434Z" fill="#FFAD00" stroke="#FFAD00" stroke-width="0.2"/>
<path d="M28.9082 16.772C29.1779 16.7731 29.4372 16.8772 29.6318 17.064C29.8022 17.2275 29.9115 17.4434 29.9443 17.6753L29.9531 17.7759L29.9541 17.7778C29.9596 18.0499 29.8563 18.3129 29.668 18.5093C29.4795 18.7057 29.2204 18.819 28.9482 18.8247C28.6356 18.8315 28.3194 18.8354 28 18.8354C27.6805 18.8354 27.3644 18.8315 27.0518 18.8247C26.7797 18.819 26.5205 18.7056 26.332 18.5093C26.1438 18.3129 26.0414 18.0498 26.0469 17.7778V17.7769C26.054 17.5052 26.1682 17.2473 26.3643 17.0591C26.5604 16.8709 26.823 16.7678 27.0947 16.772C27.692 16.7849 28.308 16.7849 28.9053 16.772H28.9082Z" fill="#FFAD00" stroke="#FFAD00" stroke-width="0.2"/>
<path d="M34.3062 16.2754C34.4389 16.2515 34.5757 16.2545 34.7075 16.2832C34.8391 16.312 34.9641 16.3665 35.0747 16.4434C35.1853 16.5203 35.2802 16.618 35.353 16.7314C35.4258 16.8449 35.4756 16.9718 35.4995 17.1045C35.5234 17.2371 35.5204 17.3732 35.4917 17.5049C35.4629 17.6367 35.4085 17.7623 35.3315 17.873C35.2546 17.9837 35.1559 18.0776 35.0425 18.1504C34.9292 18.2231 34.8029 18.273 34.6704 18.2969H34.6694C34.0706 18.4038 33.429 18.4981 32.7515 18.5752L32.7524 18.5762C32.713 18.5811 32.6731 18.5822 32.6333 18.582C32.3707 18.5828 32.1175 18.4837 31.9263 18.3037C31.7351 18.1235 31.6198 17.8766 31.605 17.6143C31.5902 17.3521 31.6766 17.0941 31.8462 16.8936C32.0158 16.6931 32.2562 16.5651 32.5171 16.5361L33.4409 16.415C33.7401 16.3721 34.0295 16.3261 34.3062 16.2754Z" fill="#FFAD00" stroke="#FFAD00" stroke-width="0.2"/>
<path d="M28.3584 28.8359C30.1453 28.8982 31.8876 29.425 33.4121 30.3672C35.0383 31.3723 36.3521 32.8106 37.207 34.5205C38.062 36.2305 38.4246 38.1448 38.2529 40.0488C38.0812 41.9528 37.3824 43.7714 36.2354 45.3008C36.072 45.5185 35.829 45.6626 35.5596 45.7012C35.29 45.7397 35.0157 45.6692 34.7979 45.5059C34.5802 45.3425 34.436 45.0995 34.3975 44.8301C34.3589 44.5605 34.4294 44.2862 34.5928 44.0684C35.6948 42.6007 36.2744 40.8067 36.2393 38.9717C36.2041 37.1366 35.5559 35.3658 34.3984 33.9414C33.2408 32.517 31.6398 31.52 29.8506 31.1104C28.0614 30.7007 26.1865 30.9019 24.5244 31.6807C22.8625 32.4594 21.5089 33.7714 20.6787 35.4082C19.8486 37.0451 19.5897 38.9129 19.9434 40.7139C20.2971 42.515 21.2432 44.1462 22.6309 45.3477C23.9512 46.4908 25.5991 47.1812 27.335 47.3252L26.3477 46.3369L26.3457 46.3359C26.1821 46.1664 26.0822 45.9465 26.0615 45.7139L26.0576 45.6143C26.06 45.345 26.168 45.0869 26.3584 44.8965C26.5488 44.7061 26.807 44.598 27.0762 44.5957C27.3451 44.5935 27.6043 44.697 27.7979 44.8838L27.7988 44.8857L30.5791 47.666L30.6475 47.7412C30.7971 47.9239 30.8799 48.1534 30.8799 48.3916C30.8799 48.6639 30.7716 48.9246 30.5791 49.1172L27.7998 51.8955L27.8008 51.8965C27.7061 51.9945 27.5921 52.0731 27.4668 52.127C27.3416 52.1807 27.2065 52.2088 27.0703 52.21C26.9341 52.2111 26.7989 52.1854 26.6729 52.1338C26.5467 52.0822 26.4323 52.0056 26.3359 51.9092C26.2396 51.8128 26.163 51.6984 26.1113 51.5723C26.0726 51.4777 26.0483 51.3778 26.0391 51.2764L26.0352 51.1748C26.0363 51.0386 26.0645 50.9035 26.1182 50.7783C26.1584 50.6846 26.2126 50.5971 26.2783 50.5195L26.3486 50.4443L27.4062 49.3867C24.7894 49.2431 22.3221 48.1089 20.5127 46.2051C18.6515 44.2468 17.6353 41.6348 17.6836 38.9336C17.732 36.2323 18.8413 33.658 20.7715 31.7676C22.7017 29.8772 25.2983 28.8222 28 28.8301L28.3584 28.8359Z" fill="#FFAD00" stroke="#FFAD00" stroke-width="0.2"/>
</svg>
