<svg width="78" height="75" viewBox="0 0 78 75" fill="none" xmlns="http://www.w3.org/2000/svg">
<path d="M77.4482 34.5894V61.48L54.1602 74.9263L30.8711 61.48V34.5894L54.1602 21.1431L77.4482 34.5894Z" fill="#FFAD00" fill-opacity="0.1"/>
<path d="M36.4658 6.85059C37.0767 6.85059 37.5722 7.34619 37.5723 7.95703C37.5723 8.56795 37.0767 9.06348 36.4658 9.06348H19.2959C18.6837 9.06338 18.1895 8.56768 18.1895 7.95703C18.1895 7.34624 18.6851 6.85068 19.2959 6.85059H36.4658Z" fill="#FFAD00" stroke="#FFAD00" stroke-width="0.5"/>
<path d="M36.4668 13.9136C37.0775 13.9137 37.5731 14.4093 37.5732 15.02C37.5732 15.6309 37.0776 16.1263 36.4668 16.1265H18.5254C17.9145 16.1264 17.4189 15.6309 17.4189 15.02C17.419 14.4092 17.9146 13.9137 18.5254 13.9136H36.4668Z" fill="#FFAD00" stroke="#FFAD00" stroke-width="0.5"/>
<path d="M16.9307 41.7754C17.5415 41.7754 18.037 42.271 18.0371 42.8818C18.0371 43.4928 17.5416 43.9883 16.9307 43.9883H7.88477C7.27392 43.9882 6.77832 43.4927 6.77832 42.8818C6.77841 42.271 7.27398 41.7755 7.88477 41.7754H16.9307Z" fill="#FFAD00" stroke="#FFAD00" stroke-width="0.5"/>
<path d="M36.4658 48.9688C37.0771 48.9688 37.5712 49.4648 37.5713 50.0752C37.5713 50.6861 37.0758 51.1816 36.4648 51.1816H7.88477C7.27392 51.1815 6.77832 50.6861 6.77832 50.0752C6.77841 49.4644 7.27398 48.9688 7.88477 48.9688H36.4658Z" fill="#FFAD00" stroke="#FFAD00" stroke-width="0.5"/>
<path d="M41.0107 0.25C42.5411 0.25 43.7852 1.49406 43.7852 3.02441V20.5137C50.1265 23.7268 54.7172 28.9019 55.9688 30.4043L56.2969 30.8076V30.8086C56.6096 31.2084 56.6098 31.7711 56.2988 32.1709L56.2979 32.1719C56.0015 32.5507 51.0388 38.7971 43.7861 42.4756V54.1016C43.786 55.8579 42.357 57.2871 40.6006 57.2871H3.43555C1.67913 57.2871 0.250137 55.8579 0.25 54.1016V12.3672C0.25 11.604 0.562828 10.8708 1.11523 10.3574L10.916 1.00098L10.9189 0.998047C11.443 0.512853 12.1114 0.25 12.8115 0.25H41.0107ZM14.2041 11.6816C14.2041 12.7768 13.3138 13.6678 12.2188 13.668H2.46191V54.1016C2.46205 54.6372 2.89885 55.0732 3.43457 55.0732H40.5996C41.1467 55.0732 41.5721 54.6487 41.5723 54.1016V43.4795C39.0258 44.5024 36.3385 45.1076 33.666 45.126L33.667 45.127C33.6549 45.1273 33.6425 45.1281 33.6201 45.1299C33.6004 45.1314 33.5714 45.1338 33.541 45.1338C30.0174 45.1337 26.7064 44.144 23.7637 42.7158C16.2522 39.075 11.0825 32.5568 10.7812 32.1719C10.4684 31.7719 10.4684 31.2086 10.7812 30.8086L10.9697 30.5742C11.6582 29.7318 14.0668 26.9126 17.625 24.1436C21.6875 20.9821 27.2787 17.8623 33.5391 17.8623C36.2646 17.8623 39.0094 18.4818 41.5723 19.5098V3.02441C41.5723 2.70791 41.3272 2.46289 41.0107 2.46289H14.2041V11.6816ZM33.541 20.0752C28.5542 20.0753 23.9153 22.3727 20.2588 24.9814C16.7662 27.4733 14.1937 30.2326 13.1025 31.4863C18.1386 37.3032 25.8643 42.917 33.5381 42.917C41.1503 42.9169 48.9121 37.3364 53.9795 31.4893C48.9575 25.7009 41.2092 20.0843 33.5586 20.0752H33.541ZM3.17285 11.4541H11.9697L11.9873 3.03809L3.17285 11.4541Z" fill="#FFAD00" stroke="#FFAD00" stroke-width="0.5"/>
<path d="M33.5361 23.2471C38.0871 23.2471 41.7881 26.9458 41.7881 31.4951C41.7881 36.0452 38.0862 39.7471 33.5361 39.7471C28.9878 39.7471 25.2881 36.0451 25.2881 31.4951C25.2881 26.9469 28.9879 23.2471 33.5361 23.2471ZM33.5361 25.1689C30.0484 25.1689 27.2109 28.0064 27.2109 31.4941C27.2109 34.9839 30.0485 37.8232 33.5361 37.8232C37.0267 37.8232 39.8652 34.9838 39.8652 31.4941C39.8652 28.0066 37.0259 25.169 33.5361 25.1689Z" fill="#FFAD00" stroke="#FFAD00" stroke-width="0.5"/>
</svg>
