<svg width="78" height="77" viewBox="0 0 78 77" fill="none" xmlns="http://www.w3.org/2000/svg">
<path d="M77.0752 36.2944V63.1851L53.7871 76.6313L30.498 63.1851V36.2944L53.7871 22.8481L77.0752 36.2944Z" fill="#FFAD00" fill-opacity="0.1"/>
<mask id="path-2-outside-1_1_9824" maskUnits="userSpaceOnUse" x="-0.700195" y="-0.700195" width="57" height="63" fill="black">
<rect fill="white" x="-0.700195" y="-0.700195" width="57" height="63"/>
<path d="M52.0763 39.7081V22.2563C54.262 21.8109 55.9116 19.8738 55.9116 17.5586C55.9116 14.9152 53.761 12.7645 51.1175 12.7645C49.6989 12.7645 48.4227 13.3844 47.5442 14.367L32.8488 5.78943C32.882 5.56219 32.8998 5.33016 32.8998 5.09393C32.8998 2.45045 30.7492 0.299805 28.1057 0.299805C25.4622 0.299805 23.3116 2.45045 23.3116 5.09393C23.3116 5.33016 23.3294 5.56219 23.3626 5.78943L8.66723 14.367C7.7887 13.3844 6.51263 12.7645 5.09393 12.7645C2.45045 12.7645 0.299805 14.9152 0.299805 17.5586C0.299805 19.8738 1.94946 21.8109 4.1351 22.2563V39.7081C1.94946 40.1535 0.299805 42.0905 0.299805 44.4057C0.299805 47.0492 2.45045 49.1999 5.09393 49.1999C6.51287 49.1999 7.78918 48.5796 8.66782 47.5967L23.3628 56.174C23.3296 56.4015 23.3116 56.6339 23.3116 56.8703C23.3116 59.5138 25.4622 61.6644 28.1057 61.6644C30.7492 61.6644 32.8998 59.5138 32.8998 56.8703C32.8998 56.6337 32.882 56.4015 32.8487 56.174L47.5436 47.5967C48.4222 48.5796 49.6986 49.1999 51.1175 49.1999C53.761 49.1999 55.9116 47.0492 55.9116 44.4057C55.9116 42.0905 54.262 40.1535 52.0763 39.7081ZM49.5713 39.8689L40.7138 24.7366L47.5441 20.7503C48.2193 21.5055 49.1293 22.0465 50.1586 22.2564V39.7082C49.9579 39.749 49.7622 39.8037 49.5713 39.8689ZM29.0645 43.4469V35.6798C30.0938 35.4701 31.0038 34.9289 31.679 34.1738L46.5775 42.8689C46.5137 43.0568 46.46 43.2494 46.4199 43.4468H29.0645V43.4469ZM9.79157 43.4469C9.7513 43.2494 9.69772 43.0569 9.63396 42.869L24.5324 34.1739C25.2077 34.9291 26.1176 35.4701 27.1469 35.68V43.4469H9.79157ZM6.05275 39.7081V22.2563C7.08205 22.0465 7.99197 21.5054 8.66723 20.7502L15.4975 24.7365L6.64015 39.8689C6.44922 39.8037 6.2535 39.749 6.05275 39.7081ZM17.1529 25.7028L23.5657 29.4454C23.4018 29.9282 23.3116 30.4448 23.3116 30.9822C23.3116 31.5196 23.4018 32.0362 23.5657 32.5189L8.66723 41.214C8.54941 41.0823 8.42464 40.957 8.29316 40.8389L17.1529 25.7028ZM27.1469 9.79157V26.2845C26.1176 26.4943 25.2077 27.0354 24.5324 27.7906L18.1211 24.0488L26.5603 9.63108C26.7509 9.69617 26.9464 9.7507 27.1469 9.79157ZM29.6511 9.63097L38.0903 24.0487L31.679 27.7905C31.0038 27.0353 30.0938 26.4943 29.0645 26.2844V9.79157C29.2651 9.7507 29.4605 9.69617 29.6511 9.63097ZM28.1057 33.8587C27.0788 33.8587 26.1763 33.3172 25.6673 32.5052C25.6548 32.4786 25.6414 32.4521 25.6262 32.4262C25.6101 32.3988 25.5929 32.3727 25.5747 32.3477C25.3545 31.9411 25.2292 31.476 25.2292 30.9822C25.2292 30.4828 25.3575 30.0127 25.5823 29.6029C25.5972 29.5816 25.6128 29.5611 25.6262 29.5382C25.6411 29.5127 25.6542 29.4867 25.6666 29.4603C26.1755 28.6477 27.0783 28.1057 28.1057 28.1057C29.1333 28.1057 30.0364 28.6479 30.5453 29.4609C30.5575 29.4869 30.5705 29.5128 30.5852 29.5382C30.5983 29.5606 30.6138 29.5807 30.6284 29.6017C30.8537 30.0117 30.9822 30.4822 30.9822 30.9822C30.9822 31.475 30.8574 31.9392 30.638 32.3452C30.6193 32.371 30.6015 32.398 30.5852 32.4262C30.5704 32.4517 30.5572 32.4777 30.5448 32.5041C30.0359 33.3167 29.1331 33.8587 28.1057 33.8587ZM47.5442 41.214L32.6457 32.5189C32.8096 32.0362 32.8998 31.5196 32.8998 30.9822C32.8998 30.4448 32.8096 29.9282 32.6457 29.4454L39.0585 25.7028L47.9183 40.839C47.7868 40.9571 47.662 41.0823 47.5442 41.214ZM51.1175 14.6822C52.7034 14.6822 53.994 15.9727 53.994 17.5586C53.994 19.1445 52.7034 20.4351 51.1175 20.4351C50.0899 20.4351 49.1868 19.8929 48.678 19.0799C48.6658 19.0538 48.6528 19.028 48.638 19.0026C48.6218 18.9749 48.6043 18.9485 48.586 18.9231C48.366 18.5168 48.241 18.0521 48.241 17.5586C48.241 17.0592 48.3693 16.5892 48.5941 16.1794C48.609 16.158 48.6246 16.1375 48.638 16.1147C48.6528 16.0891 48.666 16.0631 48.6784 16.0368C49.1873 15.2241 50.0901 14.6822 51.1175 14.6822ZM46.5775 16.0218C46.4136 16.5045 46.3234 17.0211 46.3234 17.5586C46.3234 18.0962 46.4136 18.6126 46.5775 19.0954L39.7456 23.0827L31.3043 8.66123C31.6431 8.35729 31.938 8.00588 32.1794 7.61767L46.5775 16.0218ZM28.1057 2.21745C29.6916 2.21745 30.9822 3.50803 30.9822 5.09393C30.9822 5.39344 30.936 5.68241 30.8506 5.95423C30.8502 5.95543 30.8497 5.95651 30.8494 5.95771C30.6355 6.63572 30.1765 7.20574 29.5771 7.56422C29.5706 7.56781 29.5638 7.57069 29.5574 7.57441C29.5522 7.5774 29.5475 7.581 29.5425 7.58411C29.1193 7.82933 28.6289 7.9704 28.1057 7.9704C27.5827 7.9704 27.0922 7.82933 26.6692 7.58423C26.664 7.58112 26.6593 7.5774 26.6541 7.57441C26.6471 7.57033 26.6399 7.56733 26.6328 7.56338C26.0337 7.20466 25.575 6.63428 25.3614 5.95627L25.3613 5.95603C25.2756 5.68372 25.2292 5.39416 25.2292 5.09393C25.2292 3.50803 26.5198 2.21745 28.1057 2.21745ZM24.0321 7.61767C24.2735 8.00588 24.5685 8.35729 24.9072 8.66123L16.4657 23.0827L9.63384 19.0954C9.79768 18.6126 9.88793 18.0961 9.88793 17.5586C9.88793 17.0211 9.79768 16.5047 9.63384 16.0218L24.0321 7.61767ZM2.21745 17.5586C2.21745 15.9727 3.50803 14.6822 5.09393 14.6822C6.12155 14.6822 7.02464 15.2244 7.53354 16.0374C7.54576 16.0634 7.5587 16.0892 7.57345 16.1147C7.58651 16.1371 7.60197 16.1572 7.61659 16.1782C7.84192 16.5883 7.9704 17.0587 7.9704 17.5586C7.9704 18.0515 7.84563 18.5156 7.6263 18.9215C7.6076 18.9474 7.58987 18.9743 7.57345 19.0026C7.55859 19.0282 7.5454 19.0542 7.53306 19.0805C7.02416 19.8931 6.12131 20.4351 5.09393 20.4351C3.50803 20.4351 2.21745 19.1445 2.21745 17.5586ZM5.09393 47.2822C3.50803 47.2822 2.21745 45.9916 2.21745 44.4057C2.21745 42.8198 3.50803 41.5293 5.09393 41.5293C5.6202 41.5293 6.11364 41.6721 6.53852 41.92C6.54127 41.9217 6.54379 41.9236 6.54655 41.9252C6.54918 41.9268 6.55206 41.9278 6.5547 41.9293C6.95237 42.1648 7.28856 42.4931 7.53342 42.8844C7.54564 42.9106 7.55859 42.9363 7.57345 42.9617C7.58663 42.9842 7.60197 43.0044 7.61659 43.0254C7.84192 43.4354 7.9704 43.9058 7.9704 44.4057C7.9704 44.8972 7.84623 45.3602 7.62798 45.7653C7.60856 45.792 7.59035 45.8198 7.57345 45.8488C7.55763 45.876 7.54336 45.9037 7.53054 45.9316C7.02116 46.742 6.11951 47.2822 5.09393 47.2822ZM9.6342 45.9418C9.69784 45.7541 9.75142 45.5618 9.79157 45.3646H27.1469V52.1728C25.8353 52.4401 24.7175 53.245 24.0326 54.346L9.6342 45.9418ZM28.1057 59.7469C26.5198 59.7469 25.2292 58.4563 25.2292 56.8704C25.2292 55.2846 26.5198 53.994 28.1057 53.994C29.6916 53.994 30.9822 55.2846 30.9822 56.8704C30.9822 58.4563 29.6916 59.7469 28.1057 59.7469ZM32.1788 54.346C31.494 53.245 30.3761 52.4401 29.0645 52.1728V45.3646H46.4199C46.46 45.5618 46.5136 45.7541 46.5772 45.9418L32.1788 54.346ZM51.1175 47.2822C50.0916 47.2822 49.1898 46.7418 48.6805 45.931C48.6677 45.9032 48.6537 45.8757 48.638 45.8488C48.6212 45.82 48.6031 45.7925 48.5839 45.7662C48.3653 45.3608 48.241 44.8976 48.241 44.4057C48.241 43.9063 48.3693 43.4362 48.5942 43.0263C48.6091 43.005 48.6247 42.9845 48.638 42.9617C48.6528 42.9362 48.666 42.9102 48.6784 42.8838C48.9232 42.4928 49.2593 42.1647 49.6567 41.9293C49.6594 41.9278 49.6622 41.9268 49.6649 41.9252C49.6676 41.9237 49.67 41.9217 49.6728 41.9201C50.0977 41.6721 50.5911 41.5293 51.1175 41.5293C52.7034 41.5293 53.994 42.8198 53.994 44.4057C53.994 45.9916 52.7034 47.2822 51.1175 47.2822Z"/>
</mask>
<path d="M52.0763 39.7081V22.2563C54.262 21.8109 55.9116 19.8738 55.9116 17.5586C55.9116 14.9152 53.761 12.7645 51.1175 12.7645C49.6989 12.7645 48.4227 13.3844 47.5442 14.367L32.8488 5.78943C32.882 5.56219 32.8998 5.33016 32.8998 5.09393C32.8998 2.45045 30.7492 0.299805 28.1057 0.299805C25.4622 0.299805 23.3116 2.45045 23.3116 5.09393C23.3116 5.33016 23.3294 5.56219 23.3626 5.78943L8.66723 14.367C7.7887 13.3844 6.51263 12.7645 5.09393 12.7645C2.45045 12.7645 0.299805 14.9152 0.299805 17.5586C0.299805 19.8738 1.94946 21.8109 4.1351 22.2563V39.7081C1.94946 40.1535 0.299805 42.0905 0.299805 44.4057C0.299805 47.0492 2.45045 49.1999 5.09393 49.1999C6.51287 49.1999 7.78918 48.5796 8.66782 47.5967L23.3628 56.174C23.3296 56.4015 23.3116 56.6339 23.3116 56.8703C23.3116 59.5138 25.4622 61.6644 28.1057 61.6644C30.7492 61.6644 32.8998 59.5138 32.8998 56.8703C32.8998 56.6337 32.882 56.4015 32.8487 56.174L47.5436 47.5967C48.4222 48.5796 49.6986 49.1999 51.1175 49.1999C53.761 49.1999 55.9116 47.0492 55.9116 44.4057C55.9116 42.0905 54.262 40.1535 52.0763 39.7081ZM49.5713 39.8689L40.7138 24.7366L47.5441 20.7503C48.2193 21.5055 49.1293 22.0465 50.1586 22.2564V39.7082C49.9579 39.749 49.7622 39.8037 49.5713 39.8689ZM29.0645 43.4469V35.6798C30.0938 35.4701 31.0038 34.9289 31.679 34.1738L46.5775 42.8689C46.5137 43.0568 46.46 43.2494 46.4199 43.4468H29.0645V43.4469ZM9.79157 43.4469C9.7513 43.2494 9.69772 43.0569 9.63396 42.869L24.5324 34.1739C25.2077 34.9291 26.1176 35.4701 27.1469 35.68V43.4469H9.79157ZM6.05275 39.7081V22.2563C7.08205 22.0465 7.99197 21.5054 8.66723 20.7502L15.4975 24.7365L6.64015 39.8689C6.44922 39.8037 6.2535 39.749 6.05275 39.7081ZM17.1529 25.7028L23.5657 29.4454C23.4018 29.9282 23.3116 30.4448 23.3116 30.9822C23.3116 31.5196 23.4018 32.0362 23.5657 32.5189L8.66723 41.214C8.54941 41.0823 8.42464 40.957 8.29316 40.8389L17.1529 25.7028ZM27.1469 9.79157V26.2845C26.1176 26.4943 25.2077 27.0354 24.5324 27.7906L18.1211 24.0488L26.5603 9.63108C26.7509 9.69617 26.9464 9.7507 27.1469 9.79157ZM29.6511 9.63097L38.0903 24.0487L31.679 27.7905C31.0038 27.0353 30.0938 26.4943 29.0645 26.2844V9.79157C29.2651 9.7507 29.4605 9.69617 29.6511 9.63097ZM28.1057 33.8587C27.0788 33.8587 26.1763 33.3172 25.6673 32.5052C25.6548 32.4786 25.6414 32.4521 25.6262 32.4262C25.6101 32.3988 25.5929 32.3727 25.5747 32.3477C25.3545 31.9411 25.2292 31.476 25.2292 30.9822C25.2292 30.4828 25.3575 30.0127 25.5823 29.6029C25.5972 29.5816 25.6128 29.5611 25.6262 29.5382C25.6411 29.5127 25.6542 29.4867 25.6666 29.4603C26.1755 28.6477 27.0783 28.1057 28.1057 28.1057C29.1333 28.1057 30.0364 28.6479 30.5453 29.4609C30.5575 29.4869 30.5705 29.5128 30.5852 29.5382C30.5983 29.5606 30.6138 29.5807 30.6284 29.6017C30.8537 30.0117 30.9822 30.4822 30.9822 30.9822C30.9822 31.475 30.8574 31.9392 30.638 32.3452C30.6193 32.371 30.6015 32.398 30.5852 32.4262C30.5704 32.4517 30.5572 32.4777 30.5448 32.5041C30.0359 33.3167 29.1331 33.8587 28.1057 33.8587ZM47.5442 41.214L32.6457 32.5189C32.8096 32.0362 32.8998 31.5196 32.8998 30.9822C32.8998 30.4448 32.8096 29.9282 32.6457 29.4454L39.0585 25.7028L47.9183 40.839C47.7868 40.9571 47.662 41.0823 47.5442 41.214ZM51.1175 14.6822C52.7034 14.6822 53.994 15.9727 53.994 17.5586C53.994 19.1445 52.7034 20.4351 51.1175 20.4351C50.0899 20.4351 49.1868 19.8929 48.678 19.0799C48.6658 19.0538 48.6528 19.028 48.638 19.0026C48.6218 18.9749 48.6043 18.9485 48.586 18.9231C48.366 18.5168 48.241 18.0521 48.241 17.5586C48.241 17.0592 48.3693 16.5892 48.5941 16.1794C48.609 16.158 48.6246 16.1375 48.638 16.1147C48.6528 16.0891 48.666 16.0631 48.6784 16.0368C49.1873 15.2241 50.0901 14.6822 51.1175 14.6822ZM46.5775 16.0218C46.4136 16.5045 46.3234 17.0211 46.3234 17.5586C46.3234 18.0962 46.4136 18.6126 46.5775 19.0954L39.7456 23.0827L31.3043 8.66123C31.6431 8.35729 31.938 8.00588 32.1794 7.61767L46.5775 16.0218ZM28.1057 2.21745C29.6916 2.21745 30.9822 3.50803 30.9822 5.09393C30.9822 5.39344 30.936 5.68241 30.8506 5.95423C30.8502 5.95543 30.8497 5.95651 30.8494 5.95771C30.6355 6.63572 30.1765 7.20574 29.5771 7.56422C29.5706 7.56781 29.5638 7.57069 29.5574 7.57441C29.5522 7.5774 29.5475 7.581 29.5425 7.58411C29.1193 7.82933 28.6289 7.9704 28.1057 7.9704C27.5827 7.9704 27.0922 7.82933 26.6692 7.58423C26.664 7.58112 26.6593 7.5774 26.6541 7.57441C26.6471 7.57033 26.6399 7.56733 26.6328 7.56338C26.0337 7.20466 25.575 6.63428 25.3614 5.95627L25.3613 5.95603C25.2756 5.68372 25.2292 5.39416 25.2292 5.09393C25.2292 3.50803 26.5198 2.21745 28.1057 2.21745ZM24.0321 7.61767C24.2735 8.00588 24.5685 8.35729 24.9072 8.66123L16.4657 23.0827L9.63384 19.0954C9.79768 18.6126 9.88793 18.0961 9.88793 17.5586C9.88793 17.0211 9.79768 16.5047 9.63384 16.0218L24.0321 7.61767ZM2.21745 17.5586C2.21745 15.9727 3.50803 14.6822 5.09393 14.6822C6.12155 14.6822 7.02464 15.2244 7.53354 16.0374C7.54576 16.0634 7.5587 16.0892 7.57345 16.1147C7.58651 16.1371 7.60197 16.1572 7.61659 16.1782C7.84192 16.5883 7.9704 17.0587 7.9704 17.5586C7.9704 18.0515 7.84563 18.5156 7.6263 18.9215C7.6076 18.9474 7.58987 18.9743 7.57345 19.0026C7.55859 19.0282 7.5454 19.0542 7.53306 19.0805C7.02416 19.8931 6.12131 20.4351 5.09393 20.4351C3.50803 20.4351 2.21745 19.1445 2.21745 17.5586ZM5.09393 47.2822C3.50803 47.2822 2.21745 45.9916 2.21745 44.4057C2.21745 42.8198 3.50803 41.5293 5.09393 41.5293C5.6202 41.5293 6.11364 41.6721 6.53852 41.92C6.54127 41.9217 6.54379 41.9236 6.54655 41.9252C6.54918 41.9268 6.55206 41.9278 6.5547 41.9293C6.95237 42.1648 7.28856 42.4931 7.53342 42.8844C7.54564 42.9106 7.55859 42.9363 7.57345 42.9617C7.58663 42.9842 7.60197 43.0044 7.61659 43.0254C7.84192 43.4354 7.9704 43.9058 7.9704 44.4057C7.9704 44.8972 7.84623 45.3602 7.62798 45.7653C7.60856 45.792 7.59035 45.8198 7.57345 45.8488C7.55763 45.876 7.54336 45.9037 7.53054 45.9316C7.02116 46.742 6.11951 47.2822 5.09393 47.2822ZM9.6342 45.9418C9.69784 45.7541 9.75142 45.5618 9.79157 45.3646H27.1469V52.1728C25.8353 52.4401 24.7175 53.245 24.0326 54.346L9.6342 45.9418ZM28.1057 59.7469C26.5198 59.7469 25.2292 58.4563 25.2292 56.8704C25.2292 55.2846 26.5198 53.994 28.1057 53.994C29.6916 53.994 30.9822 55.2846 30.9822 56.8704C30.9822 58.4563 29.6916 59.7469 28.1057 59.7469ZM32.1788 54.346C31.494 53.245 30.3761 52.4401 29.0645 52.1728V45.3646H46.4199C46.46 45.5618 46.5136 45.7541 46.5772 45.9418L32.1788 54.346ZM51.1175 47.2822C50.0916 47.2822 49.1898 46.7418 48.6805 45.931C48.6677 45.9032 48.6537 45.8757 48.638 45.8488C48.6212 45.82 48.6031 45.7925 48.5839 45.7662C48.3653 45.3608 48.241 44.8976 48.241 44.4057C48.241 43.9063 48.3693 43.4362 48.5942 43.0263C48.6091 43.005 48.6247 42.9845 48.638 42.9617C48.6528 42.9362 48.666 42.9102 48.6784 42.8838C48.9232 42.4928 49.2593 42.1647 49.6567 41.9293C49.6594 41.9278 49.6622 41.9268 49.6649 41.9252C49.6676 41.9237 49.67 41.9217 49.6728 41.9201C50.0977 41.6721 50.5911 41.5293 51.1175 41.5293C52.7034 41.5293 53.994 42.8198 53.994 44.4057C53.994 45.9916 52.7034 47.2822 51.1175 47.2822Z" fill="#FFAD00"/>
<path d="M52.0763 39.7081V22.2563C54.262 21.8109 55.9116 19.8738 55.9116 17.5586C55.9116 14.9152 53.761 12.7645 51.1175 12.7645C49.6989 12.7645 48.4227 13.3844 47.5442 14.367L32.8488 5.78943C32.882 5.56219 32.8998 5.33016 32.8998 5.09393C32.8998 2.45045 30.7492 0.299805 28.1057 0.299805C25.4622 0.299805 23.3116 2.45045 23.3116 5.09393C23.3116 5.33016 23.3294 5.56219 23.3626 5.78943L8.66723 14.367C7.7887 13.3844 6.51263 12.7645 5.09393 12.7645C2.45045 12.7645 0.299805 14.9152 0.299805 17.5586C0.299805 19.8738 1.94946 21.8109 4.1351 22.2563V39.7081C1.94946 40.1535 0.299805 42.0905 0.299805 44.4057C0.299805 47.0492 2.45045 49.1999 5.09393 49.1999C6.51287 49.1999 7.78918 48.5796 8.66782 47.5967L23.3628 56.174C23.3296 56.4015 23.3116 56.6339 23.3116 56.8703C23.3116 59.5138 25.4622 61.6644 28.1057 61.6644C30.7492 61.6644 32.8998 59.5138 32.8998 56.8703C32.8998 56.6337 32.882 56.4015 32.8487 56.174L47.5436 47.5967C48.4222 48.5796 49.6986 49.1999 51.1175 49.1999C53.761 49.1999 55.9116 47.0492 55.9116 44.4057C55.9116 42.0905 54.262 40.1535 52.0763 39.7081ZM49.5713 39.8689L40.7138 24.7366L47.5441 20.7503C48.2193 21.5055 49.1293 22.0465 50.1586 22.2564V39.7082C49.9579 39.749 49.7622 39.8037 49.5713 39.8689ZM29.0645 43.4469V35.6798C30.0938 35.4701 31.0038 34.9289 31.679 34.1738L46.5775 42.8689C46.5137 43.0568 46.46 43.2494 46.4199 43.4468H29.0645V43.4469ZM9.79157 43.4469C9.7513 43.2494 9.69772 43.0569 9.63396 42.869L24.5324 34.1739C25.2077 34.9291 26.1176 35.4701 27.1469 35.68V43.4469H9.79157ZM6.05275 39.7081V22.2563C7.08205 22.0465 7.99197 21.5054 8.66723 20.7502L15.4975 24.7365L6.64015 39.8689C6.44922 39.8037 6.2535 39.749 6.05275 39.7081ZM17.1529 25.7028L23.5657 29.4454C23.4018 29.9282 23.3116 30.4448 23.3116 30.9822C23.3116 31.5196 23.4018 32.0362 23.5657 32.5189L8.66723 41.214C8.54941 41.0823 8.42464 40.957 8.29316 40.8389L17.1529 25.7028ZM27.1469 9.79157V26.2845C26.1176 26.4943 25.2077 27.0354 24.5324 27.7906L18.1211 24.0488L26.5603 9.63108C26.7509 9.69617 26.9464 9.7507 27.1469 9.79157ZM29.6511 9.63097L38.0903 24.0487L31.679 27.7905C31.0038 27.0353 30.0938 26.4943 29.0645 26.2844V9.79157C29.2651 9.7507 29.4605 9.69617 29.6511 9.63097ZM28.1057 33.8587C27.0788 33.8587 26.1763 33.3172 25.6673 32.5052C25.6548 32.4786 25.6414 32.4521 25.6262 32.4262C25.6101 32.3988 25.5929 32.3727 25.5747 32.3477C25.3545 31.9411 25.2292 31.476 25.2292 30.9822C25.2292 30.4828 25.3575 30.0127 25.5823 29.6029C25.5972 29.5816 25.6128 29.5611 25.6262 29.5382C25.6411 29.5127 25.6542 29.4867 25.6666 29.4603C26.1755 28.6477 27.0783 28.1057 28.1057 28.1057C29.1333 28.1057 30.0364 28.6479 30.5453 29.4609C30.5575 29.4869 30.5705 29.5128 30.5852 29.5382C30.5983 29.5606 30.6138 29.5807 30.6284 29.6017C30.8537 30.0117 30.9822 30.4822 30.9822 30.9822C30.9822 31.475 30.8574 31.9392 30.638 32.3452C30.6193 32.371 30.6015 32.398 30.5852 32.4262C30.5704 32.4517 30.5572 32.4777 30.5448 32.5041C30.0359 33.3167 29.1331 33.8587 28.1057 33.8587ZM47.5442 41.214L32.6457 32.5189C32.8096 32.0362 32.8998 31.5196 32.8998 30.9822C32.8998 30.4448 32.8096 29.9282 32.6457 29.4454L39.0585 25.7028L47.9183 40.839C47.7868 40.9571 47.662 41.0823 47.5442 41.214ZM51.1175 14.6822C52.7034 14.6822 53.994 15.9727 53.994 17.5586C53.994 19.1445 52.7034 20.4351 51.1175 20.4351C50.0899 20.4351 49.1868 19.8929 48.678 19.0799C48.6658 19.0538 48.6528 19.028 48.638 19.0026C48.6218 18.9749 48.6043 18.9485 48.586 18.9231C48.366 18.5168 48.241 18.0521 48.241 17.5586C48.241 17.0592 48.3693 16.5892 48.5941 16.1794C48.609 16.158 48.6246 16.1375 48.638 16.1147C48.6528 16.0891 48.666 16.0631 48.6784 16.0368C49.1873 15.2241 50.0901 14.6822 51.1175 14.6822ZM46.5775 16.0218C46.4136 16.5045 46.3234 17.0211 46.3234 17.5586C46.3234 18.0962 46.4136 18.6126 46.5775 19.0954L39.7456 23.0827L31.3043 8.66123C31.6431 8.35729 31.938 8.00588 32.1794 7.61767L46.5775 16.0218ZM28.1057 2.21745C29.6916 2.21745 30.9822 3.50803 30.9822 5.09393C30.9822 5.39344 30.936 5.68241 30.8506 5.95423C30.8502 5.95543 30.8497 5.95651 30.8494 5.95771C30.6355 6.63572 30.1765 7.20574 29.5771 7.56422C29.5706 7.56781 29.5638 7.57069 29.5574 7.57441C29.5522 7.5774 29.5475 7.581 29.5425 7.58411C29.1193 7.82933 28.6289 7.9704 28.1057 7.9704C27.5827 7.9704 27.0922 7.82933 26.6692 7.58423C26.664 7.58112 26.6593 7.5774 26.6541 7.57441C26.6471 7.57033 26.6399 7.56733 26.6328 7.56338C26.0337 7.20466 25.575 6.63428 25.3614 5.95627L25.3613 5.95603C25.2756 5.68372 25.2292 5.39416 25.2292 5.09393C25.2292 3.50803 26.5198 2.21745 28.1057 2.21745ZM24.0321 7.61767C24.2735 8.00588 24.5685 8.35729 24.9072 8.66123L16.4657 23.0827L9.63384 19.0954C9.79768 18.6126 9.88793 18.0961 9.88793 17.5586C9.88793 17.0211 9.79768 16.5047 9.63384 16.0218L24.0321 7.61767ZM2.21745 17.5586C2.21745 15.9727 3.50803 14.6822 5.09393 14.6822C6.12155 14.6822 7.02464 15.2244 7.53354 16.0374C7.54576 16.0634 7.5587 16.0892 7.57345 16.1147C7.58651 16.1371 7.60197 16.1572 7.61659 16.1782C7.84192 16.5883 7.9704 17.0587 7.9704 17.5586C7.9704 18.0515 7.84563 18.5156 7.6263 18.9215C7.6076 18.9474 7.58987 18.9743 7.57345 19.0026C7.55859 19.0282 7.5454 19.0542 7.53306 19.0805C7.02416 19.8931 6.12131 20.4351 5.09393 20.4351C3.50803 20.4351 2.21745 19.1445 2.21745 17.5586ZM5.09393 47.2822C3.50803 47.2822 2.21745 45.9916 2.21745 44.4057C2.21745 42.8198 3.50803 41.5293 5.09393 41.5293C5.6202 41.5293 6.11364 41.6721 6.53852 41.92C6.54127 41.9217 6.54379 41.9236 6.54655 41.9252C6.54918 41.9268 6.55206 41.9278 6.5547 41.9293C6.95237 42.1648 7.28856 42.4931 7.53342 42.8844C7.54564 42.9106 7.55859 42.9363 7.57345 42.9617C7.58663 42.9842 7.60197 43.0044 7.61659 43.0254C7.84192 43.4354 7.9704 43.9058 7.9704 44.4057C7.9704 44.8972 7.84623 45.3602 7.62798 45.7653C7.60856 45.792 7.59035 45.8198 7.57345 45.8488C7.55763 45.876 7.54336 45.9037 7.53054 45.9316C7.02116 46.742 6.11951 47.2822 5.09393 47.2822ZM9.6342 45.9418C9.69784 45.7541 9.75142 45.5618 9.79157 45.3646H27.1469V52.1728C25.8353 52.4401 24.7175 53.245 24.0326 54.346L9.6342 45.9418ZM28.1057 59.7469C26.5198 59.7469 25.2292 58.4563 25.2292 56.8704C25.2292 55.2846 26.5198 53.994 28.1057 53.994C29.6916 53.994 30.9822 55.2846 30.9822 56.8704C30.9822 58.4563 29.6916 59.7469 28.1057 59.7469ZM32.1788 54.346C31.494 53.245 30.3761 52.4401 29.0645 52.1728V45.3646H46.4199C46.46 45.5618 46.5136 45.7541 46.5772 45.9418L32.1788 54.346ZM51.1175 47.2822C50.0916 47.2822 49.1898 46.7418 48.6805 45.931C48.6677 45.9032 48.6537 45.8757 48.638 45.8488C48.6212 45.82 48.6031 45.7925 48.5839 45.7662C48.3653 45.3608 48.241 44.8976 48.241 44.4057C48.241 43.9063 48.3693 43.4362 48.5942 43.0263C48.6091 43.005 48.6247 42.9845 48.638 42.9617C48.6528 42.9362 48.666 42.9102 48.6784 42.8838C48.9232 42.4928 49.2593 42.1647 49.6567 41.9293C49.6594 41.9278 49.6622 41.9268 49.6649 41.9252C49.6676 41.9237 49.67 41.9217 49.6728 41.9201C50.0977 41.6721 50.5911 41.5293 51.1175 41.5293C52.7034 41.5293 53.994 42.8198 53.994 44.4057C53.994 45.9916 52.7034 47.2822 51.1175 47.2822Z" stroke="#FFAD00" stroke-width="0.6" mask="url(#path-2-outside-1_1_9824)"/>
</svg>
