<svg width="66" height="75" viewBox="0 0 66 75" fill="none" xmlns="http://www.w3.org/2000/svg">
<path d="M65.7236 34.5815V61.4722L42.4355 74.9185L19.1465 61.4722V34.5815L42.4355 21.1353L65.7236 34.5815Z" fill="#FFAD00" fill-opacity="0.1"/>
<path d="M24.3164 0.149414L24.5117 0.155273C25.4857 0.204551 26.4097 0.612814 27.1025 1.30566C27.8415 2.04467 28.2576 3.04669 28.2588 4.0918V14.0537H29.373C30.418 14.055 31.4203 14.4711 32.1592 15.21C32.898 15.9489 33.3133 16.9511 33.3145 17.9961V41.5029L33.3086 41.7783C33.2483 43.1492 32.7548 44.4683 31.8965 45.5449L29.4678 48.583C28.8626 49.342 28.0937 49.9546 27.2188 50.375C26.3596 50.7877 25.4194 51.0029 24.4668 51.0088V55.917L24.4531 56.1816C24.3916 56.7944 24.1199 57.3703 23.6807 57.8096C23.1787 58.3115 22.4979 58.5938 21.7881 58.5947H11.6758C10.9659 58.5938 10.2852 58.3115 9.7832 57.8096C9.28127 57.3076 8.99898 56.6269 8.99805 55.917V51.0088C8.0454 51.0031 7.10518 50.7878 6.24609 50.375C5.48061 50.0071 4.79667 49.4919 4.23242 48.8604L3.99805 48.583L1.56738 45.5459V45.5449C0.651913 44.3964 0.151848 42.9716 0.149414 41.5029V17.9961L0.155273 17.8008C0.204542 16.8268 0.612817 15.9028 1.30566 15.21C2.04467 14.471 3.04669 14.0549 4.0918 14.0537H5.20605V4.0918L5.21094 3.89648C5.26021 2.9226 5.66862 1.99849 6.36133 1.30566C7.10024 0.566753 8.10249 0.150661 9.14746 0.149414H24.3164ZM11.8262 55.7666H21.6387V51.0107H11.8262V55.7666ZM4.0918 16.8818C3.79648 16.8822 3.5135 17.0001 3.30469 17.209C3.09589 17.4178 2.97786 17.7008 2.97754 17.9961V41.5029C2.97852 42.3299 3.26093 43.1324 3.77734 43.7783L6.20605 46.8154L6.20703 46.8164C6.54722 47.2436 6.97945 47.5886 7.47168 47.8252C7.964 48.0618 8.50358 48.1839 9.0498 48.1826H24.4141C24.9606 48.1838 25.5005 48.0619 25.9932 47.8252C26.4856 47.5886 26.9182 47.2436 27.2588 46.8164V46.8154L29.6875 43.7783C30.2039 43.1324 30.4854 42.3299 30.4863 41.5029V17.9961C30.486 17.7009 30.3688 17.4178 30.1602 17.209C29.9513 17.0001 29.6675 16.8821 29.3721 16.8818H4.0918ZM9.14844 2.97754C8.85302 2.97784 8.56924 3.0958 8.36035 3.30469C8.15167 3.5135 8.03455 3.79658 8.03418 4.0918V14.0537H25.4307V4.0918C25.4303 3.79647 25.3124 3.51352 25.1035 3.30469C24.8947 3.09585 24.6117 2.9779 24.3164 2.97754H9.14844Z" fill="#FFAD00" stroke="#FFAD00" stroke-width="0.3"/>
<path d="M14.2041 5.20557C14.5791 5.20557 14.9389 5.35542 15.2041 5.62061C15.4691 5.88568 15.6181 6.24483 15.6182 6.61963C15.6182 6.99462 15.4692 7.35445 15.2041 7.61963C14.9389 7.88482 14.5791 8.03369 14.2041 8.03369H11.6758C11.3009 8.03359 10.9418 7.88467 10.6768 7.61963C10.4116 7.35444 10.2617 6.99466 10.2617 6.61963C10.2618 6.24474 10.4117 5.8857 10.6768 5.62061C10.9419 5.35551 11.3009 5.20567 11.6758 5.20557H14.2041Z" fill="#FFAD00" stroke="#FFAD00" stroke-width="0.3"/>
<path d="M21.7881 5.20557C22.1631 5.20557 22.5229 5.35542 22.7881 5.62061C23.0531 5.88568 23.202 6.24483 23.2021 6.61963C23.2021 6.99462 23.0532 7.35445 22.7881 7.61963C22.5229 7.88482 22.1631 8.03369 21.7881 8.03369H19.2598C18.8849 8.03359 18.5258 7.88467 18.2607 7.61963C17.9956 7.35444 17.8457 6.99466 17.8457 6.61963C17.8458 6.24474 17.9956 5.8857 18.2607 5.62061C18.5258 5.35551 18.8849 5.20567 19.2598 5.20557H21.7881Z" fill="#FFAD00" stroke="#FFAD00" stroke-width="0.3"/>
<path d="M13.0898 32.4565L15.3184 34.1274V21.7876C15.3185 21.4128 15.4674 21.0537 15.7324 20.7886C15.9976 20.5234 16.3574 20.3735 16.7324 20.3735C17.1074 20.3736 17.4673 20.5234 17.7324 20.7886C17.9973 21.0536 18.1464 21.4129 18.1465 21.7876V31.5991L20.374 29.9292V25.5796C20.374 25.394 20.4105 25.21 20.4814 25.0386C20.5525 24.867 20.6568 24.7109 20.7881 24.5796C20.9193 24.4484 21.0756 24.345 21.2471 24.2739C21.4186 24.2029 21.6025 24.1655 21.7881 24.1655C21.9739 24.1653 22.1583 24.202 22.3301 24.2729C22.5017 24.3439 22.6577 24.4483 22.7891 24.5796C22.9205 24.7109 23.0246 24.8669 23.0957 25.0386C23.1668 25.2101 23.2031 25.394 23.2031 25.5796V30.6362C23.2031 30.8558 23.152 31.0727 23.0537 31.269C22.9555 31.4651 22.8132 31.6356 22.6377 31.7671L18.1465 35.1353V43.2769C18.1465 43.6518 17.9976 44.0117 17.7324 44.2769C17.4673 44.5419 17.1073 44.6909 16.7324 44.6909C16.3575 44.6908 15.9975 44.542 15.7324 44.2769C15.4673 44.0117 15.3184 43.6518 15.3184 43.2769V37.6626L10.8281 34.2954C10.6524 34.1638 10.5094 33.9927 10.4111 33.7964C10.313 33.6003 10.2618 33.3838 10.2617 33.1646V28.1069C10.2653 27.7344 10.416 27.3779 10.6807 27.1157C10.9454 26.8536 11.3032 26.7066 11.6758 26.7065C12.0484 26.7065 12.4061 26.8535 12.6709 27.1157C12.9357 27.378 13.0862 27.7343 13.0898 28.1069V32.4565Z" fill="#FFAD00" stroke="#FFAD00" stroke-width="0.3"/>
</svg>
