<svg width="82" height="70" viewBox="0 0 82 70" fill="none" xmlns="http://www.w3.org/2000/svg">
<path d="M81.54 29.1138V56.0044L58.252 69.4507L34.9629 56.0044V29.1138L58.252 15.6675L81.54 29.1138Z" fill="#FFAD00" fill-opacity="0.1"/>
<path d="M44.6016 0.149414C44.7506 0.149329 44.8984 0.179341 45.0361 0.236328C45.1737 0.293278 45.299 0.376215 45.4043 0.481445C45.5096 0.586738 45.5934 0.712047 45.6504 0.849609C45.7074 0.987241 45.7364 1.13523 45.7363 1.28418V46.5703L45.7305 46.6816C45.7196 46.7925 45.6931 46.9015 45.6504 47.0049C45.5934 47.1425 45.5096 47.2677 45.4043 47.373C45.2989 47.4784 45.1738 47.5622 45.0361 47.6191C44.8984 47.6761 44.7506 47.7052 44.6016 47.7051H1.28418C1.13523 47.7051 0.987241 47.6761 0.849609 47.6191C0.71208 47.5622 0.586717 47.4783 0.481445 47.373C0.376219 47.2677 0.29326 47.1424 0.236328 47.0049C0.179341 46.8672 0.149329 46.7193 0.149414 46.5703V1.28418C0.149355 1.13523 0.179366 0.987239 0.236328 0.849609C0.293311 0.712128 0.37621 0.586681 0.481445 0.481445C0.586681 0.37621 0.712128 0.293311 0.849609 0.236328C0.987239 0.179366 1.13523 0.149355 1.28418 0.149414H44.6016ZM2.41895 45.4365H43.4678V2.41895H2.41895V45.4365Z" fill="#FFAD00" stroke="#FFAD00" stroke-width="0.3"/>
<path d="M44.6016 5.07178C49.6023 5.07178 54.3985 7.05916 57.9346 10.5952C61.4704 14.1312 63.457 18.9267 63.457 23.9272C63.457 28.928 61.4706 33.7242 57.9346 37.2603C54.3985 40.7963 49.6023 42.7827 44.6016 42.7827C44.3008 42.7827 44.0125 42.6632 43.7998 42.4507C43.587 42.2379 43.4668 41.9488 43.4668 41.6479C43.4669 41.3472 43.5871 41.0589 43.7998 40.8462C44.0125 40.6335 44.3008 40.5142 44.6016 40.5142C49.0005 40.5142 53.2195 38.7663 56.3301 35.6558C59.4406 32.5452 61.1885 28.3262 61.1885 23.9272C61.1884 19.5284 59.4406 15.3092 56.3301 12.1987C53.2196 9.0883 49.0004 7.34131 44.6016 7.34131C44.3009 7.34128 44.0125 7.22177 43.7998 7.00928C43.587 6.79652 43.4668 6.50743 43.4668 6.20654C43.4668 5.9057 43.5871 5.61752 43.7998 5.40479C44.0125 5.19205 44.3007 5.07181 44.6016 5.07178Z" fill="#FFAD00" stroke="#FFAD00" stroke-width="0.3"/>
<path d="M5.22314 0.149414C5.52403 0.149414 5.81312 0.269664 6.02588 0.482422C6.23838 0.695117 6.35788 0.983512 6.35791 1.28418V46.5703L6.35205 46.6816C6.34121 46.7925 6.31471 46.9016 6.27197 47.0049C6.21502 47.1425 6.13116 47.2677 6.02588 47.373C5.92056 47.4784 5.79532 47.5622 5.65771 47.6191C5.52002 47.6761 5.37216 47.7052 5.22314 47.7051C5.07419 47.7051 4.9262 47.6761 4.78857 47.6191C4.65104 47.5622 4.52568 47.4783 4.42041 47.373C4.31518 47.2677 4.23222 47.1424 4.17529 47.0049C4.11831 46.8672 4.08829 46.7193 4.08838 46.5703V1.28418C4.08841 0.983336 4.20866 0.695153 4.42139 0.482422C4.63412 0.269691 4.9223 0.149444 5.22314 0.149414Z" fill="#FFAD00" stroke="#FFAD00" stroke-width="0.3"/>
<path d="M19.0063 7.04199C19.6724 7.04154 20.3323 7.17309 20.9478 7.42773C21.5631 7.68235 22.1223 8.05556 22.5933 8.52637C23.0644 8.99739 23.4381 9.55731 23.6929 10.1729C23.9476 10.7883 24.079 11.4481 24.0786 12.1143V18.0215C24.0787 18.6876 23.9477 19.3475 23.6929 19.9629C23.438 20.5783 23.0643 21.1374 22.5933 21.6084C22.1223 22.0793 21.5631 22.4533 20.9478 22.708C20.3323 22.9627 19.6724 23.093 19.0063 23.0928H17.0376C16.3715 23.0933 15.7117 22.9626 15.0962 22.708C14.4807 22.4534 13.9208 22.0803 13.4497 21.6094C12.9786 21.1384 12.6049 20.5784 12.3501 19.9629C12.0954 19.3474 11.964 18.6876 11.9644 18.0215V12.1143C11.9642 11.4481 12.0962 10.7883 12.3511 10.1729C12.6059 9.55759 12.9788 8.99823 13.4497 8.52734C13.9208 8.05637 14.4807 7.68249 15.0962 7.42773C15.7116 7.17303 16.3715 7.04172 17.0376 7.04199H19.0063ZM17.0376 9.31152C16.6695 9.31141 16.3045 9.38363 15.9644 9.52441C15.6243 9.66517 15.3155 9.87167 15.0552 10.1318C14.7948 10.3921 14.5877 10.7009 14.4468 11.041C14.3059 11.3811 14.2339 11.7462 14.2339 12.1143V18.0215C14.2337 18.3896 14.306 18.7546 14.4468 19.0947C14.5876 19.4348 14.794 19.7437 15.0542 20.0039C15.3146 20.2642 15.6242 20.4706 15.9644 20.6113C16.3044 20.752 16.6687 20.8245 17.0366 20.8242H19.0063C19.3743 20.8243 19.7386 20.752 20.0786 20.6113C20.4187 20.4705 20.7284 20.2642 20.9888 20.0039C21.249 19.7437 21.4553 19.4347 21.5962 19.0947C21.7371 18.7547 21.81 18.3896 21.8101 18.0215V12.1133C21.8102 11.7453 21.737 11.381 21.5962 11.041C21.4554 10.7009 21.2491 10.3921 20.9888 10.1318C20.7285 9.87167 20.4196 9.66512 20.0796 9.52441C19.7394 9.38371 19.3745 9.31122 19.0063 9.31152H17.0376Z" fill="#FFAD00" stroke="#FFAD00" stroke-width="0.3"/>
<path d="M36.7266 7.04102C37.0274 7.04102 37.3165 7.16127 37.5293 7.37402C37.7418 7.58673 37.8613 7.87507 37.8613 8.17578C37.8613 8.47667 37.7421 8.76576 37.5293 8.97852C37.3165 9.19122 37.0274 9.31055 36.7266 9.31055H30.3281C29.7152 9.31055 29.1268 9.55387 28.6934 9.9873C28.2599 10.4207 28.0166 11.0091 28.0166 11.6221C28.0167 12.2349 28.26 12.8225 28.6934 13.2559C29.1268 13.6893 29.7152 13.9326 30.3281 13.9326H33.2812C34.4959 13.9326 35.6606 14.4156 36.5195 15.2744C37.3784 16.1333 37.8612 17.2981 37.8613 18.5127C37.8613 19.7274 37.3785 20.893 36.5195 21.752C35.6606 22.6107 34.4958 23.0927 33.2812 23.0928H26.8818C26.581 23.0927 26.2928 22.9734 26.0801 22.7607C25.8674 22.548 25.7471 22.2598 25.7471 21.959C25.7471 21.6581 25.8673 21.369 26.0801 21.1562C26.2928 20.9437 26.5811 20.8242 26.8818 20.8242H33.2812C33.8941 20.8242 34.4817 20.5807 34.915 20.1475C35.3485 19.714 35.5928 19.1257 35.5928 18.5127C35.5927 17.8998 35.3484 17.3123 34.915 16.8789C34.4816 16.4456 33.8941 16.2022 33.2812 16.2021H30.3281C29.1134 16.2021 27.9478 15.7193 27.0889 14.8604C26.23 14.0015 25.7472 12.8366 25.7471 11.6221C25.7471 10.4073 26.2299 9.24177 27.0889 8.38281C27.9478 7.52386 29.1134 7.04102 30.3281 7.04102H36.7266Z" fill="#FFAD00" stroke="#FFAD00" stroke-width="0.3"/>
<path d="M39.6787 26.7305C39.8275 26.7304 39.9748 26.7605 40.1123 26.8174C40.2498 26.8743 40.3752 26.9573 40.4805 27.0625C40.5857 27.1678 40.6696 27.2931 40.7266 27.4307C40.7835 27.5683 40.8126 27.7163 40.8125 27.8652V31.8027C40.8126 31.9517 40.7835 32.0997 40.7266 32.2373C40.6696 32.375 40.5858 32.5001 40.4805 32.6055C40.3751 32.7108 40.25 32.7946 40.1123 32.8516C39.9748 32.9084 39.8275 32.9375 39.6787 32.9375H10.1436C9.9946 32.9376 9.84661 32.9085 9.70898 32.8516C9.57146 32.7946 9.44608 32.7107 9.34082 32.6055C9.23561 32.5002 9.15263 32.3748 9.0957 32.2373C9.03873 32.0996 9.0087 31.9517 9.00879 31.8027V27.8652C9.00873 27.7164 9.03882 27.5692 9.0957 27.4316C9.15269 27.294 9.23545 27.1679 9.34082 27.0625C9.44606 26.9573 9.57151 26.8744 9.70898 26.8174C9.84661 26.7604 9.9946 26.7304 10.1436 26.7305H39.6787ZM11.2783 30.6689H38.5439V29H11.2783V30.6689Z" fill="#FFAD00" stroke="#FFAD00" stroke-width="0.3"/>
<path d="M28.8511 34.6064C29.152 34.6064 29.4411 34.7267 29.6538 34.9395C29.8663 35.1521 29.9858 35.4405 29.9858 35.7412C29.9858 36.0421 29.8666 36.3312 29.6538 36.5439C29.4411 36.7567 29.152 36.876 28.8511 36.876H12.1147C11.8141 36.8759 11.5257 36.7564 11.313 36.5439C11.1002 36.3312 10.98 36.0421 10.98 35.7412C10.98 35.4404 11.1003 35.1522 11.313 34.9395C11.5257 34.7267 11.8139 34.6065 12.1147 34.6064H28.8511Z" fill="#FFAD00" stroke="#FFAD00" stroke-width="0.3"/>
<path d="M33.7734 38.5444C34.0743 38.5444 34.3634 38.6647 34.5762 38.8774C34.7887 39.0901 34.9082 39.3785 34.9082 39.6792C34.9082 39.9801 34.7889 40.2692 34.5762 40.4819C34.3634 40.6947 34.0743 40.814 33.7734 40.814H16.0527C15.7521 40.8139 15.4637 40.6944 15.251 40.4819C15.0382 40.2692 14.918 39.9801 14.918 39.6792C14.918 39.3784 15.0382 39.0902 15.251 38.8774C15.4637 38.6647 15.7519 38.5445 16.0527 38.5444H33.7734Z" fill="#FFAD00" stroke="#FFAD00" stroke-width="0.3"/>
<path d="M37.7119 34.6064C38.0127 34.6065 38.301 34.7268 38.5137 34.9395C38.7263 35.1522 38.8457 35.4404 38.8457 35.7412C38.8457 36.0421 38.7264 36.3312 38.5137 36.5439C38.301 36.7565 38.0126 36.8759 37.7119 36.876H32.7891C32.4884 36.8759 32.2 36.7564 31.9873 36.5439C31.7745 36.3312 31.6543 36.0421 31.6543 35.7412C31.6543 35.4404 31.7746 35.1522 31.9873 34.9395C32.2 34.7267 32.4882 34.6065 32.7891 34.6064H37.7119Z" fill="#FFAD00" stroke="#FFAD00" stroke-width="0.3"/>
<path d="M44.6016 18.8545C45.9469 18.8545 47.2372 19.3896 48.1885 20.3408C49.1397 21.2921 49.6738 22.5825 49.6738 23.9277C49.6737 25.2728 49.1395 26.5625 48.1885 27.5137C47.2372 28.4649 45.9469 29 44.6016 29C44.3009 29 44.0125 28.8804 43.7998 28.668C43.587 28.4552 43.4668 28.1661 43.4668 27.8652C43.4668 27.5644 43.5871 27.2762 43.7998 27.0635C44.0125 26.8507 44.3007 26.7305 44.6016 26.7305C45.345 26.7305 46.0583 26.4357 46.584 25.9102C47.1096 25.3845 47.4052 24.6711 47.4053 23.9277C47.4053 23.1843 47.1096 22.4711 46.584 21.9453C46.0582 21.4196 45.3451 21.124 44.6016 21.124C44.3009 21.124 44.0125 21.0045 43.7998 20.792C43.587 20.5792 43.4668 20.2901 43.4668 19.9893C43.4668 19.6884 43.5871 19.4002 43.7998 19.1875C44.0125 18.9748 44.3007 18.8545 44.6016 18.8545Z" fill="#FFAD00" stroke="#FFAD00" stroke-width="0.3"/>
<path d="M44.6016 14.917C46.9912 14.917 49.2829 15.8669 50.9727 17.5566C52.6624 19.2464 53.6123 21.538 53.6123 23.9277C53.6123 26.3174 52.6624 28.609 50.9727 30.2988C49.2829 31.9886 46.9913 32.9385 44.6016 32.9385C44.3007 32.9384 44.0125 32.8182 43.7998 32.6055C43.5871 32.3927 43.4668 32.1046 43.4668 31.8037C43.4668 31.5029 43.5871 31.2147 43.7998 31.002C44.0125 30.7892 44.3007 30.669 44.6016 30.6689C46.3895 30.6689 48.1039 29.9586 49.3682 28.6943C50.6324 27.4301 51.3428 25.7157 51.3428 23.9277C51.3428 22.1398 50.6324 20.4254 49.3682 19.1611C48.1039 17.8969 46.3895 17.1865 44.6016 17.1865C44.3009 17.1865 44.0125 17.067 43.7998 16.8545C43.587 16.6417 43.4668 16.3526 43.4668 16.0518C43.4668 15.7509 43.5871 15.4627 43.7998 15.25C44.0125 15.0373 44.3007 14.917 44.6016 14.917Z" fill="#FFAD00" stroke="#FFAD00" stroke-width="0.3"/>
<path d="M54.812 13.7339C55.1114 13.7478 55.3937 13.8792 55.5962 14.1001C58.0995 16.7624 59.5028 20.2739 59.5239 23.9282L59.519 24.0405C59.5082 24.1511 59.4806 24.2597 59.438 24.3628C59.381 24.5004 59.2972 24.6256 59.1919 24.731C59.0865 24.8363 58.9614 24.9201 58.8237 24.9771C58.686 25.034 58.5382 25.0631 58.3892 25.063C58.2404 25.063 58.0931 25.0339 57.9556 24.9771C57.8179 24.9201 57.6928 24.8363 57.5874 24.731C57.482 24.6256 57.3983 24.5005 57.3413 24.3628C57.2845 24.2256 57.2555 24.0786 57.2554 23.9302L57.2368 23.3521C57.0787 20.4737 55.9075 17.7367 53.9204 15.6313L53.9185 15.6284C53.7169 15.4056 53.6119 15.1121 53.6265 14.812C53.6411 14.5119 53.7743 14.23 53.9966 14.0278C54.2189 13.8258 54.512 13.72 54.812 13.7339Z" fill="#FFAD00" stroke="#FFAD00" stroke-width="0.3"/>
</svg>
