<svg width="74" height="76" viewBox="0 0 74 76" fill="none" xmlns="http://www.w3.org/2000/svg">
<path d="M73.1294 35.0977V61.9883L49.8413 75.4346L26.5522 61.9883V35.0977L49.8413 21.6514L73.1294 35.0977Z" fill="#FFAD00" fill-opacity="0.1"/>
<path d="M42.1807 58.0469C44.2062 58.0469 45.8574 56.3958 45.8574 54.3701V5.17676C45.8574 3.15115 44.2063 1.50001 42.1807 1.5H5.17676C3.15115 1.5 1.5 3.15114 1.5 5.17676V54.3701C1.5 56.3958 3.15124 58.0469 5.17676 58.0469H42.1807Z" stroke="#FFAD00" stroke-width="3" stroke-miterlimit="22.926" stroke-linecap="round" stroke-linejoin="round"/>
<path d="M7.35547 8.85352L7.50879 8.8457C8.2651 8.76882 8.85547 8.13012 8.85547 7.35352C8.85547 6.57692 8.2651 5.93821 7.50879 5.86133L7.35547 5.85352H7.35352C6.52509 5.85352 5.85352 6.52509 5.85352 7.35352C5.85352 8.18194 6.52509 8.85352 7.35352 8.85352H7.35547Z" stroke="#FFAD00" stroke-width="3" stroke-miterlimit="22.926" stroke-linecap="round" stroke-linejoin="round"/>
<path d="M40.3721 8.85352L40.5254 8.8457C41.2817 8.76882 41.8721 8.13012 41.8721 7.35352C41.8721 6.57692 41.2817 5.93821 40.5254 5.86133L40.3721 5.85352H40.3701C39.5417 5.85352 38.8701 6.52509 38.8701 7.35352C38.8701 8.18194 39.5417 8.85352 40.3701 8.85352H40.3721Z" stroke="#FFAD00" stroke-width="3" stroke-miterlimit="22.926" stroke-linecap="round" stroke-linejoin="round"/>
<path d="M7.35547 53.6934L7.50879 53.6855C8.2651 53.6087 8.85547 52.97 8.85547 52.1934C8.85547 51.4168 8.2651 50.7781 7.50879 50.7012L7.35547 50.6934H7.35352C6.52509 50.6934 5.85352 51.3649 5.85352 52.1934C5.85352 53.0218 6.52509 53.6934 7.35352 53.6934H7.35547Z" stroke="#FFAD00" stroke-width="3" stroke-miterlimit="22.926" stroke-linecap="round" stroke-linejoin="round"/>
<path d="M40.3721 53.6934L40.5254 53.6855C41.2817 53.6087 41.8721 52.97 41.8721 52.1934C41.8721 51.4168 41.2817 50.7781 40.5254 50.7012L40.3721 50.6934H40.3701C39.5417 50.6934 38.8701 51.3649 38.8701 52.1934C38.8701 53.0218 39.5417 53.6934 40.3701 53.6934H40.3721Z" stroke="#FFAD00" stroke-width="3" stroke-miterlimit="22.926" stroke-linecap="round" stroke-linejoin="round"/>
<mask id="path-7-outside-1_1_9717" maskUnits="userSpaceOnUse" x="5.625" y="3.82715" width="37" height="37" fill="black">
<rect fill="white" x="5.625" y="3.82715" width="37" height="37"/>
<path d="M32.772 34.9504C30.1775 36.8208 27.0603 37.8271 23.8619 37.8271C15.4468 37.8271 8.625 31.0054 8.625 22.5902C8.625 14.1751 15.4468 7.35332 23.8619 7.35332C32.277 7.35332 39.0988 14.1751 39.0988 22.5902C39.0988 25.7886 38.0923 28.9058 36.222 31.5003"/>
</mask>
<path d="M31.0177 32.5168C32.3617 31.5479 34.2367 31.8521 35.2056 33.1961C36.1745 34.5401 35.8704 36.4151 34.5263 37.384L32.772 34.9504L31.0177 32.5168ZM38.6556 33.2547C37.6867 34.5987 35.8117 34.9028 34.4677 33.9339C33.1236 32.9651 32.8195 31.0901 33.7884 29.746L36.222 31.5003L38.6556 33.2547ZM32.772 34.9504L34.5263 37.384C31.421 39.6226 27.6899 40.8271 23.8619 40.8271V37.8271V34.8271C26.4306 34.8271 28.934 34.0189 31.0177 32.5168L32.772 34.9504ZM23.8619 37.8271V40.8271C13.7899 40.8271 5.625 32.6622 5.625 22.5902H8.625H11.625C11.625 29.3485 17.1036 34.8271 23.8619 34.8271V37.8271ZM8.625 22.5902H5.625C5.625 12.5182 13.7899 4.35332 23.8619 4.35332V7.35332V10.3533C17.1036 10.3533 11.625 15.832 11.625 22.5902H8.625ZM23.8619 7.35332V4.35332C33.9339 4.35332 42.0988 12.5182 42.0988 22.5902H39.0988H36.0988C36.0988 15.832 30.6202 10.3533 23.8619 10.3533V7.35332ZM39.0988 22.5902H42.0988C42.0988 26.4183 40.8941 30.1493 38.6556 33.2547L36.222 31.5003L33.7884 29.746C35.2905 27.6623 36.0988 25.1588 36.0988 22.5902H39.0988Z" fill="#FFAD00" mask="url(#path-7-outside-1_1_9717)"/>
<path d="M23.8623 26.2671C25.8896 26.2671 27.5391 24.6177 27.5391 22.5903C27.539 20.5632 25.8897 18.9136 23.8623 18.9136C21.8349 18.9136 20.1856 20.5632 20.1855 22.5903C20.1855 24.6177 21.8349 26.2671 23.8623 26.2671Z" stroke="#FFAD00" stroke-width="3" stroke-miterlimit="22.926" stroke-linecap="round" stroke-linejoin="round"/>
<path d="M34.3247 38.2529C35.7121 39.6405 37.9475 39.6841 39.3882 38.3828L39.5249 38.2529L39.6548 38.1162C40.9556 36.6757 40.9119 34.4411 39.5249 33.0537L33.0103 26.5391C31.5782 25.1074 29.2434 25.1068 27.811 26.5391C26.3788 27.9715 26.379 30.3072 27.811 31.7393L34.3247 38.2529Z" stroke="#FFAD00" stroke-width="3" stroke-miterlimit="22.926" stroke-linecap="round" stroke-linejoin="round"/>
<path d="M32.3037 50.4282C33.1319 50.428 33.8037 49.7565 33.8037 48.9282V43.7729C33.8037 42.9447 33.1319 42.2732 32.3037 42.2729H14.8896C14.0612 42.2729 13.3896 42.9445 13.3896 43.7729V48.9282C13.3896 49.7566 14.0612 50.4282 14.8896 50.4282H32.3037Z" stroke="#FFAD00" stroke-width="3" stroke-miterlimit="22.926" stroke-linecap="round" stroke-linejoin="round"/>
</svg>
