<svg width="76" height="79" viewBox="0 0 76 79" fill="none" xmlns="http://www.w3.org/2000/svg">
<path d="M75.5771 37.7744V64.665L52.2891 78.1113L29 64.665V37.7744L52.2891 24.3281L75.5771 37.7744Z" fill="#FFAD00" fill-opacity="0.1"/>
<path d="M24.4238 0.922852C25.8284 -0.174104 27.7994 -0.173915 29.2041 0.922852L29.501 1.14551C32.6007 3.42419 36.6062 4.85561 40.3682 5.75293C44.2499 6.67881 47.8639 7.03395 49.9365 7.16895C51.9563 7.30723 53.5254 8.98434 53.5293 11.0088V24.8574C53.4978 41.6475 43.6809 56.8785 28.4023 63.8408C27.3953 64.2979 26.2395 64.2978 25.2324 63.8408C9.9338 56.901 0.106051 41.6565 0.100586 24.8574V11.0088L0.105469 10.8203C0.20276 8.88123 1.73577 7.30304 3.69238 7.16895H3.69336C5.76441 7.03394 9.37726 6.67926 13.2588 5.75391C17.142 4.82811 21.2857 3.33315 24.4238 0.922852ZM27.7852 2.76562C27.2153 2.31998 26.4146 2.32 25.8447 2.76562L25.8438 2.7666C22.5642 5.28563 18.4117 6.8783 14.4092 7.88574C10.9059 8.76751 7.51241 9.202 4.91016 9.41504L3.8457 9.49414C3.04916 9.54927 2.43106 10.2104 2.42969 11.0088V24.8574C2.43457 40.7424 11.7278 55.1572 26.1943 61.7188H26.1934C26.5884 61.8944 27.0395 61.8943 27.4346 61.7188L28.1084 61.4043C42.1714 54.6859 51.1691 40.4866 51.2002 24.8574V11.0088C51.1988 10.2105 50.5806 9.54942 49.7842 9.49414C47.0844 9.31771 43.2237 8.89346 39.2197 7.88574C35.2168 6.87827 31.0637 5.28583 27.7852 2.7666V2.76562Z" fill="#FFAD00" stroke="#FFAD00" stroke-width="0.2"/>
<path d="M25.6069 5.30615C26.346 4.82242 27.3015 4.82246 28.0405 5.30615C33.9465 9.1731 41.7507 10.6566 47.2651 11.2183C48.404 11.3329 49.271 12.2913 49.271 13.436V24.8569L49.2612 25.5425C48.9377 39.91 40.701 52.9508 27.8179 59.4028H27.8169C27.185 59.7135 26.4449 59.7134 25.813 59.4028H25.812C19.7397 56.3847 14.5645 51.8276 10.8022 46.186C6.59238 39.87 4.35029 32.4474 4.35889 24.8569V13.436L4.36865 13.2222C4.47013 12.168 5.30818 11.3176 6.38232 11.2183L7.44189 11.1021C12.8603 10.4621 20.0662 8.93135 25.6069 5.30615ZM26.8149 7.28857C20.553 11.3703 12.4304 12.9325 6.69385 13.5249L6.68799 24.8569C6.67931 31.987 8.78477 38.9597 12.7388 44.8931C16.2679 50.1841 21.1194 54.4602 26.811 57.2974C39.0908 51.1342 46.8718 38.5984 46.9419 24.8569V13.5249C41.2013 12.9324 33.0858 11.3699 26.8149 7.28857Z" fill="#FFAD00" stroke="#FFAD00" stroke-width="0.2"/>
<path d="M12.1514 16.4155C12.4844 16.0826 12.9858 15.9824 13.4209 16.1626C13.8559 16.3429 14.1395 16.7679 14.1396 17.2388V22.4663C14.7359 22.5171 15.2041 23.017 15.2041 23.6265C15.204 24.2695 14.6822 24.7905 14.0391 24.7905H11.9102C11.2671 24.7905 10.7462 24.2695 10.7461 23.6265C10.7461 23.0169 11.2141 22.5169 11.8105 22.4663V19.4595C11.3803 19.4224 11.0023 19.1526 10.835 18.7485C10.6549 18.3135 10.754 17.813 11.0869 17.48L12.1514 16.4155Z" fill="#FFAD00" stroke="#FFAD00" stroke-width="0.2"/>
<path d="M39.8311 16.4155C40.1641 16.0826 40.6655 15.9824 41.1006 16.1626C41.5356 16.3429 41.8192 16.7679 41.8193 17.2388V22.4663C42.4156 22.5171 42.8838 23.017 42.8838 23.6265C42.8836 24.2695 42.3618 24.7905 41.7188 24.7905H39.5898C38.9468 24.7905 38.4259 24.2695 38.4258 23.6265C38.4258 23.0169 38.8938 22.5169 39.4902 22.4663V19.4595C39.06 19.4224 38.682 19.1526 38.5146 18.7485C38.3345 18.3135 38.4337 17.813 38.7666 17.48L39.8311 16.4155Z" fill="#FFAD00" stroke="#FFAD00" stroke-width="0.2"/>
<path d="M19.3623 16.0747C21.1813 16.0747 22.656 17.5488 22.6562 19.3677V21.4976C22.6561 23.3165 21.1813 24.7905 19.3623 24.7905C17.5435 24.7903 16.0695 23.3164 16.0693 21.4976V19.3677C16.0695 17.5489 17.5435 16.0749 19.3623 16.0747ZM19.3623 18.4038C18.8299 18.404 18.3986 18.8353 18.3984 19.3677V21.4976C18.3986 22.03 18.8299 22.4612 19.3623 22.4614C19.8949 22.4614 20.327 22.0301 20.3271 21.4976V19.3677C20.3269 18.8351 19.8949 18.4038 19.3623 18.4038Z" fill="#FFAD00" stroke="#FFAD00" stroke-width="0.2"/>
<path d="M25.9912 16.4155C26.3243 16.0826 26.8256 15.9824 27.2607 16.1626C27.6957 16.3429 27.9794 16.7679 27.9795 17.2388V22.4663C28.5758 22.5171 29.0439 23.017 29.0439 23.6265C29.0438 24.2695 28.522 24.7905 27.8789 24.7905H25.75C25.107 24.7905 24.5861 24.2695 24.5859 23.6265C24.5859 23.0169 25.0539 22.5169 25.6504 22.4663V19.4595C25.2201 19.4224 24.8422 19.1526 24.6748 18.7485C24.4947 18.3135 24.5939 17.813 24.9268 17.48L25.9912 16.4155Z" fill="#FFAD00" stroke="#FFAD00" stroke-width="0.2"/>
<path d="M38.7666 27.0615C39.0997 26.7286 39.601 26.6284 40.0361 26.8086C40.4711 26.9889 40.7548 27.4139 40.7549 27.8848V33.1123C41.3511 33.1631 41.8193 33.663 41.8193 34.2725C41.8192 34.9155 41.2974 35.4365 40.6543 35.4365H38.5254C37.8824 35.4365 37.3615 34.9155 37.3613 34.2725C37.3613 33.6629 37.8293 33.1629 38.4258 33.1123V30.1055C37.9955 30.0684 37.6175 29.7986 37.4502 29.3945C37.2701 28.9595 37.3693 28.459 37.7021 28.126L38.7666 27.0615Z" fill="#FFAD00" stroke="#FFAD00" stroke-width="0.2"/>
<path d="M33.2017 16.0747C35.0206 16.0747 36.4954 17.5488 36.4956 19.3677V21.4976C36.4954 23.3165 35.0206 24.7905 33.2017 24.7905C31.3829 24.7903 29.9089 23.3164 29.9087 21.4976V19.3677C29.9089 17.5489 31.3829 16.0749 33.2017 16.0747ZM33.2017 18.4038C32.6692 18.404 32.238 18.8353 32.2378 19.3677V21.4976C32.238 22.03 32.6692 22.4612 33.2017 22.4614C33.7343 22.4614 34.1663 22.0301 34.1665 21.4976V19.3677C34.1663 18.8351 33.7343 18.4038 33.2017 18.4038Z" fill="#FFAD00" stroke="#FFAD00" stroke-width="0.2"/>
<path d="M20.4272 37.3662C22.2462 37.3662 23.721 38.8403 23.7212 40.6592V42.7891C23.721 44.608 22.2462 46.082 20.4272 46.082C18.6084 46.0818 17.1345 44.6079 17.1343 42.7891V40.6592C17.1345 38.8404 18.6085 37.3664 20.4272 37.3662ZM20.4272 39.6953C19.8948 39.6955 19.4636 40.1268 19.4634 40.6592V42.7891C19.4636 43.3215 19.8948 43.7527 20.4272 43.7529C20.9599 43.7529 21.3919 43.3216 21.3921 42.7891V40.6592C21.3919 40.1266 20.9598 39.6953 20.4272 39.6953Z" fill="#FFAD00" stroke="#FFAD00" stroke-width="0.2"/>
<path d="M27.0562 37.7075C27.3892 37.3746 27.8906 37.2744 28.3257 37.4546C28.7607 37.6348 29.0443 38.0599 29.0444 38.5308V43.7583C29.6407 43.8091 30.1089 44.309 30.1089 44.9185C30.1087 45.5615 29.5869 46.0825 28.9438 46.0825H26.8149C26.1719 46.0824 25.651 45.5615 25.6509 44.9185C25.6509 44.3089 26.1189 43.8089 26.7153 43.7583V40.7515C26.2851 40.7144 25.9071 40.4446 25.7397 40.0405C25.5596 39.6055 25.6588 39.105 25.9917 38.772L27.0562 37.7075Z" fill="#FFAD00" stroke="#FFAD00" stroke-width="0.2"/>
<path d="M34.2661 37.3662C36.0851 37.3662 37.5598 38.8403 37.5601 40.6592V42.7891C37.5599 44.608 36.0851 46.082 34.2661 46.082C32.4473 46.0818 30.9733 44.6079 30.9731 42.7891V40.6592C30.9734 38.8404 32.4473 37.3664 34.2661 37.3662ZM34.2661 39.6953C33.7337 39.6955 33.3025 40.1268 33.3022 40.6592V42.7891C33.3024 43.3215 33.7337 43.7527 34.2661 43.7529C34.7987 43.7529 35.2308 43.3216 35.231 42.7891V40.6592C35.2307 40.1266 34.7987 39.6953 34.2661 39.6953Z" fill="#FFAD00" stroke="#FFAD00" stroke-width="0.2"/>
<path d="M15.104 26.7207C16.923 26.7207 18.3977 28.1948 18.3979 30.0137V32.1436C18.3978 33.9625 16.923 35.4365 15.104 35.4365C13.2852 35.4363 11.8112 33.9624 11.811 32.1436V30.0137C11.8112 28.1949 13.2852 26.7209 15.104 26.7207ZM15.104 29.0498C14.5716 29.05 14.1403 29.4813 14.1401 30.0137V32.1436C14.1403 32.676 14.5716 33.1072 15.104 33.1074C15.6366 33.1074 16.0687 32.6761 16.0688 32.1436V30.0137C16.0686 29.4811 15.6366 29.0498 15.104 29.0498Z" fill="#FFAD00" stroke="#FFAD00" stroke-width="0.2"/>
<path d="M23.6206 26.7207C25.4396 26.7207 26.9143 28.1948 26.9146 30.0137V32.1436C26.9144 33.9625 25.4396 35.4365 23.6206 35.4365C21.8018 35.4363 20.3278 33.9624 20.3276 32.1436V30.0137C20.3278 28.1949 21.8018 26.7209 23.6206 26.7207ZM23.6206 29.0498C23.0882 29.05 22.657 29.4813 22.6567 30.0137V32.1436C22.6569 32.676 23.0882 33.1072 23.6206 33.1074C24.1532 33.1074 24.5853 32.6761 24.5854 32.1436V30.0137C24.5852 29.4811 24.1532 29.0498 23.6206 29.0498Z" fill="#FFAD00" stroke="#FFAD00" stroke-width="0.2"/>
<path d="M32.1372 26.7207C33.9562 26.7207 35.4309 28.1948 35.4312 30.0137V32.1436C35.431 33.9625 33.9562 35.4365 32.1372 35.4365C30.3184 35.4363 28.8444 33.9624 28.8442 32.1436V30.0137C28.8445 28.1949 30.3184 26.7209 32.1372 26.7207ZM32.1372 29.0498C31.6048 29.05 31.1736 29.4813 31.1733 30.0137V32.1436C31.1735 32.676 31.6048 33.1072 32.1372 33.1074C32.6698 33.1074 33.1019 32.6761 33.1021 32.1436V30.0137C33.1018 29.4811 32.6698 29.0498 32.1372 29.0498Z" fill="#FFAD00" stroke="#FFAD00" stroke-width="0.2"/>
</svg>
