<svg width="26" height="4" viewBox="0 0 26 4" fill="none" xmlns="http://www.w3.org/2000/svg">
<path d="M23.8155 0.506855C24.6427 0.507219 25.3116 1.17607 25.3119 2.00324C25.3119 2.81678 24.6353 3.49341 23.8218 3.49341L13.9064 3.49411H13.4064V3.4872L13.4057 3.48789H13.3975L13.3968 3.4872H13.3954L13.3947 3.48789H13.3878L13.3871 3.4872H13.3857L13.385 3.48789H13.3795L13.3788 3.4872L13.3781 3.48789H13.3726L13.3719 3.4872L13.3712 3.48789H13.3671L13.3664 3.4872L13.3657 3.48789H13.3615L13.3609 3.4872L13.3602 3.48789H13.356L13.3553 3.4872L13.3546 3.48789H13.3519L13.3512 3.4872L13.3505 3.48789H13.3464L13.3457 3.4872L13.345 3.48789H13.3422L13.3415 3.4872L13.3408 3.48789H13.3381L13.3374 3.4872L13.3367 3.48789H13.3339L13.3332 3.4872L13.3325 3.48789H13.3298L13.3291 3.4872L13.3284 3.48789H13.3256L13.325 3.4872L13.3243 3.48789H13.3215L13.3208 3.4872L13.3201 3.48789H13.3174L13.3167 3.4872L13.316 3.48789H13.3132L13.3125 3.4872L13.3118 3.48789H13.3091L13.3084 3.4872L13.3077 3.48789H13.3049L13.3042 3.4872L13.3035 3.48789H13.2994L13.2987 3.4872L13.298 3.48789H13.2953L13.2946 3.4872L13.2939 3.48789H13.2911L13.2904 3.4872L13.2897 3.48789H13.2856L13.2849 3.4872L13.2842 3.48789H13.2814L13.2808 3.4872L13.2801 3.48789H13.2759L13.2752 3.4872L13.2745 3.48789H13.2704L13.2697 3.4872H13.2683L13.2676 3.48789H13.2635L13.2628 3.4872L13.2621 3.48789H13.2566L13.2559 3.4872H13.2545L13.2538 3.48789H13.2469L13.2462 3.4872H13.2448L13.2442 3.48789H13.2345L13.2338 3.4872H13.231L13.2303 3.48789H13.1986L13.1965 3.4872H13.1937L13.1917 3.48789H13.1834L13.1813 3.4872H13.1799L13.1779 3.48789H13.1723L13.1703 3.4872L13.1682 3.48789H13.1641L13.162 3.4872L13.1599 3.48789H13.1572L13.1551 3.4872L13.153 3.48789H13.1502L13.1482 3.4872L13.1461 3.48789H13.1447L13.1426 3.4872L13.1406 3.48789H13.1392L13.1371 3.4872L13.1351 3.48789H13.1337L13.1316 3.4872L13.1295 3.48789H13.1281L13.1261 3.4872L13.124 3.48789H13.1185L13.1164 3.4872L13.1143 3.48789L13.1123 3.4872L13.1102 3.48789H13.0853L13.0833 3.4872L13.0812 3.48789H13.0743L13.0722 3.4872L13.0701 3.48789H13.0674L13.0653 3.4872L13.0632 3.48789H13.0605L13.0584 3.4872L13.0563 3.48789H13.0536L13.0515 3.4872L13.0494 3.48789H13.0439L13.0418 3.4872L13.0398 3.48789H13.0315L13.0294 3.4872L13.0273 3.48789H13.0163L13.0142 3.4872H13.0114L13.0094 3.48789H12.9679L12.9645 3.4872H12.9617L12.9583 3.48789H12.9472C12.9462 3.48789 12.9448 3.4872 12.9438 3.4872L12.9403 3.48789H12.932C12.931 3.48789 12.9296 3.4872 12.9286 3.4872C12.9275 3.4872 12.9262 3.48789 12.9251 3.48789H12.9224C12.9213 3.48789 12.92 3.4872 12.9189 3.4872C12.9179 3.4872 12.9165 3.48789 12.9155 3.48789H12.8906C12.8896 3.48789 12.8882 3.4872 12.8872 3.4872L12.8837 3.48789H12.8754C12.8744 3.48789 12.873 3.4872 12.872 3.4872L12.8685 3.48789H12.8519L12.8485 3.4872H12.8209L12.8188 3.48789H12.8022L12.8001 3.4872L12.7981 3.48789H12.7898L12.7877 3.4872L12.7856 3.48789H12.7705L12.7684 3.4872L12.7663 3.48789H12.7635L12.7615 3.4872L12.7594 3.48789H12.7566L12.7546 3.4872L12.7525 3.48789H12.7456L12.7435 3.4872L12.7414 3.48789L12.7394 3.4872L12.7373 3.48789H12.7207L12.7187 3.4872L12.7166 3.48789L12.7145 3.4872L12.7124 3.48789H12.7069L12.7049 3.4872L12.7028 3.48789H12.7014L12.6993 3.4872L12.6973 3.48789H12.6903L12.6883 3.4872L12.6862 3.48789H12.6848L12.6828 3.4872L12.6807 3.48789H12.6779L12.6758 3.4872L12.6738 3.48789H12.671L12.6689 3.4872L12.6669 3.48789H12.6613L12.6593 3.4872L12.6572 3.48789H12.6517L12.6496 3.4872H12.6482L12.6462 3.48789H12.6323L12.6303 3.4872H12.6165L12.6158 3.48789H12.6006L12.5999 3.4872H12.5985L12.5978 3.48789H12.5895L12.5888 3.4872L12.5882 3.48789H12.5826L12.5819 3.4872L12.5812 3.48789H12.5757L12.575 3.4872L12.5743 3.48789H12.5702L12.5695 3.4872L12.5688 3.48789H12.5647L12.564 3.4872L12.5633 3.48789H12.5605L12.5598 3.4872L12.5591 3.48789H12.5564L12.5557 3.4872L12.555 3.48789H12.5522L12.5516 3.4872L12.5509 3.48789H12.5481L12.5474 3.4872L12.5467 3.48789H12.544L12.5433 3.4872L12.5426 3.48789L12.5405 3.4872L12.5398 3.48789H12.5371L12.5364 3.4872L12.5357 3.48789H12.5301L12.5295 3.4872L12.5288 3.48789L12.5267 3.4872L12.526 3.48789H12.5232L12.5226 3.4872L12.5219 3.48789L12.5198 3.4872L12.5191 3.48789H12.5136L12.5129 3.4872L12.5122 3.48789L12.5101 3.4872L12.5094 3.48789H12.5039L12.5032 3.4872L12.5025 3.48789H12.497L12.4963 3.4872L12.4956 3.48789L12.4935 3.4872L12.4929 3.48789H12.4901L12.4894 3.4872L12.4887 3.48789H12.486L12.4853 3.4872L12.4846 3.48789L12.4825 3.4872L12.4818 3.48789H12.479L12.4784 3.4872L12.4777 3.48789H12.4749L12.4742 3.4872L12.4735 3.48789H12.4652L12.4645 3.4872L12.4639 3.48789H12.4597L12.459 3.4872L12.4583 3.48789H12.4542L12.4535 3.4872L12.4528 3.48789H12.4487L12.448 3.4872H12.4466L12.4459 3.48789H12.4404L12.4397 3.4872H12.4383L12.4376 3.48789H12.4293L12.4286 3.4872H12.4273L12.4266 3.48789H12.4128V3.49341L11.9121 3.49411L1.99674 3.49341C1.16913 3.49333 0.499664 2.82397 0.499663 1.99634C0.49991 1.16891 1.16928 0.499341 1.99674 0.49926L11.9121 0.49995H13.9064L23.8155 0.506855Z" fill="#FFAD00" stroke="#FFAD00"/>
</svg>
