<svg width="109" height="111" viewBox="0 0 109 111" fill="none" xmlns="http://www.w3.org/2000/svg">
<path d="M74.8177 7.82864L49.3576 0.118774C48.7708 -0.0621832 48.1347 -0.0347656 47.5645 0.19006L1.73848 18.1816C0.691122 18.5928 0.000195768 19.6018 0.000195768 20.7314V69.5295C-0.00528778 69.9956 0.104383 70.4452 0.334692 70.8455C0.340175 70.851 0.340175 70.851 0.340175 70.8565V70.862V70.8675C0.340175 70.8729 0.340175 70.8729 0.340175 70.8729C0.36211 70.9168 0.389527 70.9607 0.416945 71.0045C0.416945 71.01 0.416945 71.01 0.416945 71.0155C0.422428 71.0155 0.422428 71.021 0.422428 71.021C0.422428 71.0265 0.422428 71.0265 0.422428 71.0265C0.422428 71.0265 0.422428 71.0265 0.422428 71.032C0.422428 71.032 0.422428 71.032 0.422428 71.0375C0.729507 71.5255 1.18464 71.9148 1.75493 72.1342C1.79331 72.1506 1.83718 72.1616 1.88105 72.178L47.6961 87.5923C47.9812 87.6855 48.2718 87.7348 48.5679 87.7348C48.8366 87.7348 49.1053 87.6965 49.3631 87.6197L74.8232 79.9098C75.9747 79.5589 76.7698 78.4951 76.7698 77.2832V10.4498C76.7698 9.24339 75.9747 8.1741 74.8177 7.82864ZM71.2863 75.2488L48.6118 82.1142L28.5037 75.3475L48.2499 77.6616C48.9682 77.7329 49.8072 77.5025 50.3885 76.9816C50.9752 76.4607 51.3097 75.7204 51.3097 74.9362V18.1651C51.3097 17.359 50.9533 16.5913 50.3391 16.0704C49.725 15.555 48.9134 15.3411 48.1128 15.4617L17.564 20.5998C16.2425 20.8192 15.2774 21.9652 15.2774 23.3032V62.4612L5.48374 65.7623V22.6013L48.6886 5.6407L71.2863 12.4842V75.2488ZM15.2006 68.2737L18.8965 67.029C20.0096 66.6506 20.7609 65.6087 20.7609 64.4298V25.6227L45.8262 21.4059V71.8545L15.2006 68.2737Z" fill="#FFAD00"/>
<path d="M108.434 45.396V89.1304L70.5581 110.999L32.6821 89.1304V45.396L70.5581 23.5269L108.434 45.396Z" fill="#FFAD00" fill-opacity="0.1"/>
</svg>
