<svg width="74" height="76" viewBox="0 0 74 76" fill="none" xmlns="http://www.w3.org/2000/svg">
<path d="M73.8135 35.0747V61.9653L50.5254 75.4116L27.2363 61.9653V35.0747L50.5254 21.6284L73.8135 35.0747Z" fill="#FFAD00" fill-opacity="0.1"/>
<path d="M55.8393 41.2909C55.4801 40.9317 50.7204 36.0822 49.7326 35.1842C49.3734 34.5555 48.4753 34.6453 48.1161 35.274C47.3977 35.9924 45.7812 37.6089 42.0992 41.2909C41.5603 41.8297 41.9195 42.8176 42.7278 42.8176H46.0506C45.6016 46.5894 42.3686 49.553 38.4171 49.553C34.1963 49.553 30.7837 46.1404 30.7837 41.9195C30.7837 38.2375 33.3881 35.0944 36.9803 34.3759C38.3273 34.1065 39.9438 34.1963 41.2011 34.7351C41.5603 34.8249 41.9195 34.8249 42.189 34.5555L45.9608 30.7837C46.4098 30.3347 46.32 29.7061 45.7812 29.3468C43.3564 27.9998 40.5725 27.2813 37.7885 27.4609V9.58972C37.6089 4.29123 29.4366 0.25 18.9295 0.25C8.51206 0.25 0.25 4.29123 0.25 9.58972V48.3855C0.25 53.5942 8.42226 57.7252 18.9295 57.7252C23.9585 57.7252 28.7182 56.7374 32.2206 55.0311C34.1065 55.9291 36.172 56.468 38.4171 56.468C46.1404 56.468 52.4267 50.451 52.8758 42.9074H55.0311C55.9291 42.9972 56.468 41.9195 55.8393 41.2909ZM35.8128 27.6405C30.9633 28.5386 26.8323 31.8614 24.9464 36.5312C17.1333 37.8783 8.06304 36.3516 3.93201 33.0288C0.878635 30.5143 2.31552 28.7182 1.9563 24.3178C5.6383 28.1794 13.5411 29.257 18.8396 29.257C25.4852 29.257 32.5798 27.6405 35.723 24.3178V27.6405H35.8128ZM2.0461 13.631C5.00967 16.7741 11.3858 18.9294 18.9295 18.9294C26.4731 18.9294 32.8492 16.7741 35.8128 13.631V20.0969C35.8128 25.8444 24.677 27.5507 18.9295 27.5507C10.4878 27.5507 2.0461 24.9464 2.0461 20.0969V13.631ZM18.9295 2.0461C28.0896 2.0461 35.8128 5.45869 35.8128 9.58972C35.8128 13.7208 28.0896 17.1333 18.9295 17.1333C9.76934 17.1333 2.0461 13.631 2.0461 9.58972C2.0461 5.5485 9.76934 2.0461 18.9295 2.0461ZM19.0193 38.8662C20.8154 38.8662 22.6115 38.7764 24.4076 38.507C24.1381 39.6744 23.9585 40.8419 23.9585 42.0093C23.9585 43.4462 24.1381 44.7933 24.5872 46.1404C22.7911 46.4098 20.9052 46.5894 19.0193 46.5894C9.85914 46.5894 2.13591 43.1768 2.13591 39.0458V33.6575C5.72811 37.5191 13.5411 38.8662 19.0193 38.8662ZM18.9295 55.9291C9.76934 55.9291 2.0461 52.5165 2.0461 48.3855V42.9972C5.00967 46.1404 11.3858 48.2957 18.9295 48.2957C21.0848 48.2957 23.1503 48.1161 25.126 47.7569C26.2037 50.2714 28.0896 52.4267 30.2449 53.9534C27.1915 55.2107 23.1503 55.9291 18.9295 55.9291ZM51.9777 41.0215C51.4389 41.0215 51.0797 41.3807 51.0797 41.9195C51.0797 48.9243 45.4219 54.5821 38.4171 54.5821C31.5022 54.5821 25.7546 49.0141 25.7546 41.9195C25.7546 40.4827 26.024 38.956 26.4731 37.6089C28.0896 33.1186 32.1308 29.8857 36.8905 29.3468C39.0458 29.0774 41.4705 29.3468 43.7156 30.4245L41.2011 32.939C39.7642 32.49 38.0579 32.4002 36.5312 32.6696C32.1308 33.5677 28.8978 37.4293 28.8978 41.9195C28.8978 47.1282 33.1186 51.3491 38.3273 51.3491C43.536 51.3491 47.7569 47.1282 47.7569 41.9195C47.7569 41.3807 47.3976 41.0215 46.8588 41.0215H44.7933C46.0506 39.6744 47.9365 37.8783 48.8345 36.8905C49.8224 37.8783 51.6185 39.6744 52.8758 41.0215H51.9777Z" fill="#FFAD00" stroke="#FFAD00" stroke-width="0.5"/>
</svg>
