<svg width="75" height="76" viewBox="0 0 75 76" fill="none" xmlns="http://www.w3.org/2000/svg">
<path d="M74.4521 34.9727V61.8633L51.1641 75.3096L27.875 61.8633V34.9727L51.1641 21.5264L74.4521 34.9727Z" fill="#FFAD00" fill-opacity="0.1"/>
<path d="M52.9656 0.25H4.61452C2.20775 0.25 0.25 2.20775 0.25 4.61452V41.3358C0.25 43.7426 2.20775 45.7003 4.61452 45.7003H20.7345L18.5702 51.0437H15.454C13.6759 51.0437 12.23 52.4896 12.23 54.2677C12.23 56.0459 13.6759 57.4917 15.454 57.4917H42.1081C43.8863 57.4917 45.3321 56.0459 45.3321 54.2677C45.3321 52.4896 43.8863 51.0437 42.1081 51.0437H38.9919L36.8276 45.7003H52.9476C55.3544 45.7003 57.3121 43.7426 57.3121 41.3358V4.61452C57.3301 2.20775 55.3723 0.25 52.9656 0.25ZM43.7785 54.2677C43.7785 55.1837 43.0331 55.9201 42.1261 55.9201H15.463C14.547 55.9201 13.8106 55.1748 13.8106 54.2677C13.8106 53.3607 14.5559 52.6153 15.463 52.6153H42.1171C43.0331 52.6153 43.7785 53.3607 43.7785 54.2677ZM37.3125 51.0437H20.2675L22.4318 45.7003H35.1393L37.3125 51.0437ZM55.7585 41.3358C55.7585 42.8805 54.5012 44.1287 52.9656 44.1287H4.61452C3.06988 44.1287 1.82159 42.8715 1.82159 41.3358V4.61452C1.82159 3.06988 3.07886 1.82159 4.61452 1.82159H52.9566C54.5012 1.82159 55.7495 3.07886 55.7495 4.61452V41.3358H55.7585Z" fill="#FFAD00" stroke="#FFAD00" stroke-width="0.5"/>
<path d="M52.966 3.82422H4.61499C4.18393 3.82422 3.82471 4.17446 3.82471 4.6145V35.9565C3.82471 36.3875 4.17495 36.7467 4.61499 36.7467H52.957C53.3881 36.7467 53.7473 36.3965 53.7473 35.9565V4.6145C53.7473 4.17446 53.3971 3.82422 52.966 3.82422ZM52.1757 35.1752H5.40528V5.39581H52.1757V35.1752Z" fill="#FFAD00" stroke="#FFAD00" stroke-width="0.5"/>
<path d="M28.7906 40.8147C29.2866 40.8147 29.6887 40.4126 29.6887 39.9166C29.6887 39.4206 29.2866 39.0186 28.7906 39.0186C28.2946 39.0186 27.8926 39.4206 27.8926 39.9166C27.8926 40.4126 28.2946 40.8147 28.7906 40.8147Z" fill="#FFAD00" stroke="#FFAD00" stroke-width="0.5"/>
<path d="M16.6298 25.8265C21.7038 25.8265 25.8348 21.6955 25.8348 16.6215C25.8348 11.5475 21.7038 7.4165 16.6298 7.4165C11.5558 7.4165 7.4248 11.5475 7.4248 16.6305C7.4248 21.7045 11.5558 25.8265 16.6298 25.8265ZM16.6298 24.2549C14.8068 24.2549 13.1364 23.6084 11.8253 22.5397L16.9621 17.4028H24.2273C23.8322 21.2555 20.5723 24.2549 16.6298 24.2549ZM24.2273 15.8402H17.4201V9.03299C21.0033 9.4012 23.8591 12.257 24.2273 15.8402ZM15.8485 9.03299V16.2982L10.7117 21.4351C9.64299 20.1239 8.99639 18.4446 8.99639 16.6305C8.99639 12.6791 12.0049 9.42814 15.8485 9.03299Z" fill="#FFAD00" stroke="#FFAD00" stroke-width="0.5"/>
<path d="M28.3508 33.1454H32.6615C33.0925 33.1454 33.4518 32.7951 33.4518 32.3551V24.1379C33.4518 23.7069 33.1015 23.3477 32.6615 23.3477H28.3508C27.9198 23.3477 27.5605 23.6979 27.5605 24.1379V32.3551C27.5605 32.7951 27.9108 33.1454 28.3508 33.1454ZM29.1321 24.9282H31.8712V31.5738H29.1321V24.9282Z" fill="#FFAD00" stroke="#FFAD00" stroke-width="0.5"/>
<path d="M40.5638 17.9683H36.2532C35.8221 17.9683 35.4629 18.3185 35.4629 18.7585V32.364C35.4629 32.7951 35.8131 33.1543 36.2532 33.1543H40.5638C40.9949 33.1543 41.3541 32.8041 41.3541 32.364V18.7496C41.3451 18.3185 40.9949 17.9683 40.5638 17.9683ZM39.7735 31.5737H37.0345V19.5398H39.7735V31.5737Z" fill="#FFAD00" stroke="#FFAD00" stroke-width="0.5"/>
<path d="M48.4662 26.0596H44.1555C43.7245 26.0596 43.3652 26.4098 43.3652 26.8499V32.3729C43.3652 32.8039 43.7155 33.1631 44.1555 33.1631H48.4662C48.8972 33.1631 49.2564 32.8129 49.2564 32.3729V26.8499C49.2564 26.4098 48.9062 26.0596 48.4662 26.0596ZM47.6849 31.5736H44.9458V27.6222H47.6849V31.5736Z" fill="#FFAD00" stroke="#FFAD00" stroke-width="0.5"/>
<path d="M8.21509 29.3735H22.5031C22.9341 29.3735 23.2934 29.0233 23.2934 28.5833C23.2934 28.1432 22.9431 27.793 22.5031 27.793H8.21509C7.78402 27.793 7.4248 28.1432 7.4248 28.5833C7.4248 29.0233 7.77504 29.3735 8.21509 29.3735Z" fill="#FFAD00" stroke="#FFAD00" stroke-width="0.5"/>
<path d="M8.21509 33.1455H16.6298C17.0609 33.1455 17.4201 32.7953 17.4201 32.3552C17.4201 31.9152 17.0699 31.5649 16.6298 31.5649H8.21509C7.78402 31.5649 7.4248 31.9152 7.4248 32.3552C7.4248 32.7953 7.77504 33.1455 8.21509 33.1455Z" fill="#FFAD00" stroke="#FFAD00" stroke-width="0.5"/>
<path d="M28.3505 19.5398C28.5481 19.5398 28.7547 19.4679 28.9073 19.3063L36.4599 11.7537L43.5994 18.8932C43.9048 19.1985 44.4077 19.1985 44.713 18.8932L48.9339 14.6723V15.2561C48.9339 15.6871 49.2841 16.0464 49.7241 16.0464C50.1642 16.0464 50.5144 15.6961 50.5144 15.2561V12.6427C50.5144 12.2117 50.1642 11.8525 49.7241 11.8525H47.1108C46.6798 11.8525 46.3205 12.2027 46.3205 12.6427C46.3205 13.0828 46.6708 13.433 47.1108 13.433H47.964L44.1652 17.2318L37.0257 10.0923C36.7204 9.78695 36.2175 9.78695 35.9121 10.0923L27.8027 18.2017C27.4974 18.507 27.4974 19.0099 27.8027 19.3153C27.9464 19.459 28.144 19.5398 28.3505 19.5398Z" fill="#FFAD00" stroke="#FFAD00" stroke-width="0.5"/>
</svg>
