<svg width="69" height="68" viewBox="0 0 69 68" fill="none" xmlns="http://www.w3.org/2000/svg">
<path d="M3.57666 53.1033C3.67725 53.678 4.22456 54.0623 4.7992 53.9617L13.4246 52.4528C13.9992 52.3523 14.3835 51.8049 14.2829 51.2303L14.1148 50.2672L16.1265 48.6336C16.9147 47.9769 17.9279 47.6535 18.9503 47.7303L33.0162 48.7584C33.0399 48.7605 33.0631 48.761 33.0869 48.7615H33.1735C36.2773 48.7548 39.2991 47.7659 41.8056 45.9352C41.8458 45.9058 41.884 45.8733 41.9201 45.8382L58.6736 29.434C59.0734 29.043 59.0986 28.4085 58.7324 27.9865C56.799 25.755 53.4543 25.4362 51.1346 27.2618L43.4393 33.016C41.8391 31.0687 39.3156 30.1324 36.8329 30.5647L28.9668 31.9404C27.7134 32.1581 26.4274 32.0911 25.2033 31.7444L24.3238 31.4932C19.8035 30.1948 14.9334 31.2059 11.3029 34.1962L10.9717 32.302C10.8712 31.7274 10.3239 31.3431 9.74921 31.4437L1.12435 32.9525C0.549708 33.0536 0.165406 33.6009 0.265995 34.1756L3.57666 53.1033ZM23.746 33.5261L24.6255 33.7768C26.156 34.2107 27.7639 34.2942 29.331 34.0224L37.1971 32.6466C39.4508 32.2551 41.6746 33.4787 42.55 35.5921L30.7743 37.6518C30.2337 37.7457 29.8551 38.2373 29.9026 38.7836C29.9495 39.3299 30.4066 39.7492 30.9549 39.7492C31.0163 39.7492 31.0777 39.7441 31.1385 39.7332L44.0681 37.4718C44.6427 37.3707 45.027 36.8234 44.9264 36.2487C44.8424 35.7675 44.7077 35.296 44.5251 34.8426L52.4102 28.9465C52.4175 28.9408 52.4247 28.9352 52.4319 28.9295C53.5709 28.0288 55.1545 27.9453 56.3817 28.7216L40.4964 44.2799C38.3639 45.8191 35.8028 46.6512 33.173 46.6579H33.1333L19.1035 45.6283C17.5405 45.5096 15.9924 46.0023 14.7859 47.003L13.6974 47.8856L11.7336 36.6578C14.8653 33.4988 19.4702 32.2984 23.746 33.5261ZM9.07294 33.7072L12.0199 50.5535L5.47598 51.6987L2.52899 34.8524L9.07294 33.7072Z" fill="#FFAD00" stroke="#FFAD00" stroke-width="0.5"/>
<path d="M32.2615 28.9411C40.1843 28.9411 46.6071 22.5188 46.6071 14.596C46.6071 6.67325 40.1849 0.250516 32.2621 0.25C24.3393 0.25 17.9165 6.67273 17.916 14.5955C17.9248 22.5147 24.3424 28.9323 32.2615 28.9411ZM32.2615 2.36288C39.0175 2.36288 44.4942 7.84008 44.4942 14.596C44.4942 21.352 39.0175 26.8287 32.2615 26.8282C25.5056 26.8282 20.0289 21.3515 20.0289 14.5955C20.0366 7.84266 25.5092 2.37062 32.2615 2.36288Z" fill="#FFAD00" stroke="#FFAD00" stroke-width="0.5"/>
<path d="M31.5222 16.8138H37.4327C38.0161 16.8138 38.4891 16.3408 38.4891 15.7574C38.4891 15.174 38.0161 14.701 37.4327 14.701H32.5255V7.94707C32.5255 7.36314 32.0525 6.89062 31.469 6.89062C30.8856 6.89062 30.4126 7.36314 30.4126 7.94707V15.7048C30.4337 16.3083 30.9181 16.7932 31.5222 16.8138Z" fill="#FFAD00" stroke="#FFAD00" stroke-width="0.5"/>
<path d="M68.1484 26.9136V53.8042L44.8604 67.2505L21.5713 53.8042V26.9136L44.8604 13.4673L68.1484 26.9136Z" fill="#FFAD00" fill-opacity="0.1"/>
</svg>
