<svg width="291" height="269" viewBox="0 0 291 269" fill="none" xmlns="http://www.w3.org/2000/svg">
<path d="M290.271 61.1602L290.271 183.473L184.344 244.63L78.4165 183.473L78.4165 61.1602L184.344 1.25225e-06L290.271 61.1602Z" fill="#FFAD00" fill-opacity="0.1"/>
<path d="M7.71875 205.231V209.368C7.71875 216.172 13.2859 221.707 20.1266 221.707H225.769C232.609 221.707 238.176 216.172 238.176 209.368V205.231H7.71875Z" fill="white"/>
<path d="M122.95 48.1714C109.1 56.7718 93.3635 62.3068 76.0928 64.6563C77.9308 86.6329 83.469 105.852 92.5675 121.822C98.2022 131.715 107.986 145.034 122.946 153.336C137.905 145.029 147.689 131.715 153.329 121.822C162.432 105.852 167.965 86.6329 169.803 64.6563C152.537 62.302 136.806 56.767 122.95 48.1714Z" fill="#F9AF38"/>
<path d="M225.764 50.1173H192.081C192.086 49.5119 192.096 48.9065 192.096 48.2963C192.096 46.1919 190.393 44.4766 188.28 44.4526C163.488 44.1835 142.324 37.1446 125.377 23.5282C123.963 22.3943 121.942 22.3943 120.528 23.5282C103.581 37.1446 82.417 44.1835 57.6253 44.4526C55.5123 44.4766 53.8093 46.1919 53.8093 48.2963C53.8093 48.9065 53.819 49.5119 53.8238 50.1173H20.1266C9.03094 50.1173 0 59.1069 0 70.1529V209.369C0 220.41 9.02611 229.395 20.1266 229.395H100.517L98.5781 246.937C97.8303 253.702 93.2136 260.985 84.8484 260.985H67.2689C65.1366 260.985 63.4095 262.706 63.4095 264.829C63.4095 266.953 65.1366 268.673 67.2689 268.673H178.626C180.759 268.673 182.486 266.953 182.486 264.829C182.486 262.706 180.759 260.985 178.626 260.985H161.057C152.687 260.985 148.075 253.702 147.327 246.937L145.387 229.395H225.764C236.859 229.395 245.89 220.41 245.89 209.369V70.1529C245.89 59.1069 236.864 50.1173 225.764 50.1173ZM122.95 31.3934C139.941 44.2027 160.564 51.1359 184.343 52.044C183.233 118.973 152.373 156.008 122.95 168.74C93.5223 156.008 62.6666 118.973 61.557 52.044C85.3404 51.1359 105.964 44.2027 122.95 31.3934ZM20.1266 57.8048H54.0168C55.247 86.1525 62.0105 111.795 73.7623 132.436C85.7119 153.413 102.216 168.644 121.493 176.476C121.961 176.668 122.453 176.759 122.95 176.759C123.447 176.759 123.939 176.663 124.407 176.476C143.685 168.644 160.193 153.418 172.138 132.436C183.89 111.8 190.653 86.1573 191.883 57.8048H225.764C232.605 57.8048 238.172 63.3446 238.172 70.1529V197.544H7.71875V70.1529C7.71875 63.3446 13.2811 57.8048 20.1266 57.8048ZM139.651 247.777C140.221 252.918 142.175 257.459 145.079 260.985H100.821C103.726 257.459 105.679 252.918 106.249 247.777L108.28 229.395H137.62L139.651 247.777ZM225.764 221.707H20.1266C13.2859 221.707 7.71875 216.172 7.71875 209.369V205.232H238.176V209.369C238.172 216.172 232.609 221.707 225.764 221.707ZM129.96 213.472C129.96 215.596 128.233 217.316 126.1 217.316H119.8C117.668 217.316 115.94 215.596 115.94 213.472C115.94 211.348 117.668 209.628 119.8 209.628H126.1C128.233 209.628 129.96 211.348 129.96 213.472ZM121.18 161.115C121.734 161.399 122.342 161.543 122.95 161.543C123.558 161.543 124.166 161.399 124.721 161.115C138.691 153.932 150.902 141.656 160.043 125.618C170.223 107.754 176.19 86.1957 177.777 61.5332C177.908 59.4816 176.398 57.6895 174.342 57.4685C155.943 55.4649 139.362 49.7233 125.068 40.3926C123.785 39.5566 122.125 39.5566 120.837 40.3926C106.543 49.7233 89.962 55.4649 71.5576 57.4637C69.5073 57.6847 67.9925 59.4768 68.1228 61.5284C69.71 86.1861 75.6775 107.75 85.8566 125.613C94.9985 141.656 107.213 153.927 121.18 161.115ZM76.0972 64.6563C93.3679 62.302 109.105 56.7718 122.955 48.1714C136.805 56.7718 152.542 62.3068 169.812 64.6563C167.974 86.6329 162.436 105.852 153.338 121.822C147.698 131.715 137.915 145.034 122.955 153.336C107.995 145.029 98.2114 131.715 92.5768 121.822C83.4686 105.847 77.9353 86.6329 76.0972 64.6563ZM114.155 112.761L100.45 99.644C98.911 98.1738 98.8627 95.7378 100.339 94.2099C101.815 92.682 104.256 92.6292 105.795 94.0994L116.65 104.482L139.926 79.1184C141.364 77.5521 143.805 77.4416 145.378 78.8734C146.951 80.3052 147.061 82.7363 145.624 84.3027L119.679 112.578C118.975 113.342 117.996 113.794 116.954 113.827C116.91 113.827 116.872 113.827 116.828 113.827C115.834 113.832 114.879 113.453 114.155 112.761Z" fill="black"/>
<path d="M122.951 168.74C152.378 156.007 183.234 118.973 184.344 52.0436C160.565 51.1355 139.942 44.2024 122.951 31.3931C105.96 44.2024 85.3362 51.1355 61.5576 52.0436C62.672 118.973 93.5277 156.007 122.951 168.74ZM68.1234 61.5329C67.9931 59.4813 69.5031 57.6891 71.5582 57.4681C89.9626 55.4694 106.539 49.7229 120.838 40.3971C122.121 39.5562 123.785 39.561 125.068 40.3971C139.367 49.7278 155.943 55.4694 174.348 57.4681C176.398 57.6891 177.913 59.4813 177.783 61.5329C176.196 86.1905 170.228 107.754 160.049 125.618C150.907 141.656 138.692 153.932 124.726 161.115C124.171 161.398 123.563 161.542 122.955 161.542C122.348 161.542 121.74 161.398 121.185 161.115C107.214 153.932 94.9991 141.656 85.862 125.618C75.6781 107.754 69.7154 86.1905 68.1234 61.5329Z" fill="#FFAD00"/>
<path d="M238.172 70.1527C238.172 63.3445 232.605 57.8047 225.764 57.8047H191.883C190.653 86.1523 183.89 111.795 172.138 132.436C160.188 153.413 143.685 168.644 124.407 176.476C123.939 176.668 123.447 176.759 122.95 176.759C122.453 176.759 121.961 176.663 121.493 176.476C102.216 168.644 85.7071 153.418 73.7623 132.436C62.0105 111.8 55.247 86.1571 54.0168 57.8047H20.1266C13.2859 57.8047 7.71875 63.3445 7.71875 70.1527V197.544H238.176V70.1527H238.172Z" fill="#05164D"/>
<path d="M29.7751 57.8047H20.1266C13.2859 57.8047 7.71875 63.3445 7.71875 70.1527V197.544H17.3672V70.1527C17.3672 63.3445 22.9295 57.8047 29.7751 57.8047Z" fill="#05164D"/>
<path d="M17.3672 209.368V205.231H7.71875V209.368C7.71875 216.172 13.2859 221.707 20.1266 221.707H29.7751C22.9295 221.707 17.3672 216.172 17.3672 209.368Z" fill="white"/>
<path d="M137.621 229.395H108.281L106.25 247.777C105.68 252.918 103.726 257.459 100.822 260.985H145.08C142.175 257.459 140.222 252.918 139.652 247.777L137.621 229.395Z" fill="white"/>
</svg>
