<svg width="72" height="71" viewBox="0 0 72 71" fill="none" xmlns="http://www.w3.org/2000/svg">
<path d="M71.1606 29.8242V56.7148L47.8726 70.1611L24.5835 56.7148V29.8242L47.8726 16.3779L71.1606 29.8242Z" fill="#FFAD00" fill-opacity="0.1"/>
<path d="M18.7725 16.9219H29.8858V18.7741H18.7725V16.9219Z" fill="#FFAD00" stroke="#FFAD00" stroke-width="0.5"/>
<path d="M31.7383 16.9219H33.5905V18.7741H31.7383V16.9219Z" fill="#FFAD00" stroke="#FFAD00" stroke-width="0.5"/>
<path d="M35.4419 16.9219H37.2941V18.7741H35.4419V16.9219Z" fill="#FFAD00" stroke="#FFAD00" stroke-width="0.5"/>
<path d="M18.7725 24.3306H29.8858V26.1828H18.7725V24.3306Z" fill="#FFAD00" stroke="#FFAD00" stroke-width="0.5"/>
<path d="M31.7383 24.3306H33.5905V26.1828H31.7383V24.3306Z" fill="#FFAD00" stroke="#FFAD00" stroke-width="0.5"/>
<path d="M35.4419 24.3306H37.2941V26.1828H35.4419V24.3306Z" fill="#FFAD00" stroke="#FFAD00" stroke-width="0.5"/>
<path d="M18.7725 31.7397H29.8858V33.592H18.7725V31.7397Z" fill="#FFAD00" stroke="#FFAD00" stroke-width="0.5"/>
<path d="M31.7383 31.7397H33.5905V33.592H31.7383V31.7397Z" fill="#FFAD00" stroke="#FFAD00" stroke-width="0.5"/>
<path d="M35.4419 31.7397H37.2941V33.592H35.4419V31.7397Z" fill="#FFAD00" stroke="#FFAD00" stroke-width="0.5"/>
<path d="M52.1124 38.2224C51.2914 38.2234 50.4939 38.4967 49.8448 38.9995C49.1956 39.5022 48.7316 40.206 48.5252 41.0007H38.2207V37.2963C38.9573 37.2954 39.6635 37.0024 40.1843 36.4816C40.7052 35.9607 40.9982 35.2545 40.999 34.5179V31.7396H46.5557C47.8352 31.7386 49.1006 31.4726 50.2721 30.9582C51.4436 30.4439 52.4959 29.6923 53.3624 28.751C54.229 27.8097 54.8912 26.6991 55.3071 25.4891C55.723 24.2791 55.8838 22.9961 55.7791 21.7209C55.6744 20.4457 55.3067 19.2061 54.6991 18.0801C54.0914 16.9542 53.257 15.9663 52.2486 15.1789C51.2401 14.3915 50.0794 13.8215 48.8397 13.5051C47.6 13.1886 46.3082 13.1324 45.0457 13.3401C44.1397 9.92249 42.2254 6.85696 39.5522 4.54294C36.8789 2.22892 33.5707 0.773709 30.0585 0.3669C26.5463 -0.0399093 22.993 0.620549 19.8616 2.26222C16.7302 3.90389 14.1658 6.45067 12.5026 9.57071C12.1241 9.53218 11.7439 9.51286 11.3634 9.51283C8.41592 9.51283 5.58919 10.6837 3.50503 12.7679C1.42087 14.852 0.25 17.6788 0.25 20.6262C0.25 23.5737 1.42087 26.4004 3.50503 28.4845C5.58919 30.5687 8.41592 31.7396 11.3634 31.7396H15.0678V34.5179C15.0687 35.2545 15.3617 35.9607 15.8825 36.4816C16.4034 37.0024 17.1096 37.2954 17.8462 37.2963V41.0007H7.54165C7.31624 40.1277 6.78017 39.3669 6.03393 38.8608C5.28768 38.3548 4.3825 38.1383 3.48804 38.2519C2.59359 38.3655 1.77127 38.8014 1.17524 39.478C0.579201 40.1545 0.250363 41.0252 0.250363 41.9268C0.250363 42.8285 0.579201 43.6992 1.17524 44.3757C1.77127 45.0522 2.59359 45.4882 3.48804 45.6018C4.3825 45.7154 5.28768 45.4989 6.03393 44.9928C6.78017 44.4868 7.31624 43.726 7.54165 42.8529H18.7723C19.0179 42.8529 19.2535 42.7554 19.4272 42.5817C19.6008 42.408 19.6984 42.1725 19.6984 41.9268V37.2963H21.5506V44.7052H14.1417C13.8961 44.7052 13.6605 44.8027 13.4869 44.9764C13.3132 45.1501 13.2156 45.3857 13.2156 45.6313V48.5269C12.3426 48.7523 11.5818 49.2884 11.0757 50.0346C10.5697 50.7809 10.3532 51.6861 10.4668 52.5805C10.5804 53.475 11.0163 54.2973 11.6929 54.8933C12.3694 55.4893 13.2401 55.8182 14.1417 55.8182C15.0434 55.8182 15.914 55.4893 16.5906 54.8933C17.2671 54.2973 17.703 53.475 17.8167 52.5805C17.9303 51.6861 17.7138 50.7809 17.2077 50.0346C16.7017 49.2884 15.9408 48.7523 15.0678 48.5269V46.5574H22.4767C22.7224 46.5574 22.9579 46.4598 23.1316 46.2862C23.3053 46.1125 23.4029 45.8769 23.4029 45.6313V37.2963H27.1073V46.6747C26.2343 46.9001 25.4735 47.4362 24.9674 48.1824C24.4614 48.9286 24.2449 49.8338 24.3585 50.7283C24.4721 51.6227 24.908 52.445 25.5846 53.0411C26.2611 53.6371 27.1318 53.966 28.0334 53.966C28.9351 53.966 29.8058 53.6371 30.4823 53.0411C31.1588 52.445 31.5948 51.6227 31.7084 50.7283C31.822 49.8338 31.6055 48.9286 31.0994 48.1824C30.5934 47.4362 29.8326 46.9001 28.9595 46.6747V37.2963H32.664V45.6313C32.664 45.8769 32.7616 46.1125 32.9353 46.2862C33.1089 46.4598 33.3445 46.5574 33.5901 46.5574H40.999V48.5269C40.126 48.7523 39.3652 49.2884 38.8592 50.0346C38.3531 50.7809 38.1366 51.6861 38.2502 52.5805C38.3638 53.475 38.7998 54.2973 39.4763 54.8933C40.1528 55.4893 41.0235 55.8182 41.9252 55.8182C42.8268 55.8182 43.6975 55.4893 44.374 54.8933C45.0505 54.2973 45.4865 53.475 45.6001 52.5805C45.7137 51.6861 45.4972 50.7809 44.9911 50.0346C44.4851 49.2884 43.7243 48.7523 42.8513 48.5269V45.6313C42.8513 45.3857 42.7537 45.1501 42.58 44.9764C42.4063 44.8027 42.1708 44.7052 41.9252 44.7052H34.5162V37.2963H36.3685V41.9268C36.3685 42.1725 36.466 42.408 36.6397 42.5817C36.8134 42.7554 37.049 42.8529 37.2946 42.8529H48.5252C48.6984 43.5238 49.0563 44.1326 49.5582 44.6103C50.0601 45.0879 50.6858 45.4152 51.3644 45.5551C52.043 45.6949 52.7472 45.6416 53.397 45.4013C54.0469 45.161 54.6163 44.7432 55.0406 44.1955C55.4649 43.6478 55.7271 42.992 55.7974 42.3028C55.8677 41.6135 55.7433 40.9183 55.4383 40.2962C55.1333 39.6741 54.66 39.15 54.0721 38.7834C53.4842 38.4168 52.8053 38.2224 52.1124 38.2224ZM3.95446 43.7791C3.58812 43.7791 3.23001 43.6704 2.92541 43.4669C2.62082 43.2634 2.38341 42.9741 2.24322 42.6357C2.10303 42.2972 2.06635 41.9248 2.13782 41.5655C2.20929 41.2062 2.3857 40.8761 2.64473 40.6171C2.90377 40.3581 3.23381 40.1817 3.59311 40.1102C3.9524 40.0387 4.32482 40.0754 4.66328 40.2156C5.00173 40.3558 5.291 40.5932 5.49453 40.8978C5.69806 41.2024 5.80669 41.5605 5.80669 41.9268C5.8061 42.4179 5.61077 42.8887 5.26354 43.2359C4.9163 43.5831 4.44552 43.7785 3.95446 43.7791ZM15.9939 52.1141C15.9939 52.4804 15.8853 52.8385 15.6818 53.1431C15.4783 53.4477 15.189 53.6851 14.8505 53.8253C14.5121 53.9655 14.1397 54.0022 13.7804 53.9307C13.4211 53.8593 13.091 53.6829 12.832 53.4238C12.573 53.1648 12.3965 52.8347 12.3251 52.4754C12.2536 52.1161 12.2903 51.7437 12.4305 51.4053C12.5707 51.0668 12.8081 50.7775 13.1127 50.574C13.4173 50.3705 13.7754 50.2619 14.1417 50.2619C14.6328 50.2624 15.1036 50.4578 15.4508 50.805C15.798 51.1522 15.9934 51.623 15.9939 52.1141ZM29.8857 50.2619C29.8857 50.6282 29.777 50.9863 29.5735 51.2909C29.37 51.5955 29.0807 51.8329 28.7423 51.9731C28.4038 52.1133 28.0314 52.15 27.6721 52.0785C27.3128 52.007 26.9827 51.8306 26.7237 51.5716C26.4647 51.3125 26.2883 50.9825 26.2168 50.6232C26.1453 50.2639 26.182 49.8915 26.3222 49.553C26.4624 49.2146 26.6998 48.9253 27.0044 48.7218C27.309 48.5183 27.6671 48.4096 28.0334 48.4096C28.5245 48.4102 28.9953 48.6055 29.3425 48.9528C29.6898 49.3 29.8851 49.7708 29.8857 50.2619ZM43.7774 52.1141C43.7774 52.4804 43.6688 52.8385 43.4652 53.1431C43.2617 53.4477 42.9724 53.6851 42.634 53.8253C42.2955 53.9655 41.9231 54.0022 41.5638 53.9307C41.2045 53.8593 40.8745 53.6829 40.6154 53.4238C40.3564 53.1648 40.18 52.8347 40.1085 52.4754C40.037 52.1161 40.0737 51.7437 40.2139 51.4053C40.3541 51.0668 40.5915 50.7775 40.8961 50.574C41.2007 50.3705 41.5588 50.2619 41.9252 50.2619C42.4162 50.2624 42.887 50.4578 43.2342 50.805C43.5815 51.1522 43.7768 51.623 43.7774 52.1141ZM16.9201 19.7001V15.9956C16.9203 15.7501 17.018 15.5147 17.1916 15.3411C17.3652 15.1675 17.6006 15.0698 17.8462 15.0695H38.2207C38.4662 15.0698 38.7016 15.1675 38.8753 15.3411C39.0489 15.5147 39.1465 15.7501 39.1468 15.9956V19.7001C39.1465 19.9456 39.0489 20.181 38.8753 20.3546C38.7016 20.5283 38.4662 20.6259 38.2207 20.6262H17.8462C17.6006 20.6259 17.3652 20.5283 17.1916 20.3546C17.018 20.181 16.9203 19.9456 16.9201 19.7001ZM16.9201 27.109V23.4045C16.9203 23.159 17.018 22.9236 17.1916 22.75C17.3652 22.5764 17.6006 22.4787 17.8462 22.4784H38.2207C38.4662 22.4787 38.7016 22.5764 38.8753 22.75C39.0489 22.9236 39.1465 23.159 39.1468 23.4045V27.109C39.1465 27.3545 39.0489 27.5899 38.8753 27.7636C38.7016 27.9372 38.4662 28.0348 38.2207 28.0351H17.8462C17.6006 28.0348 17.3652 27.9372 17.1916 27.7636C17.018 27.5899 16.9203 27.3545 16.9201 27.109ZM2.10223 20.6262C2.10502 18.1708 3.08164 15.8169 4.81783 14.0807C6.55403 12.3445 8.90802 11.3678 11.3634 11.3651C11.8714 11.3649 12.3786 11.4061 12.8799 11.4882C13.0769 11.5209 13.2792 11.4889 13.4565 11.3971C13.6339 11.3053 13.7768 11.1586 13.8639 10.9789C15.298 8.02238 17.621 5.58854 20.5074 4.01826C23.3939 2.44799 26.6992 1.81996 29.9605 2.22213C33.2217 2.6243 36.2755 4.03653 38.694 6.261C41.1125 8.48547 42.7746 11.4107 43.4475 14.6271C43.4732 14.751 43.5241 14.8684 43.597 14.9719C43.6699 15.0755 43.7633 15.1629 43.8713 15.229C43.9794 15.295 44.0998 15.3381 44.2252 15.3558C44.3506 15.3734 44.4783 15.3651 44.6003 15.3315C45.6191 15.0531 46.6855 14.9958 47.7282 15.1633C48.7709 15.3308 49.7657 15.7192 50.646 16.3026C51.5263 16.886 52.2717 17.6509 52.8322 18.5459C53.3927 19.4409 53.7555 20.4454 53.8961 21.492C54.0367 22.5387 53.9519 23.6033 53.6474 24.6145C53.343 25.6257 52.8258 26.5601 52.1307 27.3551C51.4356 28.1502 50.5786 28.7874 49.6171 29.2241C48.6555 29.6608 47.6118 29.887 46.5557 29.8873H40.8397C40.7184 29.5457 40.5314 29.2311 40.2893 28.9612C40.7467 28.4528 40.9995 27.7929 40.999 27.109V23.4045C40.9995 22.7206 40.7467 22.0608 40.2893 21.5523C40.7467 21.0438 40.9995 20.384 40.999 19.7001V15.9956C40.9982 15.259 40.7052 14.5528 40.1843 14.032C39.6635 13.5111 38.9573 13.2181 38.2207 13.2173H17.8462C17.1096 13.2181 16.4034 13.5111 15.8825 14.032C15.3617 14.5528 15.0687 15.259 15.0678 15.9956V19.7001C15.0674 20.384 15.3202 21.0438 15.7776 21.5523C15.3202 22.0608 15.0674 22.7206 15.0678 23.4045V27.109C15.0674 27.7929 15.3202 28.4528 15.7776 28.9612C15.5355 29.2311 15.3485 29.5457 15.2271 29.8873H11.3634C8.90802 29.8846 6.55403 28.9079 4.81783 27.1717C3.08164 25.4355 2.10502 23.0816 2.10223 20.6262ZM16.9201 34.5179V30.8135C16.9203 30.5679 17.018 30.3325 17.1916 30.1589C17.3652 29.9853 17.6006 29.8876 17.8462 29.8873H38.2207C38.4662 29.8876 38.7016 29.9853 38.8753 30.1589C39.0489 30.3325 39.1465 30.5679 39.1468 30.8135V34.5179C39.1465 34.7635 39.0489 34.9989 38.8753 35.1725C38.7016 35.3461 38.4662 35.4438 38.2207 35.444H17.8462C17.6006 35.4438 17.3652 35.3461 17.1916 35.1725C17.018 34.9989 16.9203 34.7635 16.9201 34.5179ZM52.1124 43.7791C51.7461 43.7791 51.388 43.6704 51.0834 43.4669C50.7788 43.2634 50.5414 42.9741 50.4012 42.6357C50.261 42.2972 50.2243 41.9248 50.2958 41.5655C50.3672 41.2062 50.5436 40.8761 50.8027 40.6171C51.0617 40.3581 51.3918 40.1817 51.7511 40.1102C52.1104 40.0387 52.4828 40.0754 52.8212 40.2156C53.1597 40.3558 53.449 40.5932 53.6525 40.8978C53.856 41.2024 53.9646 41.5605 53.9646 41.9268C53.9641 42.4179 53.7687 42.8887 53.4215 43.2359C53.0743 43.5831 52.6035 43.7785 52.1124 43.7791Z" fill="#FFAD00" stroke="#FFAD00" stroke-width="0.5"/>
</svg>
