<svg width="26" height="26" viewBox="0 0 26 26" fill="none" xmlns="http://www.w3.org/2000/svg">
<path d="M12.9097 0.499419C13.7372 0.499419 14.4064 1.16909 14.4067 1.9965V11.4126L23.816 11.4195C24.6432 11.42 25.3116 12.0892 25.3117 12.9166C25.3117 13.7301 24.6357 14.4061 23.8222 14.4061H14.4061V23.8222C14.406 24.6499 13.7373 25.3186 12.9097 25.3186C12.082 25.3186 11.4133 24.6499 11.4133 23.8222V14.4061H1.99716C1.16947 14.4061 0.500083 13.7367 0.500082 12.909C0.500418 12.0818 1.1693 11.413 1.99647 11.4126H11.4126V1.9965C11.4129 1.16909 12.0822 0.499419 12.9097 0.499419Z" fill="#FFAD00" stroke="#FFAD00"/>
</svg>
