<svg width="381" height="400" viewBox="0 0 381 400" fill="none" xmlns="http://www.w3.org/2000/svg">
<path d="M314.671 126.347L314.671 248.659L208.744 309.816L102.817 248.659L102.817 126.347L208.744 65.1865L314.671 126.347Z" fill="#FFAD00" fill-opacity="0.1"/>
<path d="M217.242 130.775L213.212 116.107L136.857 111.466L23.5905 251.024L34.9794 260.265L118.038 327.683L120.204 329.434L220.368 206.009L233.472 189.871L217.242 130.775ZM197.248 151.828C193.731 156.161 187.361 156.826 183.028 153.303C178.683 149.782 178.024 143.414 181.541 139.08C185.06 134.74 191.43 134.076 195.776 137.596C200.108 141.119 200.767 147.487 197.248 151.828Z" fill="#05164D"/>
<path d="M217.242 130.775L145.068 126.863L34.979 260.265L23.5907 251.024L136.857 111.466L213.212 116.107L217.242 130.775Z" fill="#05164D"/>
<path d="M220.371 206.012L120.203 329.435L118.041 327.682C110.905 309.628 109.505 289.151 115.394 269.076C128.739 223.576 174.734 196.54 220.371 206.012Z" fill="#05164D"/>
<path d="M200.485 192.078L190.049 204.939L119.123 292.328L112.076 286.607L60.1204 244.443L141.483 144.192L200.485 192.078Z" fill="white"/>
<path d="M181.821 363.656C220.008 374.856 260.045 352.979 271.245 314.792C282.446 276.605 260.569 236.569 222.382 225.368C184.195 214.167 144.158 236.044 132.957 274.231C121.757 312.418 143.634 352.455 181.821 363.656Z" fill="#FFAD00"/>
<path d="M188.283 341.617C214.299 349.248 241.576 334.344 249.207 308.327C256.837 282.311 241.933 255.035 215.917 247.404C189.901 239.773 162.624 254.678 154.993 280.694C147.363 306.71 162.267 333.986 188.283 341.617Z" fill="#FFAD00"/>
<path d="M191.682 330.033C211.3 335.788 231.869 324.549 237.623 304.93C243.378 285.311 232.138 264.743 212.52 258.988C192.901 253.234 172.332 264.473 166.578 284.092C160.824 303.71 172.063 324.279 191.682 330.033Z" fill="#FFAD00"/>
<path d="M44.0964 225.762C44.5849 226.159 45.13 226.438 45.6986 226.605C47.425 227.111 49.3632 226.573 50.5677 225.089L138.942 116.198L186.688 119.102C185.329 124.603 184.376 129.108 183.832 131.832C181.568 132.754 179.558 134.229 177.975 136.178C175.498 139.231 174.357 143.064 174.764 146.973C175.17 150.881 177.075 154.399 180.128 156.876C181.686 158.141 183.425 159.033 185.24 159.565C190.764 161.185 196.977 159.465 200.826 154.723C203.3 151.673 204.44 147.841 204.035 143.932C203.629 140.021 201.725 136.503 198.673 134.026C197.078 132.731 195.268 131.806 193.347 131.272C193.964 128.346 194.864 124.32 196.039 119.671L209.651 120.499L213.565 134.751C213.567 134.759 213.569 134.767 213.571 134.775L221.673 164.276C222.346 166.725 224.876 168.167 227.328 167.494C229.778 166.821 231.218 164.289 230.545 161.839L223.177 135.01C249.339 109.38 253.392 82.7941 245.588 67.5092C240.953 58.43 232.447 53.8761 223.39 55.6272C211.61 57.9042 201.59 71.7849 192.757 98.0635C191.382 102.155 190.157 106.202 189.081 110.031L137.14 106.871C135.659 106.781 134.224 107.411 133.288 108.564L43.4233 219.291C41.8226 221.264 42.1241 224.161 44.0964 225.762ZM194.881 144.882C195.033 146.347 194.607 147.783 193.68 148.925C191.764 151.284 188.286 151.645 185.926 149.731C184.782 148.803 184.067 147.485 183.916 146.021C183.763 144.558 184.191 143.121 185.12 141.977C186.047 140.835 187.364 140.122 188.829 139.969C189.556 139.893 190.275 139.96 190.954 140.159C191.646 140.362 192.298 140.703 192.874 141.171C194.016 142.099 194.73 143.416 194.881 144.882ZM201.509 100.905C208.864 79.0565 217.255 66.1846 225.136 64.6614C230.15 63.6919 234.618 66.2558 237.393 71.6931C240.546 77.8694 240.795 86.6369 238.075 95.7483C235.191 105.412 229.109 115.322 220.354 124.73L217.651 114.889C217.129 112.991 215.458 111.634 213.494 111.515L198.488 110.602C199.398 107.451 200.405 104.183 201.509 100.905Z" fill="black"/>
<path d="M137.069 215.89L131.235 211.154C130.148 210.272 129.468 209.018 129.323 207.624C129.178 206.231 129.585 204.864 130.468 203.776C131.351 202.688 132.604 202.009 133.998 201.864C135.391 201.72 136.758 202.126 137.846 203.009L140.763 205.377L140.764 205.377L147.303 210.683C147.426 210.784 147.498 210.916 147.515 211.075C147.531 211.234 147.488 211.377 147.388 211.501C145.787 213.474 146.088 216.371 148.061 217.972C150.034 219.573 152.931 219.273 154.532 217.3C156.179 215.27 156.937 212.722 156.666 210.122C156.396 207.523 155.129 205.184 153.1 203.538L150.134 201.131L154.636 195.583C156.237 193.61 155.935 190.713 153.963 189.112C151.991 187.512 149.093 187.812 147.492 189.785L142.964 195.364C140.086 193.29 136.602 192.342 133.046 192.712C129.208 193.111 125.755 194.982 123.324 197.977C120.892 200.974 119.772 204.738 120.172 208.576C120.571 212.414 122.441 215.867 125.438 218.298L131.272 223.033C132.36 223.916 133.039 225.17 133.184 226.564C133.329 227.957 132.922 229.324 132.04 230.411C130.217 232.658 126.908 233.002 124.661 231.179L121.745 228.812C121.744 228.812 121.745 228.812 121.745 228.812C121.744 228.811 121.744 228.811 121.744 228.811L115.206 223.505C115.081 223.404 115.01 223.272 114.994 223.114C114.978 222.955 115.02 222.811 115.12 222.687C116.722 220.714 116.42 217.816 114.448 216.216C112.477 214.614 109.578 214.915 107.977 216.888C106.33 218.917 105.572 221.466 105.842 224.065C106.113 226.664 107.379 229.002 109.408 230.649L112.375 233.057L107.873 238.604C106.272 240.577 106.573 243.474 108.546 245.075C109.034 245.471 109.579 245.751 110.148 245.918C111.875 246.424 113.813 245.886 115.017 244.401L119.536 238.834C120.888 239.807 122.358 240.515 123.883 240.963C129.306 242.553 135.407 240.865 139.185 236.209C144.202 230.026 143.255 220.91 137.069 215.89Z" fill="black"/>
<path d="M223.678 220.952C221.025 220.174 218.362 219.55 215.699 219.068L237.042 192.773C237.978 191.621 238.3 190.088 237.907 188.656L235.261 179.02C234.588 176.57 232.057 175.129 229.606 175.802C227.156 176.475 225.715 179.006 226.388 181.456L228.408 188.812L204.802 217.895C197.595 217.642 190.484 218.422 183.654 220.129L204.061 194.984C205.662 193.011 205.361 190.114 203.388 188.513L144.387 140.626C143.439 139.856 142.226 139.496 141.012 139.622C139.798 139.748 138.685 140.351 137.915 141.298L56.5548 241.544C54.9533 243.516 55.2548 246.414 57.2273 248.014L116.228 295.902C116.717 296.298 117.262 296.579 117.831 296.745C119.557 297.252 121.495 296.713 122.7 295.23L125.486 291.796C125.233 298.985 126.007 306.08 127.703 312.895L119.531 322.963L30.0631 250.358L40.0759 238.022C41.6774 236.049 41.3759 233.152 39.4035 231.551C37.4325 229.949 34.5332 230.251 32.9325 232.223L20.0201 248.132C19.2507 249.079 18.89 250.293 19.0162 251.506C19.1421 252.72 19.7455 253.834 20.693 254.603L117.306 333.007C117.795 333.403 118.34 333.683 118.908 333.849C120.634 334.356 122.573 333.818 123.777 332.334L131.1 323.312C139.611 344.233 157.221 361.233 180.527 368.068C221.088 379.965 263.764 356.646 275.661 316.085C287.558 275.525 264.238 232.849 223.678 220.952ZM118.455 285.858L66.598 243.769L142.161 150.668L194.018 192.757L166.493 226.672C148.734 235.998 134.622 252.214 128.544 272.935C128.471 273.187 128.405 273.438 128.334 273.689L118.455 285.858ZM183.117 359.24C147.979 348.933 127.545 312.375 136.909 277.186C136.925 277.135 136.938 277.084 136.952 277.032C137.087 276.53 137.226 276.027 137.374 275.525C147.843 239.833 185.397 219.313 221.089 229.782C256.78 240.25 277.301 277.804 266.832 313.496C256.363 349.188 218.809 369.709 183.117 359.24Z" fill="black"/>
<path d="M217.215 242.987C188.804 234.654 158.911 250.987 150.578 279.398C142.245 307.809 158.579 337.701 186.99 346.034C201.263 350.221 216.209 348.411 229.076 340.938C231.273 339.662 232.02 336.847 230.743 334.649C229.467 332.452 226.652 331.705 224.454 332.982C213.792 339.174 201.407 340.674 189.58 337.205C166.038 330.3 152.502 305.53 159.407 281.988C166.312 258.446 191.083 244.911 214.625 251.816C238.167 258.721 251.702 283.491 244.797 307.033C242.959 313.298 239.865 318.942 235.601 323.81C233.927 325.721 234.119 328.628 236.03 330.302C237.941 331.975 240.848 331.783 242.522 329.873C247.673 323.992 251.409 317.179 253.625 309.623C261.959 281.212 245.624 251.319 217.215 242.987Z" fill="#DA9400"/>
<path d="M202.496 282.925L212.147 285.756C211.575 288.127 212.96 290.552 215.325 291.246C217.763 291.961 220.32 290.564 221.035 288.126C222.428 283.378 219.698 278.382 214.949 276.989L212.543 276.283L214.038 271.185C214.753 268.747 213.357 266.191 210.918 265.476C208.48 264.761 205.924 266.157 205.209 268.595L203.69 273.774C197.302 272.644 190.93 276.483 189.062 282.851C187.058 289.682 190.986 296.87 197.818 298.874L203.903 300.659C205.866 301.234 206.995 303.3 206.419 305.263C205.843 307.226 203.778 308.354 201.815 307.779L192.165 304.948C192.737 302.577 191.352 300.152 188.987 299.458C186.549 298.743 183.992 300.14 183.277 302.578C181.885 307.326 184.615 312.322 189.363 313.715L191.769 314.421L190.273 319.519C189.558 321.957 190.955 324.513 193.393 325.228C195.831 325.943 198.388 324.547 199.103 322.108L200.621 316.93C207.01 318.06 213.382 314.221 215.249 307.853C217.253 301.022 213.325 293.834 206.494 291.83L200.408 290.045C198.445 289.47 197.317 287.404 197.892 285.441C198.468 283.478 200.533 282.349 202.496 282.925Z" fill="black"/>
</svg>
