<svg width="73" height="71" viewBox="0 0 73 71" fill="none" xmlns="http://www.w3.org/2000/svg">
<path d="M72.7329 30.0552V56.9458L49.4448 70.3921L26.1558 56.9458V30.0552L49.4448 16.6089L72.7329 30.0552Z" fill="#FFAD00" fill-opacity="0.1"/>
<path d="M22.646 7.37939C23.2151 7.37939 23.6763 7.84055 23.6763 8.40967C23.6762 8.97868 23.215 9.43994 22.646 9.43994H6.82764C6.25861 9.43994 5.79741 8.97868 5.79736 8.40967C5.79736 7.84055 6.25857 7.37939 6.82764 7.37939H22.646Z" fill="#FFAD00" stroke="#FFAD00" stroke-width="0.5"/>
<path d="M42.4185 5.78662C43.8666 5.78662 45.0405 6.96056 45.0405 8.40869C45.0405 9.85684 43.8666 11.0308 42.4185 11.0308C40.9703 11.0307 39.7964 9.85683 39.7964 8.40869C39.7964 6.96057 40.9703 5.78664 42.4185 5.78662Z" fill="#FFAD00" stroke="#FFAD00" stroke-width="0.5"/>
<path d="M47.9561 0.25C49.8414 0.25 51.3701 1.77864 51.3701 3.66406V13.1553C51.37 15.0405 49.8413 16.5684 47.9561 16.5684H3.66406C1.77873 16.5684 0.250132 15.0405 0.25 13.1553V3.66406C0.25 1.77865 1.77865 0.25 3.66406 0.25H47.9561ZM3.66406 2.33203C2.92988 2.33203 2.33203 2.92981 2.33203 3.66406V13.1553C2.33216 13.8893 2.92998 14.4873 3.66406 14.4873H47.9561C48.6901 14.4873 49.288 13.8893 49.2881 13.1553V3.66406C49.2881 2.92981 48.6902 2.33203 47.9561 2.33203H3.66406Z" fill="#FFAD00" stroke="#FFAD00" stroke-width="0.5"/>
<path d="M22.646 24.7798C23.2151 24.7798 23.6763 25.2409 23.6763 25.8101C23.6762 26.3791 23.215 26.8403 22.646 26.8403H6.82764C6.25861 26.8403 5.79741 26.3791 5.79736 25.8101C5.79736 25.2409 6.25857 24.7798 6.82764 24.7798H22.646Z" fill="#FFAD00" stroke="#FFAD00" stroke-width="0.5"/>
<path d="M42.4185 23.1875C43.8666 23.1875 45.0405 24.3614 45.0405 25.8096C45.0405 27.2577 43.8666 28.4316 42.4185 28.4316C40.9703 28.4316 39.7964 27.2577 39.7964 25.8096C39.7964 24.3614 40.9703 23.1875 42.4185 23.1875Z" fill="#FFAD00" stroke="#FFAD00" stroke-width="0.5"/>
<path d="M47.9561 17.6504C49.8414 17.6504 51.3701 19.179 51.3701 21.0645V30.5557C51.37 32.4409 49.8413 33.9688 47.9561 33.9688H3.66406C1.77873 33.9688 0.250132 32.4409 0.25 30.5557V21.0645C0.25 19.179 1.77865 17.6504 3.66406 17.6504H47.9561ZM3.66406 19.7324C2.92988 19.7324 2.33203 20.3302 2.33203 21.0645V30.5557C2.33216 31.2897 2.92998 31.8877 3.66406 31.8877H47.9561C48.6901 31.8877 49.288 31.2897 49.2881 30.5557V21.0645C49.2881 20.3302 48.6902 19.7324 47.9561 19.7324H3.66406Z" fill="#FFAD00" stroke="#FFAD00" stroke-width="0.5"/>
<path d="M22.646 42.1807C23.2151 42.1807 23.6763 42.6418 23.6763 43.2109C23.6762 43.7799 23.215 44.2412 22.646 44.2412H6.82764C6.25861 44.2412 5.79741 43.7799 5.79736 43.2109C5.79736 42.6418 6.25857 42.1807 6.82764 42.1807H22.646Z" fill="#FFAD00" stroke="#FFAD00" stroke-width="0.5"/>
<path d="M42.4185 40.5879C43.8666 40.5879 45.0405 41.7618 45.0405 43.21C45.0405 44.6581 43.8666 45.832 42.4185 45.832C40.9703 45.832 39.7964 44.6581 39.7964 43.21C39.7964 41.7618 40.9703 40.5879 42.4185 40.5879Z" fill="#FFAD00" stroke="#FFAD00" stroke-width="0.5"/>
<path d="M47.9561 35.0513C49.8414 35.0513 51.3701 36.5799 51.3701 38.4653V47.9565C51.37 49.8418 49.8413 51.3696 47.9561 51.3696H3.66406C1.77873 51.3696 0.250132 49.8418 0.25 47.9565V38.4653C0.25 36.5799 1.77865 35.0513 3.66406 35.0513H47.9561ZM3.66406 37.1333C2.92988 37.1333 2.33203 37.7311 2.33203 38.4653V47.9565C2.33216 48.6905 2.92998 49.2886 3.66406 49.2886H47.9561C48.6901 49.2886 49.288 48.6905 49.2881 47.9565V38.4653C49.2881 37.7311 48.6902 37.1333 47.9561 37.1333H3.66406Z" fill="#FFAD00" stroke="#FFAD00" stroke-width="0.5"/>
</svg>
