<svg width="69" height="69" viewBox="0 0 69 69" fill="none" xmlns="http://www.w3.org/2000/svg">
<path d="M68.6318 27.8003V54.6909L45.3438 68.1372L22.0547 54.6909V27.8003L45.3438 14.354L68.6318 27.8003Z" fill="#FFAD00" fill-opacity="0.1"/>
<path d="M9.20126 6.13236C8.93954 6.13236 8.67783 6.03217 8.47746 5.83384L5.112 2.46634L1.74653 5.83384C1.34783 6.23254 0.699683 6.23254 0.30098 5.83384C-0.0977226 5.43514 -0.0977226 4.78699 0.30098 4.38829L4.39024 0.299027C4.78894 -0.0996757 5.43709 -0.0996757 5.8358 0.299027L9.92506 4.38829C10.3238 4.78699 10.3238 5.43514 9.92506 5.83384C9.72468 6.03217 9.46297 6.13236 9.20126 6.13236Z" fill="#FFAD00"/>
<path d="M43.9603 49.0697C43.6986 49.0697 43.4369 48.9695 43.2365 48.7712C42.8378 48.3725 42.8378 47.7243 43.2365 47.3256L46.602 43.9601L43.2365 40.5947C42.8378 40.196 42.8378 39.5478 43.2365 39.1491C43.6352 38.7504 44.2834 38.7504 44.6821 39.1491L48.7713 43.2384C49.17 43.6371 49.17 44.2852 48.7713 44.6839L44.6821 48.7732C44.4838 48.9695 44.222 49.0697 43.9603 49.0697Z" fill="#FFAD00"/>
<path d="M5.11216 49.0697C4.54784 49.0697 4.08984 48.6117 4.08984 48.0474V1.53208C4.08984 0.967763 4.54784 0.509766 5.11216 0.509766C5.67648 0.509766 6.13447 0.967763 6.13447 1.53208V48.0474C6.13447 48.6117 5.67648 49.0697 5.11216 49.0697Z" fill="#FFAD00"/>
<path d="M47.5377 44.9807H1.02232C0.457997 44.9807 0 44.5227 0 43.9584C0 43.394 0.457997 42.936 1.02232 42.936H47.5377C48.102 42.936 48.56 43.394 48.56 43.9584C48.56 44.5227 48.102 44.9807 47.5377 44.9807Z" fill="#FFAD00"/>
<path d="M26.58 20.445C26.4553 20.445 26.3305 20.4225 26.212 20.3776L12.9219 15.266C12.5272 15.1147 12.2676 14.7344 12.2676 14.3111C12.2676 13.8879 12.5272 13.5076 12.9219 13.3563L26.212 8.24472C26.4471 8.15476 26.7108 8.15476 26.946 8.24472L40.2361 13.3563C40.6327 13.5076 40.8924 13.8879 40.8924 14.3111C40.8924 14.7344 40.6327 15.1147 40.2381 15.266L26.948 20.3776C26.8294 20.4225 26.7047 20.445 26.58 20.445ZM16.1381 14.3111L26.58 18.3268L37.0219 14.3111L26.58 10.2955L16.1381 14.3111Z" fill="#FFAD00"/>
<path d="M26.58 36.8018C26.4553 36.8018 26.3305 36.7793 26.212 36.7344L12.9219 31.6228C12.5272 31.4715 12.2676 31.0912 12.2676 30.6679V14.3109C12.2676 13.7466 12.7256 13.2886 13.2899 13.2886C13.8542 13.2886 14.3122 13.7466 14.3122 14.3109V29.9666L26.58 34.6856L38.8478 29.9666V14.3109C38.8478 13.7466 39.3058 13.2886 39.8701 13.2886C40.4344 13.2886 40.8924 13.7466 40.8924 14.3109V30.6679C40.8924 31.0912 40.6327 31.4715 40.2381 31.6228L26.948 36.7344C26.8294 36.7793 26.7047 36.8018 26.58 36.8018Z" fill="#FFAD00"/>
<path d="M26.5809 36.8021C26.0166 36.8021 25.5586 36.3441 25.5586 35.7798V19.4227C25.5586 18.8584 26.0166 18.4004 26.5809 18.4004C27.1452 18.4004 27.6032 18.8584 27.6032 19.4227V35.7798C27.6032 36.3441 27.1452 36.8021 26.5809 36.8021Z" fill="#FFAD00"/>
</svg>
