<svg width="77" height="81" viewBox="0 0 77 81" fill="none" xmlns="http://www.w3.org/2000/svg">
<path d="M76.6865 40.0156V66.9062L53.3984 80.3525L30.1094 66.9062V40.0156L53.3984 26.5693L76.6865 40.0156Z" fill="#FFAD00" fill-opacity="0.1"/>
<path d="M22.9733 33.909V17.868C22.9741 17.5022 22.9003 17.1544 22.7665 16.8375C22.3664 15.89 21.4282 15.2231 20.3343 15.2227C18.8742 15.2204 17.6903 16.402 17.689 17.8617V33.8613" stroke="#FFAD00" stroke-width="2.09133" stroke-miterlimit="10" stroke-linecap="round" stroke-linejoin="round"/>
<path d="M28.258 33.8137V20.9085C28.2588 20.5427 28.185 20.1949 28.0512 19.8781C27.6511 18.9305 26.7129 18.2637 25.619 18.2632C24.1589 18.2609 22.9749 19.4425 22.9736 20.9022V33.9087" stroke="#FFAD00" stroke-width="2.09133" stroke-miterlimit="10" stroke-linecap="round" stroke-linejoin="round"/>
<path d="M44.5914 27.4546C46.6394 26.2853 48.5956 25.8679 48.5956 25.8679V7.98836C48.5944 6.52925 47.4095 5.34674 45.9504 5.34912C44.8561 5.35032 43.9179 6.01666 43.5173 6.96437C43.385 7.27904 43.311 7.62236 43.311 7.98597V17.897" stroke="#FFAD00" stroke-width="2.09133" stroke-miterlimit="10" stroke-linecap="round" stroke-linejoin="round"/>
<path d="M38.0264 17.9447V3.83917C38.0255 3.47341 38.0993 3.12556 38.2331 2.80874C38.6333 1.86115 39.5714 1.19433 40.6654 1.19385C42.1254 1.19158 43.3094 2.37314 43.3107 3.83285V17.8972" stroke="#FFAD00" stroke-width="2.09133" stroke-miterlimit="10" stroke-linecap="round" stroke-linejoin="round"/>
<path d="M32.7422 17.9443V6.8797C32.7414 6.51394 32.8151 6.16608 32.9489 5.84927C33.3491 4.90168 34.2872 4.23486 35.3812 4.23438C36.8413 4.23211 38.0252 5.41367 38.0265 6.87337V17.9445" stroke="#FFAD00" stroke-width="2.09133" stroke-miterlimit="10" stroke-linecap="round" stroke-linejoin="round"/>
<path d="M33.5378 40.239L33.5366 43.902C33.8288 48.5174 28.4883 53.8735 28.2772 54.0364L28.266 59.8055L14.5226 59.8061C13.8633 59.8061 13.3291 59.2709 13.3305 58.6116L13.3388 54.7422C12.2778 53.8863 7.27113 50.9119 6.52003 45.5584L4.33608 33.7723C3.71976 30.3247 8.62041 28.6284 9.82561 32.3251L12.3945 39.896H12.4041V39.8967V22.0172C12.4053 20.5581 13.5902 19.3755 15.0493 19.3779C16.1436 19.3791 17.0817 20.0455 17.4824 20.9932C17.6146 21.3078 17.6886 21.6512 17.6886 22.0148V33.8612" stroke="#FFAD00" stroke-width="2.09133" stroke-miterlimit="10" stroke-linecap="round" stroke-linejoin="round"/>
<path d="M28.2578 33.8141V25.8873C28.259 24.427 29.4427 23.2457 30.903 23.2481C31.9973 23.2481 32.9343 23.9156 33.3349 24.8633C33.4684 25.1804 33.5424 25.5273 33.5424 25.8933L33.5413 29.3619" stroke="#FFAD00" stroke-width="2.09133" stroke-miterlimit="10" stroke-linecap="round" stroke-linejoin="round"/>
<path d="M48.5949 25.8667H48.6045L51.174 18.2969C52.3792 14.5999 57.2801 16.2958 56.6637 19.7438L54.4796 31.53C53.728 36.8834 48.7217 39.8574 47.6601 40.7132L47.6684 44.5825C47.6696 45.2419 47.1359 45.7781 46.4764 45.7781L34.0283 45.7769" stroke="#FFAD00" stroke-width="2.09133" stroke-miterlimit="10" stroke-linecap="round" stroke-linejoin="round"/>
<path d="M27.4577 18.5996L27.4565 11.8647C27.4565 11.4985 27.5308 11.1514 27.6647 10.8343C28.0645 9.88643 29.0016 9.21973 30.0966 9.21973C31.5567 9.21734 32.7404 10.3985 32.7416 11.8587V17.9449" stroke="#FFAD00" stroke-width="2.09133" stroke-miterlimit="10" stroke-linecap="round" stroke-linejoin="round"/>
<path d="M20.6909 4.9248L21.6527 6.0283" stroke="#FFAD00" stroke-width="2.09133" stroke-miterlimit="10" stroke-linecap="round" stroke-linejoin="round"/>
<path d="M17.2837 10.3091L18.6683 10.7838" stroke="#FFAD00" stroke-width="2.09133" stroke-miterlimit="10" stroke-linecap="round" stroke-linejoin="round"/>
<path d="M26.4902 2.28467L26.7714 3.72121" stroke="#FFAD00" stroke-width="2.09133" stroke-miterlimit="10" stroke-linecap="round" stroke-linejoin="round"/>
</svg>
