<svg width="78" height="74" viewBox="0 0 78 74" fill="none" xmlns="http://www.w3.org/2000/svg">
<path d="M77.3105 33.6099V60.5005L54.0225 73.9468L30.7334 60.5005V33.6099L54.0225 20.1636L77.3105 33.6099Z" fill="#FFAD00" fill-opacity="0.1"/>
<path d="M56.0546 45.069L50.8001 15.2698C50.4382 13.2174 49.0704 11.5216 47.1411 10.7336L34.6031 5.61203C34.0631 5.3915 33.5005 5.25508 32.9337 5.19883L32.2567 1.35966C32.0991 0.465031 31.2464 -0.13219 30.3513 0.0253946C29.4565 0.183089 28.8592 1.03626 29.017 1.93089L29.694 5.7705C29.1883 6.01384 28.7131 6.32923 28.2862 6.7137L26.8661 7.99269L26.6555 7.80166C26.2236 7.40973 25.7416 7.08908 25.2282 6.84234L26.0942 1.93089C26.2519 1.03626 25.6545 0.183089 24.7599 0.0253946C23.8654 -0.132848 23.0121 0.464921 22.8544 1.35966L21.9883 6.27143C21.4298 6.32714 20.8754 6.46104 20.3427 6.67642L7.69161 11.789C5.75092 12.5733 4.3752 14.2722 4.01167 16.3337L0.0922291 38.5625C-0.485253 41.8378 1.70953 44.9722 4.98471 45.5496L21.0042 48.3743L21.4958 51.1627C22.0111 54.0853 24.5621 56.1474 27.4326 56.1474C27.779 56.1474 28.1303 56.1174 28.4829 56.0552L51.1622 52.0562C54.4373 51.4786 56.6321 48.3443 56.0546 45.069ZM50.5909 48.8163L27.9116 52.8152C27.1903 52.9423 26.463 52.7811 25.863 52.361C25.2631 51.941 24.8628 51.3124 24.7356 50.5913L24.4519 48.9822L27.6638 49.5486C28.0176 49.611 28.372 49.6418 28.7239 49.6418C29.95 49.6418 31.1452 49.2674 32.1706 48.5495C33.4903 47.6254 34.3711 46.2427 34.6509 44.6562L38.5723 22.4167C38.9342 20.3643 38.2287 18.3029 36.6855 16.9027L29.3146 10.2147L30.4875 9.15841C30.998 8.6987 31.6597 8.45624 32.3282 8.45624C32.6768 8.45624 33.0272 8.52225 33.3589 8.65769L45.8969 13.7792C46.7739 14.1375 47.3956 14.9082 47.5601 15.8411L52.8146 45.6402C53.0772 47.129 52.0795 48.5537 50.5909 48.8163ZM3.33198 39.1337L7.25165 16.905C7.41691 15.9679 8.0422 15.1956 8.92433 14.8391L21.3638 9.81199L21.0073 11.8342C20.8496 12.7288 21.4469 13.582 22.3415 13.7397C22.4381 13.7568 22.5342 13.7649 22.629 13.7649C23.4123 13.7649 24.1063 13.2033 24.247 12.4053L24.6037 10.3823L34.4749 19.339C35.1763 19.9755 35.4969 20.9125 35.3326 21.8454L31.4111 44.0849C31.2839 44.806 30.8836 45.4345 30.2837 45.8545C29.6839 46.2746 28.9564 46.4358 28.2351 46.3087L5.55583 42.3098C4.06716 42.0472 3.06956 40.6225 3.33198 39.1337Z" fill="#FFAD00"/>
<path d="M16.5708 38.2553L16.3081 39.7448C16.203 40.3412 16.6013 40.9099 17.1977 41.0151C17.2621 41.0265 17.3261 41.0319 17.3894 41.0319C17.9115 41.0319 18.3743 40.6575 18.4681 40.1255L18.7453 38.5536C19.8723 38.5501 20.948 38.2369 21.9025 37.627C23.0387 36.9009 23.9133 35.8 24.3653 34.5268C25.2853 31.9349 24.2965 29.3655 21.8462 27.9811C21.4413 27.7523 21.0689 27.5359 20.7245 27.3294L21.8201 21.1157C22.5903 21.3994 23.0335 21.8667 23.3286 22.1784C23.4126 22.2671 23.492 22.351 23.5732 22.426C24.018 22.8371 24.7117 22.8098 25.1228 22.3652C25.5339 21.9206 25.5067 21.2267 25.0621 20.8156C25.0345 20.7902 24.977 20.7294 24.9214 20.6706C24.5237 20.2505 23.6926 19.3729 22.2045 18.936L22.4309 17.6514C22.5361 17.0549 22.1378 16.4862 21.5413 16.3811C20.9449 16.276 20.3762 16.6741 20.271 17.2707L20.0218 18.6841C19.7958 18.6925 19.5622 18.7094 19.318 18.7384C17.5127 18.9525 15.9725 20.1955 15.2983 21.9822C14.6855 23.6063 14.935 25.3178 15.9494 26.4487C16.5155 27.0798 17.2549 27.6965 18.3085 28.4L16.9516 36.0951C15.8835 35.8489 15.2325 35.504 14.188 34.5236C13.7465 34.1091 13.0525 34.1309 12.638 34.5725C12.2234 35.014 12.2453 35.7081 12.6869 36.1226C14.1084 37.4569 15.1394 37.9364 16.5708 38.2553ZM22.2983 33.7933C21.8704 34.9988 20.7414 36.1647 19.136 36.3377L20.3179 29.6344C20.4636 29.7183 20.6133 29.8037 20.7671 29.8907C23.0212 31.1642 22.5091 33.1998 22.2983 33.7933ZM17.5821 24.9842C17.1165 24.4651 17.0276 23.6114 17.3503 22.7564C17.6512 21.9588 18.394 21.0566 19.5763 20.9164C19.5942 20.9143 19.6113 20.9129 19.629 20.9109L18.7298 26.0107C18.2499 25.647 17.8751 25.3107 17.5821 24.9842Z" fill="#FFAD00"/>
</svg>
