<svg width="74" height="72" viewBox="0 0 74 72" fill="none" xmlns="http://www.w3.org/2000/svg">
<path d="M73.8716 31.1812V58.0718L50.5835 71.5181L27.2944 58.0718V31.1812L50.5835 17.7349L73.8716 31.1812Z" fill="#FFAD00" fill-opacity="0.1"/>
<path d="M42.2741 4.4234L27.8884 0.0671105C27.5569 -0.0351353 27.1975 -0.0196435 26.8753 0.107389L0.98229 10.2731C0.390504 10.5055 0.000110614 11.0756 0.000110614 11.7138V39.2861C-0.00298774 39.5495 0.0589792 39.8035 0.18911 40.0297C0.192209 40.0328 0.192209 40.0328 0.192209 40.0359V40.039V40.0421C0.192209 40.0452 0.192209 40.0452 0.192209 40.0452C0.204602 40.07 0.220094 40.0948 0.235585 40.1196C0.235585 40.1227 0.235585 40.1227 0.235585 40.1258C0.238684 40.1258 0.238684 40.1289 0.238684 40.1289C0.238684 40.132 0.238684 40.132 0.238684 40.132C0.238684 40.132 0.238684 40.132 0.238684 40.1351C0.238684 40.1351 0.238684 40.1351 0.238684 40.1382C0.412192 40.4139 0.669356 40.6339 0.991585 40.7578C1.01327 40.7671 1.03806 40.7733 1.06285 40.7826L26.9496 49.4921C27.1107 49.5448 27.2749 49.5727 27.4423 49.5727C27.5941 49.5727 27.7459 49.551 27.8915 49.5076L42.2772 45.1513C42.9278 44.953 43.3771 44.3519 43.3771 43.6672V5.90442C43.3771 5.22278 42.9278 4.6186 42.2741 4.4234ZM40.2788 42.5177L27.467 46.3968L16.1054 42.5735L27.2626 43.881C27.6684 43.9213 28.1425 43.7911 28.4709 43.4968C28.8024 43.2024 28.9914 42.7842 28.9914 42.3411V10.2638C28.9914 9.80834 28.79 9.37457 28.443 9.08023C28.096 8.78899 27.6375 8.66815 27.1851 8.73631L9.92415 11.6395C9.17744 11.7634 8.63213 12.411 8.63213 13.167V35.2923L3.09847 37.1575V12.7704L27.5104 3.18716L40.2788 7.05391V42.5177ZM8.58876 38.5766L10.677 37.8733C11.306 37.6595 11.7305 37.0708 11.7305 36.4046V14.4776L25.8931 12.0949V40.5998L8.58876 38.5766Z" fill="#FFAD00"/>
</svg>
