<svg width="655" height="474" viewBox="0 0 655 474" fill="none" xmlns="http://www.w3.org/2000/svg">
<mask id="mask0_56_132" style="mask-type:alpha" maskUnits="userSpaceOnUse" x="0" y="0" width="655" height="474">
<rect x="0.5" y="0.5" width="654" height="472.644" fill="white" stroke="black"/>
</mask>
<g mask="url(#mask0_56_132)">
<g filter="url(#filter0_f_56_132)">
<path d="M556.866 140.968L542.107 132.447V115.405L556.866 106.884L571.625 115.405V132.447L556.866 140.968ZM545.797 130.317L556.866 136.708L567.935 130.317V117.535L556.866 111.144L545.797 117.535V130.317Z" fill="#FFAD00"/>
</g>
<g filter="url(#filter1_f_56_132)">
<path d="M461.248 412.955L427 393.182V353.637L461.248 333.863L495.495 353.637V393.182L461.248 412.955ZM435.562 388.239L461.248 403.069L486.933 388.239V358.58L461.248 343.75L435.562 358.58V388.239Z" fill="#FFAD00"/>
</g>
<g filter="url(#filter2_f_56_132)">
<path d="M-28.9047 196.616L-185.322 106.308V-74.3046L-28.9047 -164.616L127.513 -74.3046V106.308L-28.9047 196.616ZM-146.217 83.7335L-28.9047 151.464L88.4074 83.7335V-51.7268L-28.9047 -119.46L-146.217 -51.7268V83.7335Z" fill="#FFAD00" fill-opacity="0.7"/>
</g>
</g>
<defs>
<filter id="filter0_f_56_132" x="533.107" y="97.8838" width="47.5176" height="52.084" filterUnits="userSpaceOnUse" color-interpolation-filters="sRGB">
<feFlood flood-opacity="0" result="BackgroundImageFix"/>
<feBlend mode="normal" in="SourceGraphic" in2="BackgroundImageFix" result="shape"/>
<feGaussianBlur stdDeviation="4.5" result="effect1_foregroundBlur_56_132"/>
</filter>
<filter id="filter1_f_56_132" x="416" y="322.863" width="90.4954" height="101.092" filterUnits="userSpaceOnUse" color-interpolation-filters="sRGB">
<feFlood flood-opacity="0" result="BackgroundImageFix"/>
<feBlend mode="normal" in="SourceGraphic" in2="BackgroundImageFix" result="shape"/>
<feGaussianBlur stdDeviation="5.5" result="effect1_foregroundBlur_56_132"/>
</filter>
<filter id="filter2_f_56_132" x="-196.322" y="-175.616" width="334.835" height="383.232" filterUnits="userSpaceOnUse" color-interpolation-filters="sRGB">
<feFlood flood-opacity="0" result="BackgroundImageFix"/>
<feBlend mode="normal" in="SourceGraphic" in2="BackgroundImageFix" result="shape"/>
<feGaussianBlur stdDeviation="5.5" result="effect1_foregroundBlur_56_132"/>
</filter>
</defs>
</svg>
