<svg width="126" height="131" viewBox="0 0 126 131" fill="none" xmlns="http://www.w3.org/2000/svg">
<path d="M125.116 65.2729V109.007L87.2402 130.875L49.3643 109.007V65.2729L87.2402 43.4038L125.116 65.2729Z" fill="#FFAD00" fill-opacity="0.1"/>
<path d="M100.976 0H98.1927C95.2628 0 92.6781 2.16742 91.9094 5.27192L88.8003 17.7883C88.4729 19.1044 87.5137 20.088 86.2954 20.3563L84.6179 20.7246C81.8232 21.3398 79.7352 23.8417 79.4209 26.9497L78.6701 34.3712C78.4844 36.1863 77.0919 37.5544 75.4291 37.5544H73.206C70.6344 37.5544 68.2973 39.2229 67.2533 41.8016L64.2468 49.2302C63.0205 44.9311 60.5759 41.0934 57.159 38.4056C51.4831 33.9384 42.8953 28.6129 34.2016 28.6129C23.6675 28.6129 16.3337 32.2145 12.8989 34.3605C10.9689 35.5676 9.77188 37.8172 9.77188 40.2386V50.4838C9.77188 54.2017 12.5259 57.2257 15.9119 57.2257H16.2311C17.6219 57.2257 18.9949 56.6892 20.104 55.7164C21.1675 54.7811 23.2603 53.1788 26.0583 51.9144V60.8023H23.1528C20.4981 60.8023 17.8907 61.5945 15.6106 63.0949L10.9494 66.1672H0V94.7801H10.9494L15.6122 97.8524C17.889 99.3528 20.4981 100.145 23.1528 100.145H26.0583V105.51C26.0583 108.468 28.2505 110.875 30.9443 110.875H37.4589C40.1526 110.875 42.3448 108.468 42.3448 105.51V100.145H43.9734C46.0939 100.145 47.8854 98.6446 48.5597 96.5684H100.976V0ZM79.7352 39.3427H91.2042V57.2257H78.175V40.4389C78.7401 40.1492 79.2727 39.7915 79.7352 39.3427ZM48.5597 71.5321C47.9604 69.6848 46.475 68.315 44.6591 68.0324C45.2438 66.9594 45.6021 65.7184 45.6021 64.3789C45.6021 62.4064 44.1412 60.8023 42.3448 60.8023V51.1061C48.1428 52.3025 54.5466 54.2786 58.6671 55.6413L57.4472 56.1778C55.2453 57.1434 53.6948 59.3466 53.4017 61.9325L52.6655 68.399C52.4603 70.1855 51.0711 71.5321 49.4327 71.5321H48.5597ZM43.9734 71.5321C44.8725 71.5321 45.6021 72.3333 45.6021 73.3204C45.6021 74.3076 44.8725 75.1087 43.9734 75.1087H37.4589C36.5598 75.1087 35.8302 74.3076 35.8302 73.3204C35.8302 72.3333 36.5598 71.5321 37.4589 71.5321H39.0875H43.9734ZM45.6021 80.4736C45.6021 81.4608 44.8725 82.262 43.9734 82.262H37.4589C36.5598 82.262 35.8302 81.4608 35.8302 80.4736C35.8302 79.4865 36.5598 78.6853 37.4589 78.6853H43.9734C44.8725 78.6853 45.6021 79.4865 45.6021 80.4736ZM35.8302 87.6269C35.8302 86.6397 36.5598 85.8386 37.4589 85.8386H43.9734C44.8725 85.8386 45.6021 86.6397 45.6021 87.6269C45.6021 88.614 44.8725 89.4152 43.9734 89.4152H37.4589C36.5598 89.4152 35.8302 88.614 35.8302 87.6269ZM18.0682 52.9248C17.5356 53.3898 16.8825 53.6491 16.2311 53.6491H15.9119C14.3223 53.6491 13.0292 52.2292 13.0292 50.4838V40.2386C13.0292 39.1013 13.5976 38.0408 14.5112 37.4685C17.6659 35.4978 24.4183 32.1895 34.2016 32.1895C42.0305 32.1895 49.975 37.1484 55.2632 41.3116C58.7827 44.0817 61.0986 48.3021 61.7208 52.9248C56.1981 51.0221 42.2096 46.4959 34.2016 46.4959C26.5306 46.4959 20.7994 50.5231 18.0682 52.9248ZM29.3156 50.727C30.8205 50.3246 32.4573 50.0725 34.2016 50.0725C35.6348 50.0725 37.2992 50.237 39.0875 50.5124V60.8023H29.3156V50.727ZM3.25729 69.7438H9.77188V91.2035H3.25729V69.7438ZM23.1528 96.5684C21.0877 96.5684 19.0584 95.9514 17.2864 94.7854L13.0292 91.9796V68.9677L17.2848 66.1619C19.0584 64.9959 21.0877 64.3789 23.1528 64.3789H42.3448C42.3448 66.3514 40.8839 67.9555 39.0875 67.9555H37.4589H26.6805L26.231 68.9445C24.4981 72.7464 21.0177 75.1087 17.1464 75.1087H16.2865V78.6853H17.1464C20.5177 78.6853 23.6496 77.3066 26.0583 74.9424V96.5684H23.1528ZM39.0875 105.51C39.0875 106.497 38.3579 107.298 37.4589 107.298H30.9443C30.0453 107.298 29.3156 106.497 29.3156 105.51V71.5321H32.8726C32.6902 72.0937 32.5729 72.691 32.5729 73.3204C32.5729 74.6992 33.0631 75.9457 33.8433 76.897C33.0615 77.8484 32.5729 79.0949 32.5729 80.4736C32.5729 81.8524 33.0631 83.0989 33.8433 84.0503C33.0615 85.0016 32.5729 86.2481 32.5729 87.6269C32.5729 89.0056 33.0631 90.2521 33.8433 91.2035C33.0615 92.1548 32.5729 93.4013 32.5729 94.7801C32.5729 97.7379 34.7651 100.145 37.4589 100.145H39.0875V105.51ZM43.9734 96.5684H37.4589C36.5598 96.5684 35.8302 95.7672 35.8302 94.7801C35.8302 93.7929 36.5598 92.9918 37.4589 92.9918H43.9734C44.8725 92.9918 45.6021 93.7929 45.6021 94.7801C45.6021 95.7672 44.8725 96.5684 43.9734 96.5684ZM97.7188 92.9918H48.5597C48.3431 92.323 48.0141 91.7203 47.589 91.2035C48.3708 90.2521 48.8594 89.0056 48.8594 87.6269C48.8594 86.2481 48.3692 85.0016 47.589 84.0503C48.3708 83.0989 48.8594 81.8524 48.8594 80.4736C48.8594 79.0949 48.3692 77.8484 47.589 76.897C48.0125 76.3802 48.3431 75.7776 48.5597 75.1087H49.4327C52.7111 75.1087 55.4912 72.4138 55.8968 68.8425L56.6329 62.376C56.7811 61.0831 57.5547 59.9815 58.6557 59.5004L64.737 56.8287L70.2305 43.2555C70.7516 41.9643 71.921 41.131 73.206 41.131H74.9177V60.8023H94.4615V35.7661H81.7189C81.7955 35.4388 81.872 35.1115 81.9062 34.7664L82.657 27.3449C82.815 25.7909 83.859 24.5391 85.2564 24.2315L86.9339 23.8631C89.3671 23.3284 91.2872 21.3631 91.9419 18.7307L95.051 6.21257C95.393 4.832 96.4549 3.81982 97.7188 3.61595V92.9918Z" fill="#FFAD00"/>
<path d="M55.3738 89.4153H71.6602V71.5322H55.3738V89.4153ZM58.6311 75.1088H68.4029V85.8387H58.6311V75.1088Z" fill="#FFAD00"/>
<path d="M74.9177 89.4152H94.4615V64.3789H74.9177V89.4152ZM78.175 67.9555H91.2042V85.8385H78.175V67.9555Z" fill="#FFAD00"/>
<path d="M81.4324 71.5322H87.947V75.1088H81.4324V71.5322Z" fill="#FFAD00"/>
<path d="M81.4324 78.6851H87.947V82.2617H81.4324V78.6851Z" fill="#FFAD00"/>
<path d="M61.8884 78.6851H65.1457V82.2617H61.8884V78.6851Z" fill="#FFAD00"/>
<path d="M81.4324 42.9189H87.947V46.4956H81.4324V42.9189Z" fill="#FFAD00"/>
<path d="M81.4324 50.0723H87.947V53.6489H81.4324V50.0723Z" fill="#FFAD00"/>
<path d="M50.9587 15.5776L53.2616 13.049L71.1736 32.7169L68.8707 35.2456L50.9587 15.5776Z" fill="#FFAD00"/>
<path d="M65.2859 16.9048L68.1979 15.306L74.7092 29.6052L71.7972 31.2039L65.2859 16.9048Z" fill="#FFAD00"/>
<path d="M51.3506 30.2061L52.9328 27.0817L67.5885 36.0301L66.0063 39.1545L51.3506 30.2061Z" fill="#FFAD00"/>
</svg>
