<svg width="126" height="121" viewBox="0 0 126 121" fill="none" xmlns="http://www.w3.org/2000/svg">
<path d="M125.116 55.374V99.1084L87.2402 120.977L49.3643 99.1084V55.374L87.2402 33.5049L125.116 55.374Z" fill="#FFAD00" fill-opacity="0.1"/>
<path d="M6.51465 6.51465H9.77194V13.0292H6.51465V6.51465Z" fill="#FFAD00"/>
<path d="M13.0288 6.51465H16.2861V13.0292H13.0288V6.51465Z" fill="#FFAD00"/>
<path d="M6.51465 39.0874H9.77194V45.602H6.51465V39.0874Z" fill="#FFAD00"/>
<path d="M13.0288 39.0874H16.2861V45.602H13.0288V39.0874Z" fill="#FFAD00"/>
<path d="M22.8008 22.8013H26.0581V29.3159H22.8008V22.8013Z" fill="#FFAD00"/>
<path d="M29.3154 22.8013H32.5727V29.3159H29.3154V22.8013Z" fill="#FFAD00"/>
<path d="M16.2866 78.1753H26.0585V81.4326H16.2866V78.1753Z" fill="#FFAD00"/>
<path d="M16.2866 84.6895H26.0585V87.9467H16.2866V84.6895Z" fill="#FFAD00"/>
<path d="M16.2866 91.2041H26.0585V94.4614H16.2866V91.2041Z" fill="#FFAD00"/>
<path d="M45.6021 78.1753H55.3739V81.4326H45.6021V78.1753Z" fill="#FFAD00"/>
<path d="M45.6021 84.6895H55.3739V87.9467H45.6021V84.6895Z" fill="#FFAD00"/>
<path d="M45.6021 91.2041H55.3739V94.4614H45.6021V91.2041Z" fill="#FFAD00"/>
<path d="M74.9175 84.6895H84.6894V87.9467H74.9175V84.6895Z" fill="#FFAD00"/>
<path d="M74.9175 91.2041H84.6894V94.4614H74.9175V91.2041Z" fill="#FFAD00"/>
<path d="M85.2824 15.5325L84.9892 14.5358L83.9615 14.3811C79.8492 13.7654 73.8118 13.0293 68.4031 13.0293C62.9943 13.0293 56.9569 13.7654 52.8446 14.3827L51.8169 14.5374L51.5238 15.5342C50.299 19.6986 47.3072 23.0894 43.3187 24.837L42.3447 25.2621V26.7686C42.3447 45.112 51.0189 62.747 65.5481 73.9456C66.3624 74.5726 67.377 74.9179 68.4031 74.9179C69.4291 74.9179 70.4421 74.5726 71.2581 73.9456C85.7872 62.747 94.4614 45.112 94.4614 26.7702V25.2637L93.4859 24.837C89.4989 23.0878 86.5071 19.697 85.2824 15.5325ZM69.2711 71.3642C68.7793 71.7404 68.0268 71.7436 67.535 71.3642C53.957 60.8985 45.7877 44.4833 45.6053 27.3549C49.672 25.2751 52.7795 21.7474 54.3218 17.456C58.2631 16.8924 63.6116 16.2866 68.4031 16.2866C73.1945 16.2866 78.543 16.8924 82.4843 17.4576C84.025 21.7474 87.1325 25.2767 91.2009 27.3565C91.0185 44.4833 82.8492 60.9001 69.2711 71.3642Z" fill="#FFAD00"/>
<path d="M100.976 19.5438H99.3474C94.8573 19.5438 91.2042 15.8907 91.2042 11.4005C91.2042 11.1123 91.2205 10.8272 91.2498 10.5471L91.4045 9.06505L89.942 8.78003C89.4681 8.6872 78.219 6.51459 68.4031 6.51459C58.5873 6.51459 47.3382 8.6872 46.8643 8.78003L45.4018 9.06505L45.5565 10.5471C45.5858 10.8272 45.6021 11.1123 45.6021 11.4005C45.6021 14.4168 43.9327 17.0259 41.4898 18.433C41.3644 18.2474 41.2324 18.0698 41.0826 17.9053C41.8578 17.0405 42.3448 15.9086 42.3448 14.6578V4.88594C42.3448 2.19216 40.1526 0 37.4589 0H4.88594C2.19216 0 0 2.19216 0 4.88594V14.6578C0 15.9135 0.490223 17.0487 1.27034 17.9151C0.490223 18.7815 0 19.9167 0 21.1724V30.9443C0 32.2 0.490223 33.3351 1.27034 34.2016C0.490223 35.068 0 36.2032 0 37.4589V47.2307C0 49.9245 2.19216 52.1167 4.88594 52.1167H19.5438V71.6604H9.77188V100.976H32.5729V87.9469H39.0875V100.976H61.8886V87.9469H68.4031V100.976H91.2042V71.6604H83.3492C94.525 59.5417 100.976 43.4213 100.976 26.7701V19.5438ZM3.25729 30.9443V21.1724C3.25729 20.275 3.98855 19.5438 4.88594 19.5438H35.8302V26.7701C35.8302 28.7147 35.9459 30.6479 36.1185 32.5729H4.88594C3.98855 32.5729 3.25729 31.8417 3.25729 30.9443ZM3.25729 4.88594C3.25729 3.98855 3.98855 3.25729 4.88594 3.25729H37.4589C38.3563 3.25729 39.0875 3.98855 39.0875 4.88594V14.6578C39.0875 15.5552 38.3563 16.2865 37.4589 16.2865H4.88594C3.98855 16.2865 3.25729 15.5552 3.25729 14.6578V4.88594ZM3.25729 47.2307V37.4589C3.25729 36.5615 3.98855 35.8302 4.88594 35.8302H36.4931C37.0305 39.6494 37.9019 43.4018 39.0875 47.05V47.2307C39.0875 48.1281 38.3563 48.8594 37.4589 48.8594H4.88594C3.98855 48.8594 3.25729 48.1281 3.25729 47.2307ZM29.3156 97.7188H13.0292V74.9177H29.3156V97.7188ZM32.5729 84.6896V71.6604H22.801V52.1167H37.4589C38.6201 52.1167 39.6755 51.6916 40.5142 51.0125C43.5207 58.6003 47.8952 65.6296 53.4571 71.6604H39.0875V84.6896H32.5729ZM42.3448 97.7188V74.9177H56.6997C57.3365 75.5187 57.97 76.1229 58.6313 76.6978V97.7188H42.3448ZM61.8886 84.6896V79.3102C63.781 80.6685 66.0726 81.4323 68.4031 81.4323V84.6896H61.8886ZM87.9469 97.7188H71.6604V80.9193C72.8249 80.5643 73.9243 80.0219 74.9177 79.3086V81.4323H84.6896V78.175H76.3705C77.6604 77.1343 78.9063 76.048 80.1066 74.9177H87.9469V97.7188ZM97.7188 26.7701C97.7188 46.1151 88.5707 64.7159 73.2467 76.5268C70.4862 78.6555 66.3217 78.6555 63.5612 76.5268C48.2356 64.7143 39.0875 46.1151 39.0875 26.7701V22.6854C44.4995 21.9069 48.6965 17.3141 48.8545 11.7279C52.1574 11.1513 60.8527 9.77188 68.4031 9.77188C75.9536 9.77188 84.6489 11.1513 87.9518 11.7279C88.1098 17.3141 92.3068 21.9069 97.7188 22.6854V26.7701Z" fill="#FFAD00"/>
<path d="M60.26 51.4423L56.5256 47.7078L54.2227 50.0107L60.26 56.0481L85.8412 30.467L83.5383 28.1641L60.26 51.4423Z" fill="#FFAD00"/>
</svg>
